<ttFont>
<head>
    <!-- Most of this table will be recalculated by the compiler -->
    <tableVersion value="1.0"/>
    <fontRevision value="1.0"/>
    <checkSumAdjustment value="0x481ddc9b"/>
    <magicNumber value="0x5f0f3cf5"/>
    <flags value="00000000 00001011"/>
    <unitsPerEm value="2048"/>
    <created value="Tue Nov 14 10:04:45 2006"/>
    <modified value="Sat Nov 25 23:11:00 2006"/>
    <xMin value="-209"/>
    <yMin value="-408"/>
    <xMax value="5772"/>
    <yMax value="1817"/>
    <macStyle value="00000000 00000000"/>
    <lowestRecPPEM value="9"/>
    <fontDirectionHint value="1"/>
    <indexToLocFormat value="0"/>
    <glyphDataFormat value="0"/>
  </head>
    <TTGlyph name="A" xMin="1" yMin="-41" xMax="471" yMax="1449">
      <contour>
        <pt x="158" y="1449" on="1"/>
        <pt x="205" y="1449" on="1"/>
        <pt x="230" y="1449" on="0"/>
        <pt x="315" y="1166" on="1"/>
        <pt x="362" y="1166" on="1"/>
        <pt x="362" y="1135" on="1"/>
        <pt x="330" y="1104" on="1"/>
        <pt x="377" y="649" on="1"/>
        <pt x="409" y="649" on="1"/>
        <pt x="409" y="633" on="1"/>
        <pt x="424" y="445" on="1"/>
        <pt x="409" y="445" on="1"/>
        <pt x="471" y="335" on="1"/>
        <pt x="424" y="288" on="1"/>
        <pt x="424" y="163" on="1"/>
        <pt x="440" y="53" on="1"/>
        <pt x="409" y="53" on="0"/>
        <pt x="409" y="-9" on="1"/>
        <pt x="346" y="-41" on="1"/>
        <pt x="283" y="6" on="1"/>
        <pt x="283" y="273" on="1"/>
        <pt x="252" y="304" on="1"/>
        <pt x="142" y="304" on="1"/>
        <pt x="126" y="225" on="1"/>
        <pt x="126" y="37" on="1"/>
        <pt x="95" y="6" on="1"/>
        <pt x="48" y="6" on="1"/>
        <pt x="17" y="69" on="1"/>
        <pt x="17" y="116" on="1"/>
        <pt x="32" y="304" on="1"/>
        <pt x="1" y="335" on="1"/>
        <pt x="1" y="382" on="1"/>
        <pt x="32" y="414" on="0"/>
        <pt x="48" y="586" on="1"/>
        <pt x="32" y="649" on="1"/>
        <pt x="64" y="1308" on="1"/>
        <pt x="64" y="1370" on="1"/>
        <pt x="64" y="1402" on="0"/>
        <pt x="158" y="1402" on="1"/>
      </contour>
      <contour>
        <pt x="205" y="1151" on="1"/>
        <pt x="158" y="1041" on="1"/>
        <pt x="189" y="837" on="1"/>
        <pt x="158" y="429" on="1"/>
        <pt x="174" y="414" on="1"/>
        <pt x="283" y="414" on="1"/>
        <pt x="271" y="1151" on="0"/>
      </contour>
    </TTGlyph>
    <TTGlyph name="AE" xMin="15" yMin="-33" xMax="669" yMax="1449">
      <contour>
        <pt x="564" y="-30" on="1"/>
        <pt x="548" y="-30" on="1"/>
        <pt x="442" y="-1" on="1"/>
        <pt x="352" y="-32" on="1"/>
        <pt x="321" y="-33" on="1"/>
        <pt x="300" y="527" on="1"/>
        <pt x="300" y="587" on="1"/>
        <pt x="254" y="632" on="1"/>
        <pt x="149" y="631" on="0"/>
        <pt x="136" y="328" on="1"/>
        <pt x="137" y="252" on="1"/>
        <pt x="153" y="147" on="1"/>
        <pt x="63" y="62" on="0"/>
        <pt x="64" y="25" on="1"/>
        <pt x="18" y="24" on="1"/>
        <pt x="18" y="69" on="1"/>
        <pt x="15" y="319" on="0"/>
        <pt x="171" y="1252" on="1"/>
        <pt x="198" y="1252" on="0"/>
        <pt x="200" y="1434" on="1"/>
        <pt x="200" y="1449" on="1"/>
        <pt x="215" y="1449" on="1"/>
        <pt x="457" y="1391" on="1"/>
        <pt x="518" y="1407" on="1"/>
        <pt x="639" y="1378" on="1"/>
        <pt x="640" y="1317" on="1"/>
        <pt x="610" y="1317" on="1"/>
        <pt x="429" y="1269" on="1"/>
        <pt x="413" y="1284" on="1"/>
        <pt x="415" y="1103" on="1"/>
        <pt x="387" y="936" on="1"/>
        <pt x="389" y="739" on="1"/>
        <pt x="570" y="741" on="1"/>
        <pt x="646" y="727" on="1"/>
        <pt x="647" y="666" on="1"/>
        <pt x="632" y="666" on="1"/>
        <pt x="435" y="657" on="0"/>
        <pt x="435" y="634" on="1"/>
        <pt x="436" y="604" on="1"/>
        <pt x="421" y="604" on="1"/>
        <pt x="437" y="528" on="1"/>
        <pt x="426" y="104" on="1"/>
        <pt x="441" y="89" on="1"/>
        <pt x="638" y="91" on="1"/>
        <pt x="669" y="61" on="1"/>
        <pt x="669" y="16" on="1"/>
        <pt x="618" y="15" on="0"/>
      </contour>
      <contour>
        <pt x="268" y="708" on="1"/>
        <pt x="283" y="753" on="1"/>
        <pt x="267" y="768" on="1"/>
        <pt x="264" y="1132" on="1"/>
        <pt x="211" y="1131" on="0"/>
        <pt x="177" y="722" on="1"/>
        <pt x="192" y="707" on="1"/>
      </contour>
    </TTGlyph>
    <TTGlyph name="Aacute" xMin="0" yMin="-41" xMax="470" yMax="1809">
      <contour>
        <pt x="157" y="1449" on="1"/>
        <pt x="204" y="1449" on="1"/>
        <pt x="229" y="1449" on="0"/>
        <pt x="314" y="1166" on="1"/>
        <pt x="361" y="1166" on="1"/>
        <pt x="361" y="1135" on="1"/>
        <pt x="329" y="1104" on="1"/>
        <pt x="376" y="649" on="1"/>
        <pt x="408" y="649" on="1"/>
        <pt x="408" y="633" on="1"/>
        <pt x="423" y="445" on="1"/>
        <pt x="408" y="445" on="1"/>
        <pt x="470" y="335" on="1"/>
        <pt x="423" y="288" on="1"/>
        <pt x="423" y="163" on="1"/>
        <pt x="439" y="53" on="1"/>
        <pt x="408" y="53" on="0"/>
        <pt x="408" y="-9" on="1"/>
        <pt x="345" y="-41" on="1"/>
        <pt x="282" y="6" on="1"/>
        <pt x="282" y="273" on="1"/>
        <pt x="251" y="304" on="1"/>
        <pt x="141" y="304" on="1"/>
        <pt x="125" y="225" on="1"/>
        <pt x="125" y="37" on="1"/>
        <pt x="94" y="6" on="1"/>
        <pt x="47" y="6" on="1"/>
        <pt x="16" y="69" on="1"/>
        <pt x="16" y="116" on="1"/>
        <pt x="31" y="304" on="1"/>
        <pt x="0" y="335" on="1"/>
        <pt x="0" y="382" on="1"/>
        <pt x="31" y="414" on="0"/>
        <pt x="47" y="586" on="1"/>
        <pt x="31" y="649" on="1"/>
        <pt x="63" y="1308" on="1"/>
        <pt x="63" y="1370" on="1"/>
        <pt x="63" y="1402" on="0"/>
        <pt x="157" y="1402" on="1"/>
      </contour>
      <contour>
        <pt x="204" y="1151" on="1"/>
        <pt x="157" y="1041" on="1"/>
        <pt x="188" y="837" on="1"/>
        <pt x="157" y="429" on="1"/>
        <pt x="173" y="414" on="1"/>
        <pt x="282" y="414" on="1"/>
        <pt x="270" y="1151" on="0"/>
      </contour>
      <contour>
        <pt x="307" y="1809" on="1"/>
        <pt x="323" y="1809" on="1"/>
        <pt x="354" y="1779" on="1"/>
        <pt x="354" y="1720" on="1"/>
        <pt x="151" y="1526" on="1"/>
        <pt x="73" y="1526" on="1"/>
        <pt x="73" y="1601" on="1"/>
      </contour>
    </TTGlyph>
    <TTGlyph name="Acircumflex" xMin="0" yMin="-41" xMax="470" yMax="1778">
      <contour>
        <pt x="157" y="1449" on="1"/>
        <pt x="204" y="1449" on="1"/>
        <pt x="229" y="1449" on="0"/>
        <pt x="314" y="1166" on="1"/>
        <pt x="361" y="1166" on="1"/>
        <pt x="361" y="1135" on="1"/>
        <pt x="329" y="1104" on="1"/>
        <pt x="376" y="649" on="1"/>
        <pt x="408" y="649" on="1"/>
        <pt x="408" y="633" on="1"/>
        <pt x="423" y="445" on="1"/>
        <pt x="408" y="445" on="1"/>
        <pt x="470" y="335" on="1"/>
        <pt x="423" y="288" on="1"/>
        <pt x="423" y="163" on="1"/>
        <pt x="439" y="53" on="1"/>
        <pt x="408" y="53" on="0"/>
        <pt x="408" y="-9" on="1"/>
        <pt x="345" y="-41" on="1"/>
        <pt x="282" y="6" on="1"/>
        <pt x="282" y="273" on="1"/>
        <pt x="251" y="304" on="1"/>
        <pt x="141" y="304" on="1"/>
        <pt x="125" y="225" on="1"/>
        <pt x="125" y="37" on="1"/>
        <pt x="94" y="6" on="1"/>
        <pt x="47" y="6" on="1"/>
        <pt x="16" y="69" on="1"/>
        <pt x="16" y="116" on="1"/>
        <pt x="31" y="304" on="1"/>
        <pt x="0" y="335" on="1"/>
        <pt x="0" y="382" on="1"/>
        <pt x="31" y="414" on="0"/>
        <pt x="47" y="586" on="1"/>
        <pt x="31" y="649" on="1"/>
        <pt x="63" y="1308" on="1"/>
        <pt x="63" y="1370" on="1"/>
        <pt x="63" y="1402" on="0"/>
        <pt x="157" y="1402" on="1"/>
      </contour>
      <contour>
        <pt x="204" y="1151" on="1"/>
        <pt x="157" y="1041" on="1"/>
        <pt x="188" y="837" on="1"/>
        <pt x="157" y="429" on="1"/>
        <pt x="173" y="414" on="1"/>
        <pt x="282" y="414" on="1"/>
        <pt x="270" y="1151" on="0"/>
      </contour>
      <contour>
        <pt x="360" y="1484" on="1"/>
        <pt x="317" y="1483" on="1"/>
        <pt x="295" y="1491" on="1"/>
        <pt x="293" y="1508" on="1"/>
        <pt x="239" y="1659" on="1"/>
        <pt x="228" y="1659" on="1"/>
        <pt x="172" y="1501" on="0"/>
        <pt x="102" y="1499" on="1"/>
        <pt x="70" y="1499" on="1"/>
        <pt x="122" y="1657" on="0"/>
        <pt x="184" y="1747" on="1"/>
        <pt x="171" y="1759" on="1"/>
        <pt x="184" y="1777" on="0"/>
        <pt x="200" y="1777" on="1"/>
        <pt x="232" y="1778" on="1"/>
        <pt x="353" y="1611" on="1"/>
        <pt x="342" y="1607" on="1"/>
        <pt x="354" y="1602" on="1"/>
        <pt x="343" y="1602" on="1"/>
        <pt x="355" y="1598" on="1"/>
        <pt x="358" y="1577" on="1"/>
        <pt x="375" y="1531" on="1"/>
        <pt x="357" y="1505" on="1"/>
      </contour>
    </TTGlyph>
    <TTGlyph name="Adieresis" xMin="-3" yMin="-16" xMax="480" yMax="1749">
      <contour>
        <pt x="118" y="1749" on="1"/>
        <pt x="208" y="1749" on="1"/>
        <pt x="223" y="1704" on="1"/>
        <pt x="208" y="1628" on="1"/>
        <pt x="208" y="1492" on="1"/>
        <pt x="163" y="1447" on="1"/>
        <pt x="133" y="1447" on="1"/>
        <pt x="88" y="1492" on="1"/>
      </contour>
      <contour>
        <pt x="299" y="1719" on="1"/>
        <pt x="344" y="1719" on="1"/>
        <pt x="389" y="1709" on="0"/>
        <pt x="389" y="1598" on="1"/>
        <pt x="389" y="1417" on="1"/>
        <pt x="374" y="1417" on="1"/>
        <pt x="284" y="1417" on="0"/>
        <pt x="284" y="1538" on="1"/>
        <pt x="284" y="1643" on="1"/>
      </contour>
      <contour>
        <pt x="178" y="1417" on="1"/>
        <pt x="254" y="1417" on="1"/>
        <pt x="289" y="1417" on="0"/>
        <pt x="314" y="1175" on="1"/>
        <pt x="374" y="1155" on="0"/>
        <pt x="374" y="1040" on="1"/>
        <pt x="374" y="1024" on="1"/>
        <pt x="374" y="511" on="0"/>
        <pt x="435" y="511" on="1"/>
        <pt x="450" y="511" on="1"/>
        <pt x="450" y="496" on="1"/>
        <pt x="420" y="345" on="1"/>
        <pt x="465" y="300" on="1"/>
        <pt x="465" y="270" on="1"/>
        <pt x="480" y="13" on="1"/>
        <pt x="435" y="-16" on="1"/>
        <pt x="359" y="-16" on="1"/>
        <pt x="359" y="-1" on="1"/>
        <pt x="359" y="240" on="0"/>
        <pt x="299" y="240" on="1"/>
        <pt x="148" y="255" on="1"/>
        <pt x="118" y="255" on="1"/>
        <pt x="103" y="210" on="1"/>
        <pt x="118" y="210" on="1"/>
        <pt x="103" y="164" on="1"/>
        <pt x="118" y="74" on="1"/>
        <pt x="98" y="-1" on="0"/>
        <pt x="72" y="-1" on="1"/>
        <pt x="42" y="-1" on="1"/>
        <pt x="12" y="28" on="1"/>
        <pt x="12" y="164" on="1"/>
        <pt x="-3" y="345" on="1"/>
        <pt x="37" y="345" on="0"/>
        <pt x="72" y="602" on="1"/>
        <pt x="57" y="617" on="1"/>
        <pt x="57" y="632" on="1"/>
        <pt x="91" y="1055" on="0"/>
        <pt x="118" y="1055" on="1"/>
        <pt x="103" y="1070" on="1"/>
        <pt x="118" y="1273" on="0"/>
      </contour>
      <contour>
        <pt x="223" y="1175" on="1"/>
        <pt x="178" y="987" on="0"/>
        <pt x="118" y="345" on="1"/>
        <pt x="254" y="345" on="1"/>
        <pt x="269" y="330" on="1"/>
        <pt x="329" y="345" on="1"/>
        <pt x="254" y="979" on="1"/>
        <pt x="269" y="1040" on="1"/>
        <pt x="238" y="1175" on="1"/>
      </contour>
    </TTGlyph>
    <TTGlyph name="Agrave" xMin="0" yMin="-41" xMax="465" yMax="1809">
      <contour>
        <pt x="310" y="1402" on="1"/>
        <pt x="403" y="1402" on="0"/>
        <pt x="403" y="1370" on="1"/>
        <pt x="403" y="1308" on="1"/>
        <pt x="434" y="649" on="1"/>
        <pt x="419" y="586" on="1"/>
        <pt x="434" y="414" on="0"/>
        <pt x="465" y="382" on="1"/>
        <pt x="465" y="335" on="1"/>
        <pt x="434" y="304" on="1"/>
        <pt x="449" y="116" on="1"/>
        <pt x="449" y="69" on="1"/>
        <pt x="419" y="6" on="1"/>
        <pt x="372" y="6" on="1"/>
        <pt x="341" y="37" on="1"/>
        <pt x="341" y="225" on="1"/>
        <pt x="326" y="304" on="1"/>
        <pt x="217" y="304" on="1"/>
        <pt x="186" y="273" on="1"/>
        <pt x="186" y="6" on="1"/>
        <pt x="124" y="-41" on="1"/>
        <pt x="61" y="-9" on="1"/>
        <pt x="61" y="53" on="0"/>
        <pt x="31" y="53" on="1"/>
        <pt x="47" y="163" on="1"/>
        <pt x="47" y="288" on="1"/>
        <pt x="0" y="335" on="1"/>
        <pt x="61" y="445" on="1"/>
        <pt x="47" y="445" on="1"/>
        <pt x="61" y="633" on="1"/>
        <pt x="61" y="649" on="1"/>
        <pt x="93" y="649" on="1"/>
        <pt x="140" y="1104" on="1"/>
        <pt x="108" y="1135" on="1"/>
        <pt x="108" y="1166" on="1"/>
        <pt x="154" y="1166" on="1"/>
        <pt x="238" y="1449" on="0"/>
        <pt x="263" y="1449" on="1"/>
        <pt x="310" y="1449" on="1"/>
      </contour>
      <contour>
        <pt x="198" y="1151" on="0"/>
        <pt x="186" y="414" on="1"/>
        <pt x="294" y="414" on="1"/>
        <pt x="310" y="429" on="1"/>
        <pt x="279" y="837" on="1"/>
        <pt x="310" y="1041" on="1"/>
        <pt x="263" y="1151" on="1"/>
      </contour>
      <contour>
        <pt x="393" y="1601" on="1"/>
        <pt x="393" y="1526" on="1"/>
        <pt x="316" y="1526" on="1"/>
        <pt x="115" y="1720" on="1"/>
        <pt x="115" y="1779" on="1"/>
        <pt x="145" y="1809" on="1"/>
        <pt x="161" y="1809" on="1"/>
      </contour>
    </TTGlyph>
    <TTGlyph name="Aring" xMin="0" yMin="-26" xMax="409" yMax="1802">
      <contour>
        <pt x="278" y="1802" on="1"/>
        <pt x="409" y="1701" on="0"/>
        <pt x="409" y="1597" on="1"/>
        <pt x="345" y="1393" on="0"/>
        <pt x="249" y="1393" on="1"/>
        <pt x="263" y="1378" on="1"/>
        <pt x="263" y="1363" on="1"/>
        <pt x="336" y="383" on="1"/>
        <pt x="322" y="266" on="1"/>
        <pt x="366" y="193" on="1"/>
        <pt x="366" y="135" on="1"/>
        <pt x="351" y="-11" on="1"/>
        <pt x="278" y="-11" on="1"/>
        <pt x="278" y="18" on="1"/>
        <pt x="263" y="120" on="1"/>
        <pt x="161" y="120" on="1"/>
        <pt x="146" y="47" on="1"/>
        <pt x="161" y="47" on="1"/>
        <pt x="132" y="-26" on="1"/>
        <pt x="73" y="-26" on="1"/>
        <pt x="44" y="-26" on="0"/>
        <pt x="44" y="62" on="1"/>
        <pt x="29" y="149" on="1"/>
        <pt x="15" y="164" on="1"/>
        <pt x="0" y="164" on="1"/>
        <pt x="15" y="413" on="1"/>
        <pt x="15" y="500" on="1"/>
        <pt x="73" y="679" on="0"/>
        <pt x="117" y="1246" on="1"/>
        <pt x="132" y="1246" on="1"/>
        <pt x="117" y="1261" on="1"/>
        <pt x="117" y="1363" on="1"/>
        <pt x="132" y="1378" on="1"/>
        <pt x="132" y="1393" on="1"/>
        <pt x="15" y="1500" on="0"/>
        <pt x="15" y="1583" on="1"/>
        <pt x="29" y="1597" on="1"/>
        <pt x="15" y="1597" on="1"/>
        <pt x="63" y="1802" on="0"/>
        <pt x="132" y="1802" on="1"/>
      </contour>
      <contour>
        <pt x="117" y="1627" on="1"/>
        <pt x="117" y="1553" on="1"/>
        <pt x="205" y="1466" on="1"/>
        <pt x="219" y="1466" on="1"/>
        <pt x="292" y="1503" on="0"/>
        <pt x="292" y="1583" on="1"/>
        <pt x="292" y="1597" on="1"/>
        <pt x="292" y="1677" on="0"/>
        <pt x="219" y="1714" on="1"/>
        <pt x="205" y="1714" on="1"/>
      </contour>
      <contour>
        <pt x="190" y="1071" on="1"/>
        <pt x="102" y="619" on="0"/>
        <pt x="102" y="340" on="1"/>
        <pt x="102" y="263" on="0"/>
        <pt x="175" y="223" on="1"/>
        <pt x="190" y="223" on="1"/>
        <pt x="234" y="223" on="0"/>
        <pt x="234" y="486" on="1"/>
        <pt x="234" y="834" on="0"/>
        <pt x="190" y="1042" on="1"/>
        <pt x="205" y="1056" on="1"/>
        <pt x="205" y="1071" on="1"/>
      </contour>
    </TTGlyph>
    <TTGlyph name="Atilde" xMin="-45" yMin="-56" xMax="381" yMax="1674">
      <contour>
        <pt x="312" y="1674" on="1"/>
        <pt x="367" y="1674" on="1"/>
        <pt x="381" y="1605" on="1"/>
        <pt x="323" y="1509" on="0"/>
        <pt x="298" y="1509" on="1"/>
        <pt x="243" y="1509" on="1"/>
        <pt x="197" y="1509" on="0"/>
        <pt x="147" y="1550" on="1"/>
        <pt x="106" y="1550" on="1"/>
        <pt x="37" y="1468" on="1"/>
        <pt x="51" y="1454" on="1"/>
        <pt x="24" y="1454" on="1"/>
        <pt x="-45" y="1477" on="0"/>
        <pt x="-45" y="1523" on="1"/>
        <pt x="24" y="1647" on="1"/>
        <pt x="147" y="1647" on="1"/>
        <pt x="285" y="1605" on="1"/>
      </contour>
      <contour>
        <pt x="120" y="1399" on="1"/>
        <pt x="147" y="1399" on="1"/>
        <pt x="243" y="1317" on="0"/>
        <pt x="243" y="1221" on="1"/>
        <pt x="257" y="1221" on="1"/>
        <pt x="243" y="1097" on="1"/>
        <pt x="304" y="274" on="0"/>
        <pt x="367" y="274" on="1"/>
        <pt x="367" y="246" on="1"/>
        <pt x="367" y="219" on="0"/>
        <pt x="326" y="219" on="1"/>
        <pt x="326" y="205" on="1"/>
        <pt x="339" y="26" on="1"/>
        <pt x="326" y="-56" on="1"/>
        <pt x="298" y="-56" on="1"/>
        <pt x="277" y="-56" on="0"/>
        <pt x="230" y="40" on="1"/>
        <pt x="230" y="191" on="1"/>
        <pt x="202" y="219" on="1"/>
        <pt x="106" y="219" on="1"/>
        <pt x="65" y="219" on="0"/>
        <pt x="65" y="109" on="1"/>
        <pt x="24" y="109" on="1"/>
        <pt x="10" y="287" on="1"/>
        <pt x="65" y="658" on="1"/>
        <pt x="24" y="658" on="0"/>
        <pt x="24" y="699" on="1"/>
      </contour>
      <contour>
        <pt x="147" y="891" on="1"/>
        <pt x="147" y="878" on="1"/>
        <pt x="161" y="864" on="1"/>
        <pt x="161" y="850" on="1"/>
        <pt x="106" y="562" on="1"/>
        <pt x="106" y="315" on="1"/>
        <pt x="175" y="301" on="1"/>
        <pt x="202" y="301" on="1"/>
        <pt x="230" y="328" on="1"/>
        <pt x="202" y="548" on="1"/>
        <pt x="216" y="548" on="1"/>
        <pt x="161" y="891" on="1"/>
      </contour>
    </TTGlyph>
    <TTGlyph name="B" xMin="-45" yMin="-18" xMax="799" yMax="1487">
      <contour>
        <pt x="47" y="1487" on="1"/>
        <pt x="157" y="1395" on="1"/>
        <pt x="267" y="1414" on="1"/>
        <pt x="619" y="1414" on="0"/>
        <pt x="781" y="1102" on="1"/>
        <pt x="799" y="1028" on="1"/>
        <pt x="781" y="881" on="1"/>
        <pt x="799" y="863" on="1"/>
        <pt x="671" y="624" on="1"/>
        <pt x="549" y="514" on="0"/>
        <pt x="487" y="514" on="1"/>
        <pt x="542" y="447" on="0"/>
        <pt x="542" y="386" on="1"/>
        <pt x="542" y="276" on="1"/>
        <pt x="542" y="177" on="0"/>
        <pt x="451" y="166" on="1"/>
        <pt x="324" y="-18" on="0"/>
        <pt x="120" y="-18" on="1"/>
        <pt x="65" y="-18" on="0"/>
        <pt x="65" y="37" on="1"/>
        <pt x="47" y="55" on="1"/>
        <pt x="28" y="55" on="1"/>
        <pt x="65" y="422" on="1"/>
        <pt x="-1" y="422" on="0"/>
        <pt x="-45" y="514" on="1"/>
        <pt x="-45" y="551" on="1"/>
        <pt x="47" y="569" on="1"/>
        <pt x="-8" y="753" on="1"/>
        <pt x="28" y="1102" on="1"/>
        <pt x="-8" y="1248" on="1"/>
        <pt x="10" y="1450" on="0"/>
      </contour>
      <contour>
        <pt x="175" y="1230" on="1"/>
        <pt x="120" y="881" on="1"/>
        <pt x="175" y="643" on="1"/>
        <pt x="157" y="624" on="1"/>
        <pt x="212" y="588" on="1"/>
        <pt x="230" y="588" on="1"/>
        <pt x="616" y="648" on="0"/>
        <pt x="616" y="845" on="1"/>
        <pt x="652" y="845" on="0"/>
        <pt x="652" y="1065" on="1"/>
        <pt x="582" y="1230" on="0"/>
        <pt x="414" y="1230" on="1"/>
      </contour>
      <contour>
        <pt x="249" y="900" on="1"/>
        <pt x="322" y="900" on="1"/>
        <pt x="322" y="881" on="1"/>
        <pt x="285" y="845" on="1"/>
        <pt x="249" y="881" on="1"/>
      </contour>
      <contour>
        <pt x="194" y="202" on="1"/>
        <pt x="230" y="202" on="1"/>
        <pt x="194" y="147" on="1"/>
        <pt x="212" y="147" on="1"/>
        <pt x="212" y="173" on="0"/>
        <pt x="359" y="221" on="1"/>
        <pt x="432" y="298" on="0"/>
        <pt x="432" y="367" on="1"/>
        <pt x="377" y="404" on="1"/>
        <pt x="249" y="404" on="1"/>
        <pt x="212" y="404" on="0"/>
      </contour>
    </TTGlyph>
    <TTGlyph name="C" xMin="0" yMin="-9" xMax="503" yMax="1415">
      <contour>
        <pt x="365" y="-7" on="1"/>
        <pt x="96" y="0" on="0"/>
        <pt x="8" y="542" on="1"/>
        <pt x="25" y="541" on="1"/>
        <pt x="9" y="559" on="1"/>
        <pt x="10" y="626" on="1"/>
        <pt x="28" y="643" on="1"/>
        <pt x="11" y="660" on="1"/>
        <pt x="12" y="677" on="1"/>
        <pt x="29" y="693" on="1"/>
        <pt x="0" y="879" on="1"/>
        <pt x="175" y="1415" on="0"/>
        <pt x="436" y="1408" on="1"/>
        <pt x="503" y="1390" on="1"/>
        <pt x="501" y="1339" on="1"/>
        <pt x="487" y="1298" on="0"/>
        <pt x="312" y="1209" on="1"/>
        <pt x="172" y="997" on="0"/>
        <pt x="151" y="842" on="1"/>
        <pt x="134" y="825" on="1"/>
        <pt x="133" y="809" on="1"/>
        <pt x="164" y="706" on="1"/>
        <pt x="163" y="673" on="1"/>
        <pt x="146" y="656" on="1"/>
        <pt x="207" y="402" on="1"/>
        <pt x="188" y="318" on="1"/>
        <pt x="263" y="159" on="0"/>
        <pt x="435" y="92" on="1"/>
        <pt x="465" y="91" on="0"/>
        <pt x="467" y="7" on="1"/>
        <pt x="449" y="-9" on="1"/>
      </contour>
    </TTGlyph>
    <TTGlyph name="Ccedilla" xMin="7" yMin="-342" xMax="923" yMax="1365">
      <contour>
        <pt x="632" y="1365" on="1"/>
        <pt x="715" y="1365" on="1"/>
        <pt x="715" y="1303" on="0"/>
        <pt x="777" y="1303" on="1"/>
        <pt x="798" y="1282" on="1"/>
        <pt x="798" y="1219" on="1"/>
        <pt x="690" y="1178" on="0"/>
        <pt x="361" y="1157" on="1"/>
        <pt x="174" y="979" on="0"/>
        <pt x="174" y="782" on="1"/>
        <pt x="174" y="330" on="0"/>
        <pt x="548" y="282" on="1"/>
        <pt x="861" y="470" on="1"/>
        <pt x="923" y="470" on="1"/>
        <pt x="923" y="407" on="1"/>
        <pt x="923" y="251" on="0"/>
        <pt x="548" y="137" on="1"/>
        <pt x="548" y="116" on="1"/>
        <pt x="777" y="81" on="0"/>
        <pt x="777" y="-92" on="1"/>
        <pt x="777" y="-203" on="0"/>
        <pt x="611" y="-342" on="1"/>
        <pt x="486" y="-342" on="1"/>
        <pt x="319" y="-342" on="0"/>
        <pt x="319" y="-175" on="1"/>
        <pt x="319" y="-113" on="1"/>
        <pt x="382" y="-113" on="1"/>
        <pt x="486" y="-217" on="1"/>
        <pt x="548" y="-217" on="1"/>
        <pt x="632" y="-133" on="1"/>
        <pt x="632" y="-92" on="1"/>
        <pt x="403" y="-44" on="0"/>
        <pt x="403" y="74" on="1"/>
        <pt x="403" y="199" on="0"/>
        <pt x="174" y="262" on="1"/>
        <pt x="153" y="282" on="1"/>
        <pt x="153" y="303" on="1"/>
        <pt x="174" y="324" on="1"/>
        <pt x="88" y="324" on="0"/>
        <pt x="7" y="740" on="1"/>
        <pt x="18" y="1178" on="0"/>
        <pt x="153" y="1178" on="1"/>
        <pt x="360" y="1365" on="0"/>
      </contour>
    </TTGlyph>
    <TTGlyph name="D" xMin="0" yMin="-18" xMax="672" yMax="1464">
      <contour>
        <pt x="76" y="1464" on="1"/>
        <pt x="397" y="1357" on="1"/>
        <pt x="519" y="1220" on="1"/>
        <pt x="672" y="776" on="1"/>
        <pt x="672" y="371" on="0"/>
        <pt x="535" y="242" on="1"/>
        <pt x="245" y="-18" on="0"/>
        <pt x="92" y="-18" on="1"/>
        <pt x="0" y="-18" on="1"/>
        <pt x="0" y="13" on="1"/>
        <pt x="31" y="135" on="1"/>
        <pt x="31" y="181" on="1"/>
        <pt x="15" y="440" on="1"/>
        <pt x="31" y="440" on="1"/>
        <pt x="15" y="486" on="1"/>
        <pt x="0" y="838" on="1"/>
        <pt x="46" y="838" on="0"/>
        <pt x="46" y="1235" on="1"/>
        <pt x="46" y="1311" on="1"/>
        <pt x="15" y="1357" on="1"/>
        <pt x="15" y="1439" on="0"/>
      </contour>
      <contour>
        <pt x="153" y="1296" on="1"/>
        <pt x="138" y="1220" on="1"/>
        <pt x="157" y="1143" on="0"/>
        <pt x="183" y="1143" on="1"/>
        <pt x="138" y="776" on="1"/>
        <pt x="153" y="776" on="1"/>
        <pt x="138" y="761" on="1"/>
        <pt x="138" y="547" on="1"/>
        <pt x="122" y="456" on="1"/>
        <pt x="138" y="395" on="1"/>
        <pt x="122" y="379" on="1"/>
        <pt x="122" y="364" on="1"/>
        <pt x="138" y="303" on="1"/>
        <pt x="138" y="288" on="1"/>
        <pt x="122" y="272" on="1"/>
        <pt x="138" y="257" on="1"/>
        <pt x="138" y="135" on="1"/>
        <pt x="153" y="135" on="1"/>
        <pt x="458" y="364" on="1"/>
        <pt x="549" y="364" on="0"/>
        <pt x="565" y="700" on="1"/>
        <pt x="565" y="1026" on="0"/>
        <pt x="336" y="1220" on="1"/>
        <pt x="336" y="1270" on="0"/>
      </contour>
    </TTGlyph>
    <TTGlyph name="E" xMin="14" yMin="-18" xMax="706" yMax="1442">
      <contour>
        <pt x="129" y="1442" on="1"/>
        <pt x="302" y="1423" on="1"/>
        <pt x="398" y="1442" on="1"/>
        <pt x="552" y="1423" on="0"/>
        <pt x="552" y="1384" on="1"/>
        <pt x="552" y="1327" on="1"/>
        <pt x="329" y="1327" on="0"/>
        <pt x="187" y="1231" on="1"/>
        <pt x="206" y="1135" on="1"/>
        <pt x="206" y="1058" on="1"/>
        <pt x="245" y="1058" on="1"/>
        <pt x="245" y="1039" on="1"/>
        <pt x="225" y="789" on="1"/>
        <pt x="350" y="731" on="0"/>
        <pt x="475" y="731" on="1"/>
        <pt x="552" y="731" on="1"/>
        <pt x="590" y="693" on="1"/>
        <pt x="590" y="654" on="1"/>
        <pt x="360" y="635" on="1"/>
        <pt x="168" y="635" on="1"/>
        <pt x="129" y="597" on="1"/>
        <pt x="187" y="405" on="1"/>
        <pt x="187" y="289" on="1"/>
        <pt x="225" y="289" on="1"/>
        <pt x="206" y="193" on="1"/>
        <pt x="225" y="116" on="0"/>
        <pt x="302" y="116" on="1"/>
        <pt x="417" y="136" on="1"/>
        <pt x="417" y="116" on="1"/>
        <pt x="437" y="136" on="1"/>
        <pt x="456" y="136" on="1"/>
        <pt x="706" y="122" on="0"/>
        <pt x="706" y="78" on="1"/>
        <pt x="706" y="40" on="1"/>
        <pt x="465" y="-18" on="0"/>
        <pt x="283" y="-18" on="1"/>
        <pt x="52" y="-18" on="0"/>
        <pt x="52" y="174" on="1"/>
        <pt x="14" y="174" on="0"/>
        <pt x="14" y="251" on="1"/>
        <pt x="33" y="807" on="0"/>
        <pt x="72" y="866" on="1"/>
        <pt x="33" y="1036" on="0"/>
        <pt x="33" y="1327" on="1"/>
        <pt x="33" y="1423" on="1"/>
      </contour>
    </TTGlyph>
    <TTGlyph name="Eacute" xMin="0" yMin="-19" xMax="694" yMax="1772">
      <contour>
        <pt x="383" y="1772" on="1"/>
        <pt x="399" y="1772" on="1"/>
        <pt x="430" y="1742" on="1"/>
        <pt x="430" y="1683" on="1"/>
        <pt x="227" y="1489" on="1"/>
        <pt x="149" y="1489" on="1"/>
        <pt x="149" y="1564" on="1"/>
      </contour>
      <contour>
        <pt x="116" y="1379" on="1"/>
        <pt x="289" y="1361" on="1"/>
        <pt x="386" y="1379" on="1"/>
        <pt x="540" y="1361" on="0"/>
        <pt x="540" y="1324" on="1"/>
        <pt x="540" y="1269" on="1"/>
        <pt x="316" y="1269" on="0"/>
        <pt x="174" y="1177" on="1"/>
        <pt x="193" y="1085" on="1"/>
        <pt x="193" y="1011" on="1"/>
        <pt x="231" y="1011" on="1"/>
        <pt x="231" y="993" on="1"/>
        <pt x="212" y="754" on="1"/>
        <pt x="337" y="698" on="0"/>
        <pt x="463" y="698" on="1"/>
        <pt x="540" y="698" on="1"/>
        <pt x="578" y="662" on="1"/>
        <pt x="578" y="625" on="1"/>
        <pt x="347" y="606" on="1"/>
        <pt x="154" y="606" on="1"/>
        <pt x="116" y="570" on="1"/>
        <pt x="174" y="386" on="1"/>
        <pt x="174" y="275" on="1"/>
        <pt x="212" y="275" on="1"/>
        <pt x="193" y="183" on="1"/>
        <pt x="212" y="110" on="0"/>
        <pt x="289" y="110" on="1"/>
        <pt x="405" y="128" on="1"/>
        <pt x="405" y="110" on="1"/>
        <pt x="424" y="128" on="1"/>
        <pt x="443" y="128" on="1"/>
        <pt x="694" y="115" on="0"/>
        <pt x="694" y="73" on="1"/>
        <pt x="694" y="36" on="1"/>
        <pt x="453" y="-19" on="0"/>
        <pt x="270" y="-19" on="1"/>
        <pt x="39" y="-19" on="0"/>
        <pt x="39" y="165" on="1"/>
        <pt x="0" y="165" on="0"/>
        <pt x="0" y="239" on="1"/>
        <pt x="19" y="771" on="0"/>
        <pt x="58" y="827" on="1"/>
        <pt x="19" y="991" on="0"/>
        <pt x="19" y="1269" on="1"/>
        <pt x="19" y="1361" on="1"/>
      </contour>
    </TTGlyph>
    <TTGlyph name="Ecircumflex" xMin="0" yMin="-19" xMax="694" yMax="1763">
      <contour>
        <pt x="116" y="1379" on="1"/>
        <pt x="289" y="1361" on="1"/>
        <pt x="386" y="1379" on="1"/>
        <pt x="540" y="1361" on="0"/>
        <pt x="540" y="1324" on="1"/>
        <pt x="540" y="1269" on="1"/>
        <pt x="316" y="1269" on="0"/>
        <pt x="174" y="1177" on="1"/>
        <pt x="193" y="1085" on="1"/>
        <pt x="193" y="1011" on="1"/>
        <pt x="231" y="1011" on="1"/>
        <pt x="231" y="993" on="1"/>
        <pt x="212" y="754" on="1"/>
        <pt x="337" y="698" on="0"/>
        <pt x="463" y="698" on="1"/>
        <pt x="540" y="698" on="1"/>
        <pt x="578" y="662" on="1"/>
        <pt x="578" y="625" on="1"/>
        <pt x="347" y="606" on="1"/>
        <pt x="154" y="606" on="1"/>
        <pt x="116" y="570" on="1"/>
        <pt x="174" y="386" on="1"/>
        <pt x="174" y="275" on="1"/>
        <pt x="212" y="275" on="1"/>
        <pt x="193" y="183" on="1"/>
        <pt x="212" y="110" on="0"/>
        <pt x="289" y="110" on="1"/>
        <pt x="405" y="128" on="1"/>
        <pt x="405" y="110" on="1"/>
        <pt x="424" y="128" on="1"/>
        <pt x="443" y="128" on="1"/>
        <pt x="694" y="115" on="0"/>
        <pt x="694" y="73" on="1"/>
        <pt x="694" y="36" on="1"/>
        <pt x="453" y="-19" on="0"/>
        <pt x="270" y="-19" on="1"/>
        <pt x="39" y="-19" on="0"/>
        <pt x="39" y="165" on="1"/>
        <pt x="0" y="165" on="0"/>
        <pt x="0" y="239" on="1"/>
        <pt x="19" y="771" on="0"/>
        <pt x="58" y="827" on="1"/>
        <pt x="19" y="991" on="0"/>
        <pt x="19" y="1269" on="1"/>
        <pt x="19" y="1361" on="1"/>
      </contour>
      <contour>
        <pt x="446" y="1439" on="1"/>
        <pt x="394" y="1438" on="1"/>
        <pt x="367" y="1447" on="1"/>
        <pt x="364" y="1466" on="1"/>
        <pt x="298" y="1632" on="1"/>
        <pt x="285" y="1632" on="1"/>
        <pt x="217" y="1458" on="0"/>
        <pt x="131" y="1456" on="1"/>
        <pt x="92" y="1455" on="1"/>
        <pt x="155" y="1630" on="0"/>
        <pt x="230" y="1729" on="1"/>
        <pt x="215" y="1742" on="1"/>
        <pt x="231" y="1762" on="0"/>
        <pt x="251" y="1762" on="1"/>
        <pt x="290" y="1763" on="1"/>
        <pt x="437" y="1579" on="1"/>
        <pt x="424" y="1574" on="1"/>
        <pt x="438" y="1570" on="1"/>
        <pt x="425" y="1569" on="1"/>
        <pt x="439" y="1565" on="1"/>
        <pt x="443" y="1542" on="1"/>
        <pt x="464" y="1491" on="1"/>
        <pt x="442" y="1462" on="1"/>
      </contour>
    </TTGlyph>
    <TTGlyph name="Edieresis" xMin="0" yMin="-19" xMax="694" yMax="1786">
      <contour>
        <pt x="116" y="1379" on="1"/>
        <pt x="289" y="1361" on="1"/>
        <pt x="386" y="1379" on="1"/>
        <pt x="540" y="1361" on="0"/>
        <pt x="540" y="1324" on="1"/>
        <pt x="540" y="1269" on="1"/>
        <pt x="316" y="1269" on="0"/>
        <pt x="174" y="1177" on="1"/>
        <pt x="193" y="1085" on="1"/>
        <pt x="193" y="1011" on="1"/>
        <pt x="231" y="1011" on="1"/>
        <pt x="231" y="993" on="1"/>
        <pt x="212" y="754" on="1"/>
        <pt x="337" y="698" on="0"/>
        <pt x="463" y="698" on="1"/>
        <pt x="540" y="698" on="1"/>
        <pt x="578" y="662" on="1"/>
        <pt x="578" y="625" on="1"/>
        <pt x="347" y="606" on="1"/>
        <pt x="154" y="606" on="1"/>
        <pt x="116" y="570" on="1"/>
        <pt x="174" y="386" on="1"/>
        <pt x="174" y="275" on="1"/>
        <pt x="212" y="275" on="1"/>
        <pt x="193" y="183" on="1"/>
        <pt x="212" y="110" on="0"/>
        <pt x="289" y="110" on="1"/>
        <pt x="405" y="128" on="1"/>
        <pt x="405" y="110" on="1"/>
        <pt x="424" y="128" on="1"/>
        <pt x="443" y="128" on="1"/>
        <pt x="694" y="115" on="0"/>
        <pt x="694" y="73" on="1"/>
        <pt x="694" y="36" on="1"/>
        <pt x="453" y="-19" on="0"/>
        <pt x="270" y="-19" on="1"/>
        <pt x="39" y="-19" on="0"/>
        <pt x="39" y="165" on="1"/>
        <pt x="0" y="165" on="0"/>
        <pt x="0" y="239" on="1"/>
        <pt x="19" y="771" on="0"/>
        <pt x="58" y="827" on="1"/>
        <pt x="19" y="991" on="0"/>
        <pt x="19" y="1269" on="1"/>
        <pt x="19" y="1361" on="1"/>
      </contour>
      <contour>
        <pt x="163" y="1786" on="1"/>
        <pt x="253" y="1786" on="1"/>
        <pt x="268" y="1741" on="1"/>
        <pt x="253" y="1665" on="1"/>
        <pt x="253" y="1529" on="1"/>
        <pt x="208" y="1484" on="1"/>
        <pt x="178" y="1484" on="1"/>
        <pt x="133" y="1529" on="1"/>
      </contour>
      <contour>
        <pt x="344" y="1756" on="1"/>
        <pt x="389" y="1756" on="1"/>
        <pt x="434" y="1746" on="0"/>
        <pt x="434" y="1635" on="1"/>
        <pt x="434" y="1454" on="1"/>
        <pt x="419" y="1454" on="1"/>
        <pt x="329" y="1454" on="0"/>
        <pt x="329" y="1575" on="1"/>
        <pt x="329" y="1680" on="1"/>
      </contour>
    </TTGlyph>
    <TTGlyph name="Egrave" xMin="0" yMin="-19" xMax="694" yMax="1733">
      <contour>
        <pt x="395" y="1523" on="1"/>
        <pt x="397" y="1507" on="1"/>
        <pt x="371" y="1473" on="1"/>
        <pt x="312" y="1467" on="1"/>
        <pt x="97" y="1647" on="1"/>
        <pt x="88" y="1725" on="1"/>
        <pt x="163" y="1733" on="1"/>
      </contour>
      <contour>
        <pt x="116" y="1379" on="1"/>
        <pt x="289" y="1361" on="1"/>
        <pt x="386" y="1379" on="1"/>
        <pt x="540" y="1361" on="0"/>
        <pt x="540" y="1324" on="1"/>
        <pt x="540" y="1269" on="1"/>
        <pt x="316" y="1269" on="0"/>
        <pt x="174" y="1177" on="1"/>
        <pt x="193" y="1085" on="1"/>
        <pt x="193" y="1011" on="1"/>
        <pt x="231" y="1011" on="1"/>
        <pt x="231" y="993" on="1"/>
        <pt x="212" y="754" on="1"/>
        <pt x="337" y="698" on="0"/>
        <pt x="463" y="698" on="1"/>
        <pt x="540" y="698" on="1"/>
        <pt x="578" y="662" on="1"/>
        <pt x="578" y="625" on="1"/>
        <pt x="347" y="606" on="1"/>
        <pt x="154" y="606" on="1"/>
        <pt x="116" y="570" on="1"/>
        <pt x="174" y="386" on="1"/>
        <pt x="174" y="275" on="1"/>
        <pt x="212" y="275" on="1"/>
        <pt x="193" y="183" on="1"/>
        <pt x="212" y="110" on="0"/>
        <pt x="289" y="110" on="1"/>
        <pt x="405" y="128" on="1"/>
        <pt x="405" y="110" on="1"/>
        <pt x="424" y="128" on="1"/>
        <pt x="443" y="128" on="1"/>
        <pt x="694" y="115" on="0"/>
        <pt x="694" y="73" on="1"/>
        <pt x="694" y="36" on="1"/>
        <pt x="453" y="-19" on="0"/>
        <pt x="270" y="-19" on="1"/>
        <pt x="39" y="-19" on="0"/>
        <pt x="39" y="165" on="1"/>
        <pt x="0" y="165" on="0"/>
        <pt x="0" y="239" on="1"/>
        <pt x="19" y="771" on="0"/>
        <pt x="58" y="827" on="1"/>
        <pt x="19" y="991" on="0"/>
        <pt x="19" y="1269" on="1"/>
        <pt x="19" y="1361" on="1"/>
      </contour>
    </TTGlyph>
    <TTGlyph name="Euro" xMin="-209" yMin="5" xMax="969" yMax="1419">
      <contour>
        <pt x="443" y="1419" on="1"/>
        <pt x="504" y="1379" on="1"/>
        <pt x="583" y="1419" on="0"/>
        <pt x="726" y="1419" on="1"/>
        <pt x="908" y="1419" on="1"/>
        <pt x="908" y="1338" on="1"/>
        <pt x="342" y="1224" on="0"/>
        <pt x="342" y="1056" on="1"/>
        <pt x="241" y="997" on="0"/>
        <pt x="161" y="631" on="1"/>
        <pt x="231" y="339" on="0"/>
        <pt x="322" y="328" on="1"/>
        <pt x="431" y="187" on="0"/>
        <pt x="544" y="167" on="1"/>
        <pt x="645" y="187" on="1"/>
        <pt x="969" y="126" on="1"/>
        <pt x="969" y="86" on="1"/>
        <pt x="847" y="5" on="1"/>
        <pt x="625" y="5" on="1"/>
        <pt x="-1" y="106" on="0"/>
        <pt x="-1" y="510" on="1"/>
        <pt x="-1" y="530" on="1"/>
        <pt x="19" y="551" on="1"/>
        <pt x="-1" y="571" on="1"/>
        <pt x="54" y="1076" on="0"/>
        <pt x="140" y="1076" on="1"/>
        <pt x="230" y="1232" on="0"/>
      </contour>
      <contour>
        <pt x="954" y="538" on="1"/>
        <pt x="-169" y="538" on="0"/>
        <pt x="-169" y="603" on="1"/>
        <pt x="-168" y="619" on="1"/>
        <pt x="-101" y="684" on="0"/>
        <pt x="30" y="682" on="1"/>
        <pt x="31" y="698" on="1"/>
        <pt x="-35" y="698" on="0"/>
        <pt x="-34" y="748" on="1"/>
        <pt x="-143" y="750" on="1"/>
        <pt x="-209" y="783" on="1"/>
        <pt x="-208" y="833" on="1"/>
        <pt x="297" y="841" on="1"/>
        <pt x="926" y="833" on="0"/>
        <pt x="925" y="785" on="1"/>
        <pt x="954" y="761" on="1"/>
        <pt x="953" y="693" on="0"/>
        <pt x="628" y="721" on="1"/>
        <pt x="197" y="712" on="1"/>
        <pt x="97" y="697" on="1"/>
        <pt x="96" y="681" on="1"/>
        <pt x="627" y="642" on="1"/>
        <pt x="659" y="657" on="1"/>
        <pt x="693" y="657" on="1"/>
        <pt x="955" y="623" on="0"/>
        <pt x="954" y="587" on="1"/>
      </contour>
    </TTGlyph>
    <TTGlyph name="F" xMin="0" yMin="-370" xMax="580" yMax="1539">
      <contour>
        <pt x="119" y="1539" on="1"/>
        <pt x="153" y="1505" on="1"/>
        <pt x="153" y="1454" on="1"/>
        <pt x="136" y="1437" on="1"/>
        <pt x="136" y="1420" on="1"/>
        <pt x="205" y="1386" on="1"/>
        <pt x="409" y="1437" on="1"/>
        <pt x="426" y="1437" on="1"/>
        <pt x="426" y="1386" on="0"/>
        <pt x="528" y="1386" on="1"/>
        <pt x="528" y="1317" on="1"/>
        <pt x="477" y="1300" on="1"/>
        <pt x="460" y="1317" on="1"/>
        <pt x="290" y="1266" on="1"/>
        <pt x="187" y="1283" on="1"/>
        <pt x="187" y="1249" on="1"/>
        <pt x="170" y="925" on="1"/>
        <pt x="187" y="721" on="0"/>
        <pt x="239" y="721" on="1"/>
        <pt x="358" y="721" on="1"/>
        <pt x="580" y="721" on="0"/>
        <pt x="580" y="670" on="1"/>
        <pt x="580" y="653" on="1"/>
        <pt x="569" y="602" on="0"/>
        <pt x="443" y="602" on="1"/>
        <pt x="324" y="602" on="1"/>
        <pt x="307" y="619" on="1"/>
        <pt x="205" y="602" on="1"/>
        <pt x="205" y="397" on="1"/>
        <pt x="222" y="39" on="1"/>
        <pt x="196" y="-29" on="0"/>
        <pt x="170" y="-29" on="1"/>
        <pt x="68" y="78" on="0"/>
        <pt x="68" y="158" on="1"/>
        <pt x="68" y="210" on="1"/>
        <pt x="68" y="597" on="0"/>
        <pt x="0" y="653" on="1"/>
        <pt x="0" y="721" on="1"/>
        <pt x="34" y="721" on="1"/>
        <pt x="34" y="1130" on="1"/>
        <pt x="51" y="1283" on="1"/>
        <pt x="34" y="1403" on="1"/>
        <pt x="68" y="1403" on="0"/>
        <pt x="85" y="1539" on="1"/>
      </contour>
      <contour>
        <pt x="307" y="-335" on="1"/>
        <pt x="358" y="-335" on="1"/>
        <pt x="358" y="-370" on="1"/>
        <pt x="307" y="-370" on="1"/>
      </contour>
    </TTGlyph>
    <TTGlyph name="G" xMin="0" yMin="-76" xMax="827" yMax="1397">
      <contour>
        <pt x="463" y="1397" on="1"/>
        <pt x="629" y="1397" on="1"/>
        <pt x="629" y="1330" on="1"/>
        <pt x="513" y="1330" on="1"/>
        <pt x="298" y="1248" on="1"/>
        <pt x="314" y="1231" on="1"/>
        <pt x="314" y="1182" on="1"/>
        <pt x="206" y="1092" on="0"/>
        <pt x="116" y="784" on="1"/>
        <pt x="116" y="513" on="0"/>
        <pt x="381" y="205" on="1"/>
        <pt x="645" y="106" on="1"/>
        <pt x="645" y="123" on="1"/>
        <pt x="695" y="271" on="1"/>
        <pt x="645" y="569" on="1"/>
        <pt x="645" y="636" on="1"/>
        <pt x="678" y="768" on="1"/>
        <pt x="678" y="784" on="1"/>
        <pt x="463" y="784" on="1"/>
        <pt x="381" y="801" on="1"/>
        <pt x="381" y="867" on="1"/>
        <pt x="496" y="884" on="1"/>
        <pt x="645" y="884" on="1"/>
        <pt x="662" y="900" on="1"/>
        <pt x="678" y="900" on="1"/>
        <pt x="695" y="884" on="1"/>
        <pt x="695" y="900" on="1"/>
        <pt x="774" y="900" on="0"/>
        <pt x="794" y="784" on="1"/>
        <pt x="766" y="750" on="0"/>
        <pt x="745" y="520" on="1"/>
        <pt x="778" y="455" on="0"/>
        <pt x="778" y="338" on="1"/>
        <pt x="778" y="73" on="1"/>
        <pt x="827" y="73" on="1"/>
        <pt x="827" y="40" on="1"/>
        <pt x="712" y="-76" on="1"/>
        <pt x="541" y="-76" on="0"/>
        <pt x="248" y="123" on="1"/>
        <pt x="33" y="445" on="0"/>
        <pt x="33" y="619" on="1"/>
        <pt x="0" y="834" on="1"/>
        <pt x="0" y="966" on="0"/>
        <pt x="199" y="1330" on="1"/>
        <pt x="259" y="1397" on="0"/>
      </contour>
    </TTGlyph>
    <TTGlyph name="H" xMin="-6" yMin="-161" xMax="638" yMax="1459">
      <contour>
        <pt x="14" y="1459" on="1"/>
        <pt x="72" y="1459" on="1"/>
        <pt x="72" y="1385" on="0"/>
        <pt x="170" y="1322" on="1"/>
        <pt x="189" y="1205" on="1"/>
        <pt x="150" y="1147" on="1"/>
        <pt x="150" y="1108" on="1"/>
        <pt x="189" y="1069" on="1"/>
        <pt x="170" y="1049" on="1"/>
        <pt x="170" y="1030" on="1"/>
        <pt x="189" y="913" on="1"/>
        <pt x="150" y="913" on="1"/>
        <pt x="150" y="795" on="1"/>
        <pt x="150" y="678" on="0"/>
        <pt x="228" y="678" on="1"/>
        <pt x="462" y="717" on="1"/>
        <pt x="462" y="776" on="1"/>
        <pt x="443" y="1303" on="1"/>
        <pt x="462" y="1322" on="1"/>
        <pt x="521" y="1322" on="1"/>
        <pt x="590" y="1322" on="0"/>
        <pt x="638" y="854" on="1"/>
        <pt x="580" y="717" on="1"/>
        <pt x="599" y="639" on="1"/>
        <pt x="580" y="561" on="1"/>
        <pt x="599" y="307" on="0"/>
        <pt x="638" y="307" on="1"/>
        <pt x="619" y="288" on="1"/>
        <pt x="619" y="268" on="1"/>
        <pt x="638" y="132" on="1"/>
        <pt x="599" y="132" on="0"/>
        <pt x="599" y="54" on="1"/>
        <pt x="541" y="54" on="1"/>
        <pt x="501" y="391" on="0"/>
        <pt x="423" y="561" on="1"/>
        <pt x="228" y="561" on="1"/>
        <pt x="209" y="542" on="1"/>
        <pt x="189" y="542" on="1"/>
        <pt x="209" y="522" on="1"/>
        <pt x="209" y="483" on="1"/>
        <pt x="170" y="483" on="1"/>
        <pt x="170" y="425" on="1"/>
        <pt x="150" y="54" on="1"/>
        <pt x="170" y="-4" on="1"/>
        <pt x="150" y="-63" on="1"/>
        <pt x="170" y="-141" on="1"/>
        <pt x="150" y="-161" on="1"/>
        <pt x="72" y="-161" on="1"/>
        <pt x="14" y="-102" on="1"/>
        <pt x="33" y="-82" on="1"/>
        <pt x="-6" y="73" on="1"/>
        <pt x="33" y="151" on="1"/>
        <pt x="14" y="171" on="1"/>
        <pt x="14" y="190" on="1"/>
        <pt x="33" y="210" on="1"/>
        <pt x="14" y="229" on="1"/>
        <pt x="14" y="249" on="1"/>
        <pt x="33" y="464" on="1"/>
        <pt x="14" y="483" on="1"/>
        <pt x="33" y="503" on="1"/>
        <pt x="14" y="522" on="1"/>
        <pt x="33" y="522" on="1"/>
        <pt x="14" y="542" on="1"/>
        <pt x="14" y="561" on="1"/>
        <pt x="-6" y="1049" on="1"/>
      </contour>
    </TTGlyph>
    <TTGlyph name="I" xMin="0" yMin="-18" xMax="169" yMax="1397">
      <contour>
        <pt x="15" y="1397" on="1"/>
        <pt x="62" y="1397" on="1"/>
        <pt x="62" y="1366" on="1"/>
        <pt x="77" y="1366" on="1"/>
        <pt x="77" y="1397" on="1"/>
        <pt x="154" y="1397" on="1"/>
        <pt x="138" y="828" on="1"/>
        <pt x="138" y="582" on="1"/>
        <pt x="169" y="290" on="1"/>
        <pt x="169" y="59" on="1"/>
        <pt x="108" y="59" on="0"/>
        <pt x="108" y="28" on="1"/>
        <pt x="108" y="-18" on="1"/>
        <pt x="46" y="-18" on="1"/>
        <pt x="31" y="151" on="1"/>
        <pt x="46" y="243" on="1"/>
        <pt x="0" y="443" on="1"/>
        <pt x="15" y="505" on="1"/>
        <pt x="0" y="566" on="1"/>
        <pt x="15" y="936" on="1"/>
      </contour>
    </TTGlyph>
    <TTGlyph name="Iacute" xMin="-37" yMin="17" xMax="241" yMax="1764">
      <contour>
        <pt x="163" y="1405" on="1"/>
        <pt x="182" y="1405" on="1"/>
        <pt x="202" y="1387" on="1"/>
        <pt x="221" y="1387" on="1"/>
        <pt x="202" y="1120" on="1"/>
        <pt x="202" y="426" on="1"/>
        <pt x="221" y="34" on="1"/>
        <pt x="106" y="17" on="1"/>
        <pt x="49" y="82" on="0"/>
        <pt x="49" y="141" on="1"/>
        <pt x="49" y="337" on="1"/>
        <pt x="67" y="355" on="1"/>
        <pt x="49" y="408" on="1"/>
        <pt x="29" y="1067" on="1"/>
        <pt x="67" y="1174" on="1"/>
        <pt x="67" y="1209" on="1"/>
        <pt x="49" y="1280" on="1"/>
        <pt x="87" y="1377" on="0"/>
      </contour>
      <contour>
        <pt x="196" y="1764" on="1"/>
        <pt x="241" y="1739" on="1"/>
        <pt x="115" y="1524" on="1"/>
        <pt x="-7" y="1450" on="1"/>
        <pt x="-37" y="1466" on="1"/>
        <pt x="-35" y="1536" on="1"/>
        <pt x="43" y="1671" on="0"/>
      </contour>
    </TTGlyph>
    <TTGlyph name="Icircumflex" xMin="-45" yMin="17" xMax="327" yMax="1778">
      <contour>
        <pt x="185" y="1405" on="1"/>
        <pt x="204" y="1405" on="1"/>
        <pt x="224" y="1387" on="1"/>
        <pt x="243" y="1387" on="1"/>
        <pt x="224" y="1120" on="1"/>
        <pt x="224" y="426" on="1"/>
        <pt x="243" y="34" on="1"/>
        <pt x="128" y="17" on="1"/>
        <pt x="71" y="82" on="0"/>
        <pt x="71" y="141" on="1"/>
        <pt x="71" y="337" on="1"/>
        <pt x="89" y="355" on="1"/>
        <pt x="71" y="408" on="1"/>
        <pt x="51" y="1067" on="1"/>
        <pt x="89" y="1174" on="1"/>
        <pt x="89" y="1209" on="1"/>
        <pt x="71" y="1280" on="1"/>
        <pt x="109" y="1377" on="0"/>
      </contour>
      <contour>
        <pt x="309" y="1454" on="1"/>
        <pt x="257" y="1453" on="1"/>
        <pt x="230" y="1462" on="1"/>
        <pt x="227" y="1481" on="1"/>
        <pt x="161" y="1647" on="1"/>
        <pt x="148" y="1647" on="1"/>
        <pt x="80" y="1473" on="0"/>
        <pt x="-6" y="1471" on="1"/>
        <pt x="-45" y="1470" on="1"/>
        <pt x="18" y="1645" on="0"/>
        <pt x="94" y="1744" on="1"/>
        <pt x="78" y="1757" on="1"/>
        <pt x="94" y="1777" on="0"/>
        <pt x="114" y="1777" on="1"/>
        <pt x="153" y="1778" on="1"/>
        <pt x="300" y="1594" on="1"/>
        <pt x="287" y="1589" on="1"/>
        <pt x="301" y="1585" on="1"/>
        <pt x="288" y="1584" on="1"/>
        <pt x="302" y="1580" on="1"/>
        <pt x="306" y="1557" on="1"/>
        <pt x="327" y="1506" on="1"/>
        <pt x="305" y="1477" on="1"/>
      </contour>
    </TTGlyph>
    <TTGlyph name="Idieresis" xMin="0" yMin="17" xMax="301" yMax="1749">
      <contour>
        <pt x="173" y="1405" on="1"/>
        <pt x="192" y="1405" on="1"/>
        <pt x="212" y="1387" on="1"/>
        <pt x="231" y="1387" on="1"/>
        <pt x="212" y="1120" on="1"/>
        <pt x="212" y="426" on="1"/>
        <pt x="231" y="34" on="1"/>
        <pt x="116" y="17" on="1"/>
        <pt x="59" y="82" on="0"/>
        <pt x="59" y="141" on="1"/>
        <pt x="59" y="337" on="1"/>
        <pt x="77" y="355" on="1"/>
        <pt x="59" y="408" on="1"/>
        <pt x="39" y="1067" on="1"/>
        <pt x="77" y="1174" on="1"/>
        <pt x="77" y="1209" on="1"/>
        <pt x="59" y="1280" on="1"/>
        <pt x="97" y="1377" on="0"/>
      </contour>
      <contour>
        <pt x="30" y="1749" on="1"/>
        <pt x="120" y="1749" on="1"/>
        <pt x="135" y="1704" on="1"/>
        <pt x="120" y="1628" on="1"/>
        <pt x="120" y="1492" on="1"/>
        <pt x="75" y="1447" on="1"/>
        <pt x="45" y="1447" on="1"/>
        <pt x="0" y="1492" on="1"/>
      </contour>
      <contour>
        <pt x="211" y="1719" on="1"/>
        <pt x="256" y="1719" on="1"/>
        <pt x="301" y="1709" on="0"/>
        <pt x="301" y="1598" on="1"/>
        <pt x="301" y="1417" on="1"/>
        <pt x="286" y="1417" on="1"/>
        <pt x="196" y="1417" on="0"/>
        <pt x="196" y="1538" on="1"/>
        <pt x="196" y="1643" on="1"/>
      </contour>
    </TTGlyph>
    <TTGlyph name="Igrave" xMin="-37" yMin="17" xMax="240" yMax="1767">
      <contour>
        <pt x="162" y="1405" on="1"/>
        <pt x="181" y="1405" on="1"/>
        <pt x="201" y="1387" on="1"/>
        <pt x="220" y="1387" on="1"/>
        <pt x="201" y="1120" on="1"/>
        <pt x="201" y="426" on="1"/>
        <pt x="220" y="34" on="1"/>
        <pt x="105" y="17" on="1"/>
        <pt x="48" y="82" on="0"/>
        <pt x="48" y="141" on="1"/>
        <pt x="48" y="337" on="1"/>
        <pt x="66" y="355" on="1"/>
        <pt x="48" y="408" on="1"/>
        <pt x="28" y="1067" on="1"/>
        <pt x="66" y="1174" on="1"/>
        <pt x="66" y="1209" on="1"/>
        <pt x="48" y="1280" on="1"/>
        <pt x="86" y="1377" on="0"/>
      </contour>
      <contour>
        <pt x="240" y="1489" on="1"/>
        <pt x="209" y="1448" on="1"/>
        <pt x="16" y="1608" on="1"/>
        <pt x="-37" y="1740" on="1"/>
        <pt x="-15" y="1767" on="1"/>
        <pt x="53" y="1754" on="1"/>
        <pt x="173" y="1655" on="0"/>
      </contour>
    </TTGlyph>
    <TTGlyph name="J" xMin="-67" yMin="-131" xMax="351" yMax="1420">
      <contour>
        <pt x="229" y="1420" on="1"/>
        <pt x="334" y="1348" on="0"/>
        <pt x="334" y="1211" on="1"/>
        <pt x="334" y="932" on="1"/>
        <pt x="316" y="915" on="1"/>
        <pt x="334" y="897" on="1"/>
        <pt x="334" y="862" on="1"/>
        <pt x="351" y="305" on="1"/>
        <pt x="316" y="305" on="0"/>
        <pt x="316" y="165" on="1"/>
        <pt x="157" y="-131" on="0"/>
        <pt x="-15" y="-131" on="1"/>
        <pt x="-67" y="-113" on="1"/>
        <pt x="-67" y="-9" on="1"/>
        <pt x="-67" y="26" on="0"/>
        <pt x="55" y="26" on="1"/>
        <pt x="212" y="183" on="0"/>
        <pt x="212" y="409" on="1"/>
        <pt x="212" y="549" on="1"/>
        <pt x="229" y="566" on="1"/>
        <pt x="198" y="566" on="0"/>
        <pt x="177" y="1403" on="1"/>
        <pt x="194" y="1420" on="1"/>
      </contour>
    </TTGlyph>
    <TTGlyph name="K" xMin="0" yMin="-43" xMax="464" yMax="1448">
      <contour>
        <pt x="78" y="-42" on="1"/>
        <pt x="18" y="-40" on="1"/>
        <pt x="0" y="41" on="1"/>
        <pt x="29" y="362" on="1"/>
        <pt x="12" y="443" on="1"/>
        <pt x="32" y="462" on="1"/>
        <pt x="0" y="745" on="1"/>
        <pt x="28" y="1006" on="1"/>
        <pt x="15" y="1268" on="1"/>
        <pt x="41" y="1448" on="1"/>
        <pt x="81" y="1447" on="1"/>
        <pt x="180" y="1388" on="0"/>
        <pt x="177" y="1283" on="1"/>
        <pt x="153" y="1163" on="1"/>
        <pt x="170" y="1042" on="1"/>
        <pt x="190" y="1042" on="1"/>
        <pt x="289" y="1249" on="0"/>
        <pt x="400" y="1357" on="1"/>
        <pt x="441" y="1356" on="1"/>
        <pt x="439" y="1296" on="1"/>
        <pt x="437" y="1222" on="0"/>
        <pt x="184" y="840" on="1"/>
        <pt x="464" y="68" on="1"/>
        <pt x="462" y="27" on="1"/>
        <pt x="382" y="30" on="1"/>
        <pt x="154" y="499" on="1"/>
        <pt x="134" y="500" on="1"/>
        <pt x="133" y="480" on="1"/>
        <pt x="143" y="117" on="1"/>
        <pt x="126" y="-43" on="0"/>
      </contour>
    </TTGlyph>
    <TTGlyph name="L" xMin="-6" yMin="9" xMax="500" yMax="1420">
      <contour>
        <pt x="84" y="1420" on="1"/>
        <pt x="157" y="1420" on="1"/>
        <pt x="157" y="1384" on="1"/>
        <pt x="175" y="1384" on="1"/>
        <pt x="157" y="1167" on="1"/>
        <pt x="157" y="1113" on="1"/>
        <pt x="175" y="841" on="1"/>
        <pt x="139" y="498" on="1"/>
        <pt x="139" y="461" on="1"/>
        <pt x="139" y="291" on="0"/>
        <pt x="211" y="154" on="1"/>
        <pt x="392" y="208" on="1"/>
        <pt x="464" y="208" on="1"/>
        <pt x="500" y="172" on="1"/>
        <pt x="500" y="154" on="1"/>
        <pt x="500" y="100" on="0"/>
        <pt x="247" y="27" on="1"/>
        <pt x="247" y="46" on="1"/>
        <pt x="139" y="9" on="1"/>
        <pt x="84" y="9" on="1"/>
        <pt x="48" y="46" on="1"/>
        <pt x="48" y="64" on="1"/>
        <pt x="66" y="208" on="1"/>
        <pt x="30" y="263" on="0"/>
        <pt x="-6" y="498" on="1"/>
        <pt x="-6" y="516" on="1"/>
        <pt x="-1" y="618" on="0"/>
        <pt x="48" y="715" on="1"/>
        <pt x="30" y="733" on="1"/>
        <pt x="30" y="1149" on="1"/>
      </contour>
    </TTGlyph>
    <TTGlyph name="M" xMin="1" yMin="-108" xMax="780" yMax="1434">
      <contour>
        <pt x="110" y="1434" on="1"/>
        <pt x="157" y="1434" on="1"/>
        <pt x="219" y="1372" on="1"/>
        <pt x="204" y="1310" on="1"/>
        <pt x="224" y="1201" on="0"/>
        <pt x="250" y="1201" on="1"/>
        <pt x="235" y="1185" on="1"/>
        <pt x="359" y="653" on="0"/>
        <pt x="359" y="453" on="1"/>
        <pt x="406" y="453" on="0"/>
        <pt x="453" y="780" on="1"/>
        <pt x="500" y="905" on="1"/>
        <pt x="484" y="905" on="1"/>
        <pt x="609" y="1372" on="0"/>
        <pt x="671" y="1372" on="1"/>
        <pt x="718" y="1372" on="0"/>
        <pt x="718" y="1419" on="1"/>
        <pt x="749" y="1419" on="1"/>
        <pt x="780" y="1388" on="1"/>
        <pt x="749" y="780" on="1"/>
        <pt x="780" y="749" on="1"/>
        <pt x="780" y="733" on="1"/>
        <pt x="718" y="-76" on="1"/>
        <pt x="718" y="-108" on="1"/>
        <pt x="671" y="-108" on="1"/>
        <pt x="671" y="-30" on="0"/>
        <pt x="624" y="-30" on="1"/>
        <pt x="624" y="17" on="1"/>
        <pt x="609" y="141" on="1"/>
        <pt x="624" y="313" on="1"/>
        <pt x="640" y="983" on="1"/>
        <pt x="640" y="998" on="1"/>
        <pt x="624" y="998" on="1"/>
        <pt x="546" y="593" on="1"/>
        <pt x="512" y="542" on="0"/>
        <pt x="468" y="297" on="1"/>
        <pt x="443" y="297" on="0"/>
        <pt x="422" y="188" on="1"/>
        <pt x="453" y="63" on="1"/>
        <pt x="422" y="1" on="1"/>
        <pt x="347" y="1" on="0"/>
        <pt x="313" y="79" on="1"/>
        <pt x="313" y="219" on="1"/>
        <pt x="297" y="235" on="1"/>
        <pt x="297" y="250" on="1"/>
        <pt x="313" y="250" on="1"/>
        <pt x="204" y="733" on="1"/>
        <pt x="188" y="733" on="1"/>
        <pt x="126" y="250" on="1"/>
        <pt x="141" y="172" on="1"/>
        <pt x="126" y="110" on="1"/>
        <pt x="141" y="-14" on="1"/>
        <pt x="79" y="-61" on="1"/>
        <pt x="32" y="-30" on="1"/>
        <pt x="1" y="375" on="1"/>
        <pt x="11" y="671" on="0"/>
        <pt x="48" y="671" on="1"/>
        <pt x="32" y="687" on="1"/>
        <pt x="32" y="780" on="1"/>
        <pt x="48" y="905" on="1"/>
        <pt x="32" y="1029" on="1"/>
        <pt x="32" y="1061" on="1"/>
        <pt x="32" y="1175" on="0"/>
        <pt x="79" y="1185" on="1"/>
        <pt x="63" y="1341" on="1"/>
        <pt x="63" y="1388" on="1"/>
      </contour>
    </TTGlyph>
    <TTGlyph name="N" xMin="-30" yMin="-101" xMax="1160" yMax="1426">
      <contour>
        <pt x="1021" y="1426" on="1"/>
        <pt x="1101" y="1426" on="1"/>
        <pt x="1146" y="1426" on="0"/>
        <pt x="1160" y="1149" on="1"/>
        <pt x="1121" y="1030" on="1"/>
        <pt x="1140" y="1010" on="1"/>
        <pt x="1140" y="990" on="1"/>
        <pt x="1121" y="990" on="1"/>
        <pt x="1140" y="970" on="1"/>
        <pt x="1140" y="335" on="1"/>
        <pt x="1160" y="157" on="1"/>
        <pt x="1140" y="18" on="1"/>
        <pt x="1140" y="-21" on="1"/>
        <pt x="1041" y="-41" on="1"/>
        <pt x="863" y="177" on="1"/>
        <pt x="803" y="157" on="1"/>
        <pt x="737" y="157" on="0"/>
        <pt x="585" y="494" on="1"/>
        <pt x="466" y="633" on="1"/>
        <pt x="377" y="633" on="0"/>
        <pt x="188" y="990" on="1"/>
        <pt x="168" y="990" on="1"/>
        <pt x="188" y="911" on="1"/>
        <pt x="168" y="712" on="1"/>
        <pt x="188" y="633" on="1"/>
        <pt x="168" y="415" on="1"/>
        <pt x="168" y="236" on="1"/>
        <pt x="129" y="196" on="1"/>
        <pt x="109" y="216" on="1"/>
        <pt x="109" y="-1" on="1"/>
        <pt x="89" y="-101" on="1"/>
        <pt x="30" y="-101" on="1"/>
        <pt x="-30" y="276" on="1"/>
        <pt x="10" y="1169" on="1"/>
        <pt x="-10" y="1387" on="1"/>
        <pt x="89" y="1407" on="1"/>
        <pt x="129" y="1407" on="1"/>
        <pt x="129" y="1274" on="0"/>
        <pt x="406" y="931" on="1"/>
        <pt x="406" y="867" on="0"/>
        <pt x="525" y="811" on="1"/>
        <pt x="803" y="556" on="0"/>
        <pt x="803" y="435" on="1"/>
        <pt x="823" y="435" on="1"/>
        <pt x="823" y="494" on="1"/>
        <pt x="843" y="494" on="1"/>
        <pt x="962" y="364" on="0"/>
        <pt x="962" y="276" on="1"/>
        <pt x="1002" y="276" on="1"/>
        <pt x="982" y="871" on="1"/>
        <pt x="982" y="1010" on="1"/>
        <pt x="1021" y="1149" on="1"/>
        <pt x="1002" y="1347" on="1"/>
      </contour>
    </TTGlyph>
    <TTGlyph name="Ntilde" xMin="0" yMin="-56" xMax="789" yMax="1690">
      <contour>
        <pt x="677" y="1690" on="1"/>
        <pt x="692" y="1676" on="1"/>
        <pt x="692" y="1662" on="1"/>
        <pt x="692" y="1557" on="0"/>
        <pt x="521" y="1525" on="1"/>
        <pt x="490" y="1525" on="1"/>
        <pt x="420" y="1525" on="0"/>
        <pt x="350" y="1580" on="1"/>
        <pt x="195" y="1498" on="1"/>
        <pt x="164" y="1498" on="1"/>
        <pt x="133" y="1525" on="1"/>
        <pt x="164" y="1602" on="0"/>
        <pt x="273" y="1662" on="1"/>
        <pt x="288" y="1676" on="1"/>
        <pt x="382" y="1676" on="1"/>
        <pt x="445" y="1621" on="0"/>
        <pt x="568" y="1621" on="1"/>
        <pt x="568" y="1635" on="1"/>
        <pt x="593" y="1690" on="0"/>
      </contour>
      <contour>
        <pt x="693" y="1406" on="1"/>
        <pt x="750" y="1406" on="1"/>
        <pt x="750" y="1387" on="1"/>
        <pt x="755" y="1137" on="0"/>
        <pt x="789" y="1137" on="1"/>
        <pt x="731" y="983" on="1"/>
        <pt x="750" y="964" on="1"/>
        <pt x="731" y="868" on="1"/>
        <pt x="731" y="791" on="1"/>
        <pt x="750" y="714" on="1"/>
        <pt x="712" y="617" on="1"/>
        <pt x="731" y="617" on="1"/>
        <pt x="712" y="598" on="1"/>
        <pt x="712" y="175" on="1"/>
        <pt x="731" y="-17" on="1"/>
        <pt x="654" y="-17" on="1"/>
        <pt x="404" y="637" on="1"/>
        <pt x="269" y="906" on="1"/>
        <pt x="173" y="1041" on="1"/>
        <pt x="154" y="1022" on="1"/>
        <pt x="154" y="810" on="1"/>
        <pt x="135" y="791" on="1"/>
        <pt x="154" y="771" on="1"/>
        <pt x="154" y="502" on="1"/>
        <pt x="115" y="310" on="1"/>
        <pt x="135" y="-56" on="1"/>
        <pt x="77" y="-56" on="1"/>
        <pt x="0" y="-16" on="0"/>
        <pt x="0" y="40" on="1"/>
        <pt x="19" y="213" on="1"/>
        <pt x="0" y="329" on="1"/>
        <pt x="19" y="444" on="1"/>
        <pt x="0" y="540" on="1"/>
        <pt x="19" y="598" on="1"/>
        <pt x="0" y="810" on="1"/>
        <pt x="0" y="868" on="1"/>
        <pt x="0" y="1128" on="0"/>
        <pt x="77" y="1368" on="1"/>
        <pt x="231" y="1368" on="0"/>
        <pt x="231" y="1252" on="1"/>
        <pt x="577" y="560" on="0"/>
        <pt x="577" y="464" on="1"/>
        <pt x="596" y="464" on="1"/>
        <pt x="616" y="925" on="1"/>
        <pt x="635" y="925" on="1"/>
        <pt x="616" y="945" on="1"/>
        <pt x="616" y="964" on="1"/>
        <pt x="635" y="1022" on="1"/>
        <pt x="616" y="1022" on="1"/>
        <pt x="635" y="1041" on="1"/>
        <pt x="635" y="1118" on="1"/>
        <pt x="616" y="1137" on="1"/>
        <pt x="616" y="1156" on="1"/>
        <pt x="635" y="1175" on="1"/>
        <pt x="616" y="1195" on="1"/>
        <pt x="635" y="1195" on="1"/>
        <pt x="616" y="1214" on="1"/>
        <pt x="616" y="1233" on="1"/>
        <pt x="635" y="1252" on="1"/>
        <pt x="616" y="1272" on="1"/>
        <pt x="616" y="1291" on="1"/>
      </contour>
    </TTGlyph>
    <TTGlyph name="O" xMin="0" yMin="-137" xMax="1470" yMax="1428">
      <contour>
        <pt x="668" y="1428" on="1"/>
        <pt x="783" y="1428" on="1"/>
        <pt x="783" y="1374" on="0"/>
        <pt x="1126" y="1294" on="1"/>
        <pt x="1470" y="1125" on="0"/>
        <pt x="1470" y="588" on="1"/>
        <pt x="1381" y="165" on="0"/>
        <pt x="1222" y="72" on="1"/>
        <pt x="1098" y="-18" on="0"/>
        <pt x="840" y="-61" on="1"/>
        <pt x="840" y="-126" on="0"/>
        <pt x="668" y="-137" on="1"/>
        <pt x="668" y="3" on="0"/>
        <pt x="439" y="34" on="1"/>
        <pt x="150" y="34" on="0"/>
        <pt x="0" y="645" on="1"/>
        <pt x="0" y="683" on="1"/>
        <pt x="0" y="819" on="0"/>
        <pt x="38" y="893" on="1"/>
        <pt x="19" y="893" on="1"/>
        <pt x="19" y="1227" on="0"/>
      </contour>
      <contour>
        <pt x="172" y="817" on="1"/>
        <pt x="191" y="798" on="1"/>
        <pt x="172" y="798" on="1"/>
        <pt x="191" y="779" on="1"/>
        <pt x="191" y="702" on="1"/>
        <pt x="172" y="683" on="1"/>
        <pt x="203" y="416" on="0"/>
        <pt x="477" y="187" on="1"/>
        <pt x="592" y="130" on="1"/>
        <pt x="993" y="130" on="1"/>
        <pt x="1298" y="231" on="0"/>
        <pt x="1298" y="530" on="1"/>
        <pt x="1336" y="798" on="1"/>
        <pt x="1255" y="1103" on="0"/>
        <pt x="1069" y="1103" on="1"/>
        <pt x="1026" y="1193" on="0"/>
        <pt x="916" y="1218" on="1"/>
        <pt x="745" y="1199" on="1"/>
        <pt x="535" y="1218" on="1"/>
        <pt x="300" y="1218" on="0"/>
        <pt x="172" y="874" on="1"/>
      </contour>
      <contour>
        <pt x="554" y="950" on="1"/>
        <pt x="554" y="893" on="1"/>
        <pt x="515" y="893" on="1"/>
        <pt x="515" y="912" on="1"/>
      </contour>
      <contour>
        <pt x="783" y="740" on="1"/>
        <pt x="802" y="740" on="1"/>
        <pt x="802" y="645" on="1"/>
        <pt x="725" y="569" on="1"/>
        <pt x="706" y="569" on="1"/>
        <pt x="687" y="721" on="1"/>
        <pt x="706" y="721" on="1"/>
      </contour>
    </TTGlyph>
    <TTGlyph name="OE" xMin="0" yMin="-19" xMax="1734" yMax="1380">
      <contour>
        <pt x="678" y="1380" on="1"/>
        <pt x="728" y="1380" on="1"/>
        <pt x="767" y="1343" on="0"/>
        <pt x="1026" y="1298" on="1"/>
        <pt x="1026" y="1265" on="0"/>
        <pt x="1241" y="1099" on="1"/>
        <pt x="1323" y="818" on="1"/>
        <pt x="1340" y="685" on="1"/>
        <pt x="1230" y="206" on="0"/>
        <pt x="1125" y="206" on="1"/>
        <pt x="1118" y="153" on="0"/>
        <pt x="893" y="40" on="1"/>
        <pt x="662" y="-9" on="1"/>
        <pt x="149" y="79" on="0"/>
        <pt x="149" y="222" on="1"/>
        <pt x="83" y="222" on="0"/>
        <pt x="0" y="768" on="1"/>
        <pt x="0" y="935" on="0"/>
        <pt x="281" y="1248" on="1"/>
        <pt x="334" y="1314" on="0"/>
      </contour>
      <contour>
        <pt x="165" y="570" on="1"/>
        <pt x="255" y="289" on="0"/>
        <pt x="546" y="123" on="1"/>
        <pt x="612" y="106" on="1"/>
        <pt x="1125" y="235" on="0"/>
        <pt x="1125" y="404" on="1"/>
        <pt x="1175" y="404" on="0"/>
        <pt x="1191" y="685" on="1"/>
        <pt x="1162" y="1198" on="0"/>
        <pt x="860" y="1198" on="1"/>
        <pt x="695" y="1248" on="1"/>
        <pt x="326" y="1248" on="0"/>
        <pt x="182" y="884" on="1"/>
      </contour>
      <contour>
        <pt x="1263" y="1367" on="1"/>
        <pt x="1404" y="1349" on="1"/>
        <pt x="1483" y="1367" on="1"/>
        <pt x="1608" y="1349" on="0"/>
        <pt x="1608" y="1312" on="1"/>
        <pt x="1608" y="1258" on="1"/>
        <pt x="1426" y="1258" on="0"/>
        <pt x="1310" y="1167" on="1"/>
        <pt x="1325" y="1076" on="1"/>
        <pt x="1325" y="1002" on="1"/>
        <pt x="1356" y="1002" on="1"/>
        <pt x="1356" y="984" on="1"/>
        <pt x="1341" y="747" on="1"/>
        <pt x="1443" y="692" on="0"/>
        <pt x="1546" y="692" on="1"/>
        <pt x="1608" y="692" on="1"/>
        <pt x="1639" y="656" on="1"/>
        <pt x="1639" y="619" on="1"/>
        <pt x="1451" y="601" on="1"/>
        <pt x="1294" y="601" on="1"/>
        <pt x="1263" y="565" on="1"/>
        <pt x="1310" y="383" on="1"/>
        <pt x="1310" y="272" on="1"/>
        <pt x="1341" y="272" on="1"/>
        <pt x="1325" y="181" on="1"/>
        <pt x="1341" y="109" on="0"/>
        <pt x="1404" y="109" on="1"/>
        <pt x="1498" y="127" on="1"/>
        <pt x="1498" y="109" on="1"/>
        <pt x="1514" y="127" on="1"/>
        <pt x="1529" y="127" on="1"/>
        <pt x="1734" y="114" on="0"/>
        <pt x="1734" y="72" on="1"/>
        <pt x="1734" y="36" on="1"/>
        <pt x="1537" y="-19" on="0"/>
        <pt x="1388" y="-19" on="1"/>
        <pt x="1200" y="-19" on="0"/>
        <pt x="1200" y="163" on="1"/>
        <pt x="1168" y="163" on="0"/>
        <pt x="1168" y="237" on="1"/>
        <pt x="1183" y="764" on="0"/>
        <pt x="1215" y="820" on="1"/>
        <pt x="1183" y="982" on="0"/>
        <pt x="1183" y="1258" on="1"/>
        <pt x="1183" y="1349" on="1"/>
      </contour>
    </TTGlyph>
    <TTGlyph name="Oacute" xMin="0" yMin="21" xMax="1340" yMax="1783">
      <contour>
        <pt x="786" y="1783" on="1"/>
        <pt x="804" y="1783" on="1"/>
        <pt x="839" y="1751" on="1"/>
        <pt x="839" y="1688" on="1"/>
        <pt x="611" y="1482" on="1"/>
        <pt x="524" y="1482" on="1"/>
        <pt x="524" y="1562" on="1"/>
      </contour>
      <contour>
        <pt x="678" y="1410" on="1"/>
        <pt x="728" y="1410" on="1"/>
        <pt x="767" y="1373" on="0"/>
        <pt x="1026" y="1328" on="1"/>
        <pt x="1026" y="1295" on="0"/>
        <pt x="1241" y="1129" on="1"/>
        <pt x="1323" y="848" on="1"/>
        <pt x="1340" y="715" on="1"/>
        <pt x="1230" y="236" on="0"/>
        <pt x="1125" y="236" on="1"/>
        <pt x="1118" y="183" on="0"/>
        <pt x="893" y="70" on="1"/>
        <pt x="662" y="21" on="1"/>
        <pt x="149" y="109" on="0"/>
        <pt x="149" y="252" on="1"/>
        <pt x="83" y="252" on="0"/>
        <pt x="0" y="798" on="1"/>
        <pt x="0" y="965" on="0"/>
        <pt x="281" y="1278" on="1"/>
        <pt x="334" y="1344" on="0"/>
      </contour>
      <contour>
        <pt x="165" y="600" on="1"/>
        <pt x="255" y="319" on="0"/>
        <pt x="546" y="153" on="1"/>
        <pt x="612" y="136" on="1"/>
        <pt x="1125" y="265" on="0"/>
        <pt x="1125" y="434" on="1"/>
        <pt x="1175" y="434" on="0"/>
        <pt x="1191" y="715" on="1"/>
        <pt x="1162" y="1228" on="0"/>
        <pt x="860" y="1228" on="1"/>
        <pt x="695" y="1278" on="1"/>
        <pt x="326" y="1278" on="0"/>
        <pt x="182" y="914" on="1"/>
      </contour>
    </TTGlyph>
    <TTGlyph name="Ocircumflex" xMin="0" yMin="21" xMax="1340" yMax="1778">
      <contour>
        <pt x="678" y="1410" on="1"/>
        <pt x="728" y="1410" on="1"/>
        <pt x="767" y="1373" on="0"/>
        <pt x="1026" y="1328" on="1"/>
        <pt x="1026" y="1295" on="0"/>
        <pt x="1241" y="1129" on="1"/>
        <pt x="1323" y="848" on="1"/>
        <pt x="1340" y="715" on="1"/>
        <pt x="1230" y="236" on="0"/>
        <pt x="1125" y="236" on="1"/>
        <pt x="1118" y="183" on="0"/>
        <pt x="893" y="70" on="1"/>
        <pt x="662" y="21" on="1"/>
        <pt x="149" y="109" on="0"/>
        <pt x="149" y="252" on="1"/>
        <pt x="83" y="252" on="0"/>
        <pt x="0" y="798" on="1"/>
        <pt x="0" y="965" on="0"/>
        <pt x="281" y="1278" on="1"/>
        <pt x="334" y="1344" on="0"/>
      </contour>
      <contour>
        <pt x="165" y="600" on="1"/>
        <pt x="255" y="319" on="0"/>
        <pt x="546" y="153" on="1"/>
        <pt x="612" y="136" on="1"/>
        <pt x="1125" y="265" on="0"/>
        <pt x="1125" y="434" on="1"/>
        <pt x="1175" y="434" on="0"/>
        <pt x="1191" y="715" on="1"/>
        <pt x="1162" y="1228" on="0"/>
        <pt x="860" y="1228" on="1"/>
        <pt x="695" y="1278" on="1"/>
        <pt x="326" y="1278" on="0"/>
        <pt x="182" y="914" on="1"/>
      </contour>
      <contour>
        <pt x="924" y="1435" on="1"/>
        <pt x="865" y="1434" on="1"/>
        <pt x="835" y="1443" on="1"/>
        <pt x="831" y="1463" on="1"/>
        <pt x="756" y="1640" on="1"/>
        <pt x="741" y="1639" on="1"/>
        <pt x="664" y="1455" on="0"/>
        <pt x="566" y="1453" on="1"/>
        <pt x="522" y="1452" on="1"/>
        <pt x="594" y="1637" on="0"/>
        <pt x="680" y="1742" on="1"/>
        <pt x="662" y="1756" on="1"/>
        <pt x="680" y="1776" on="0"/>
        <pt x="703" y="1777" on="1"/>
        <pt x="747" y="1778" on="1"/>
        <pt x="914" y="1583" on="1"/>
        <pt x="900" y="1578" on="1"/>
        <pt x="916" y="1573" on="1"/>
        <pt x="901" y="1573" on="1"/>
        <pt x="917" y="1569" on="1"/>
        <pt x="921" y="1544" on="1"/>
        <pt x="945" y="1490" on="1"/>
        <pt x="920" y="1460" on="1"/>
      </contour>
    </TTGlyph>
    <TTGlyph name="Odieresis" xMin="0" yMin="-41" xMax="1516" yMax="1679">
      <contour>
        <pt x="647" y="1679" on="1"/>
        <pt x="703" y="1679" on="1"/>
        <pt x="740" y="1642" on="1"/>
        <pt x="740" y="1457" on="1"/>
        <pt x="758" y="1438" on="1"/>
        <pt x="758" y="1420" on="1"/>
        <pt x="851" y="1443" on="0"/>
        <pt x="851" y="1475" on="1"/>
        <pt x="851" y="1642" on="1"/>
        <pt x="962" y="1660" on="1"/>
        <pt x="999" y="1618" on="0"/>
        <pt x="999" y="1438" on="1"/>
        <pt x="1017" y="1420" on="1"/>
        <pt x="1017" y="1383" on="0"/>
        <pt x="1165" y="1364" on="1"/>
        <pt x="1424" y="1172" on="0"/>
        <pt x="1424" y="1087" on="1"/>
        <pt x="1474" y="1087" on="0"/>
        <pt x="1516" y="828" on="1"/>
        <pt x="1429" y="218" on="0"/>
        <pt x="1313" y="218" on="1"/>
        <pt x="1097" y="-22" on="0"/>
        <pt x="795" y="-22" on="1"/>
        <pt x="721" y="-41" on="1"/>
        <pt x="629" y="-41" on="1"/>
        <pt x="382" y="6" on="0"/>
        <pt x="277" y="125" on="1"/>
        <pt x="37" y="307" on="0"/>
        <pt x="37" y="477" on="1"/>
        <pt x="0" y="736" on="1"/>
        <pt x="110" y="1346" on="0"/>
        <pt x="388" y="1346" on="1"/>
        <pt x="629" y="1438" on="1"/>
        <pt x="629" y="1586" on="1"/>
      </contour>
      <contour>
        <pt x="721" y="1272" on="1"/>
        <pt x="610" y="1290" on="1"/>
        <pt x="240" y="1205" on="0"/>
        <pt x="240" y="1013" on="1"/>
        <pt x="148" y="971" on="0"/>
        <pt x="148" y="828" on="1"/>
        <pt x="148" y="754" on="1"/>
        <pt x="166" y="736" on="1"/>
        <pt x="148" y="717" on="1"/>
        <pt x="148" y="699" on="1"/>
        <pt x="326" y="199" on="0"/>
        <pt x="481" y="199" on="1"/>
        <pt x="481" y="150" on="0"/>
        <pt x="758" y="107" on="1"/>
        <pt x="1276" y="158" on="0"/>
        <pt x="1276" y="458" on="1"/>
        <pt x="1387" y="754" on="1"/>
        <pt x="1387" y="828" on="1"/>
        <pt x="1246" y="1235" on="0"/>
        <pt x="1091" y="1235" on="1"/>
        <pt x="1072" y="1216" on="1"/>
        <pt x="1072" y="1198" on="1"/>
        <pt x="951" y="1272" on="0"/>
        <pt x="832" y="1290" on="1"/>
        <pt x="814" y="1309" on="1"/>
        <pt x="777" y="1309" on="1"/>
      </contour>
    </TTGlyph>
    <TTGlyph name="Ograve" xMin="0" yMin="21" xMax="1340" yMax="1779">
      <contour>
        <pt x="844" y="1548" on="1"/>
        <pt x="847" y="1530" on="1"/>
        <pt x="820" y="1492" on="1"/>
        <pt x="757" y="1484" on="1"/>
        <pt x="523" y="1682" on="1"/>
        <pt x="512" y="1769" on="1"/>
        <pt x="591" y="1779" on="1"/>
      </contour>
      <contour>
        <pt x="678" y="1410" on="1"/>
        <pt x="728" y="1410" on="1"/>
        <pt x="767" y="1373" on="0"/>
        <pt x="1026" y="1328" on="1"/>
        <pt x="1026" y="1295" on="0"/>
        <pt x="1241" y="1129" on="1"/>
        <pt x="1323" y="848" on="1"/>
        <pt x="1340" y="715" on="1"/>
        <pt x="1230" y="236" on="0"/>
        <pt x="1125" y="236" on="1"/>
        <pt x="1118" y="183" on="0"/>
        <pt x="893" y="70" on="1"/>
        <pt x="662" y="21" on="1"/>
        <pt x="149" y="109" on="0"/>
        <pt x="149" y="252" on="1"/>
        <pt x="83" y="252" on="0"/>
        <pt x="0" y="798" on="1"/>
        <pt x="0" y="965" on="0"/>
        <pt x="281" y="1278" on="1"/>
        <pt x="334" y="1344" on="0"/>
      </contour>
      <contour>
        <pt x="165" y="600" on="1"/>
        <pt x="255" y="319" on="0"/>
        <pt x="546" y="153" on="1"/>
        <pt x="612" y="136" on="1"/>
        <pt x="1125" y="265" on="0"/>
        <pt x="1125" y="434" on="1"/>
        <pt x="1175" y="434" on="0"/>
        <pt x="1191" y="715" on="1"/>
        <pt x="1162" y="1228" on="0"/>
        <pt x="860" y="1228" on="1"/>
        <pt x="695" y="1278" on="1"/>
        <pt x="326" y="1278" on="0"/>
        <pt x="182" y="914" on="1"/>
      </contour>
    </TTGlyph>
    <TTGlyph name="Oslash" xMin="14" yMin="-27" xMax="1354" yMax="1454">
      <contour>
        <pt x="1136" y="1425" on="1"/>
        <pt x="1231" y="1454" on="1"/>
        <pt x="1234" y="1395" on="1"/>
        <pt x="1136" y="1287" on="1"/>
        <pt x="191" y="-5" on="1"/>
        <pt x="106" y="-27" on="1"/>
        <pt x="72" y="-13" on="1"/>
      </contour>
      <contour>
        <pt x="692" y="1410" on="1"/>
        <pt x="742" y="1410" on="1"/>
        <pt x="781" y="1373" on="0"/>
        <pt x="1040" y="1328" on="1"/>
        <pt x="1040" y="1295" on="0"/>
        <pt x="1255" y="1129" on="1"/>
        <pt x="1337" y="848" on="1"/>
        <pt x="1354" y="715" on="1"/>
        <pt x="1244" y="236" on="0"/>
        <pt x="1139" y="236" on="1"/>
        <pt x="1132" y="183" on="0"/>
        <pt x="907" y="70" on="1"/>
        <pt x="676" y="21" on="1"/>
        <pt x="163" y="109" on="0"/>
        <pt x="163" y="252" on="1"/>
        <pt x="97" y="252" on="0"/>
        <pt x="14" y="798" on="1"/>
        <pt x="14" y="965" on="0"/>
        <pt x="295" y="1278" on="1"/>
        <pt x="348" y="1344" on="0"/>
      </contour>
      <contour>
        <pt x="179" y="600" on="1"/>
        <pt x="269" y="319" on="0"/>
        <pt x="560" y="153" on="1"/>
        <pt x="626" y="136" on="1"/>
        <pt x="1139" y="265" on="0"/>
        <pt x="1139" y="434" on="1"/>
        <pt x="1189" y="434" on="0"/>
        <pt x="1205" y="715" on="1"/>
        <pt x="1176" y="1228" on="0"/>
        <pt x="874" y="1228" on="1"/>
        <pt x="709" y="1278" on="1"/>
        <pt x="340" y="1278" on="0"/>
        <pt x="196" y="914" on="1"/>
      </contour>
    </TTGlyph>
    <TTGlyph name="Otilde" xMin="0" yMin="-9" xMax="1340" yMax="1777">
      <contour>
        <pt x="678" y="1380" on="1"/>
        <pt x="728" y="1380" on="1"/>
        <pt x="767" y="1343" on="0"/>
        <pt x="1026" y="1298" on="1"/>
        <pt x="1026" y="1265" on="0"/>
        <pt x="1241" y="1099" on="1"/>
        <pt x="1323" y="818" on="1"/>
        <pt x="1340" y="685" on="1"/>
        <pt x="1230" y="206" on="0"/>
        <pt x="1125" y="206" on="1"/>
        <pt x="1118" y="153" on="0"/>
        <pt x="893" y="40" on="1"/>
        <pt x="662" y="-9" on="1"/>
        <pt x="149" y="79" on="0"/>
        <pt x="149" y="222" on="1"/>
        <pt x="83" y="222" on="0"/>
        <pt x="0" y="768" on="1"/>
        <pt x="0" y="935" on="0"/>
        <pt x="281" y="1248" on="1"/>
        <pt x="334" y="1314" on="0"/>
      </contour>
      <contour>
        <pt x="165" y="570" on="1"/>
        <pt x="255" y="289" on="0"/>
        <pt x="546" y="123" on="1"/>
        <pt x="612" y="106" on="1"/>
        <pt x="1125" y="235" on="0"/>
        <pt x="1125" y="404" on="1"/>
        <pt x="1175" y="404" on="0"/>
        <pt x="1191" y="685" on="1"/>
        <pt x="1162" y="1198" on="0"/>
        <pt x="860" y="1198" on="1"/>
        <pt x="695" y="1248" on="1"/>
        <pt x="326" y="1248" on="0"/>
        <pt x="182" y="884" on="1"/>
      </contour>
      <contour>
        <pt x="943" y="1777" on="1"/>
        <pt x="943" y="1728" on="1"/>
        <pt x="921" y="1546" on="0"/>
        <pt x="794" y="1546" on="1"/>
        <pt x="744" y="1546" on="1"/>
        <pt x="684" y="1595" on="0"/>
        <pt x="629" y="1595" on="1"/>
        <pt x="564" y="1496" on="0"/>
        <pt x="496" y="1496" on="1"/>
        <pt x="480" y="1496" on="1"/>
        <pt x="480" y="1595" on="1"/>
        <pt x="579" y="1695" on="1"/>
        <pt x="629" y="1695" on="1"/>
        <pt x="772" y="1681" on="0"/>
        <pt x="778" y="1645" on="1"/>
        <pt x="828" y="1645" on="0"/>
        <pt x="877" y="1777" on="1"/>
      </contour>
    </TTGlyph>
    <TTGlyph name="P" xMin="-39" yMin="-49" xMax="523" yMax="1439">
      <contour>
        <pt x="77" y="1439" on="1"/>
        <pt x="143" y="1439" on="1"/>
        <pt x="143" y="1363" on="0"/>
        <pt x="374" y="1274" on="1"/>
        <pt x="474" y="1148" on="0"/>
        <pt x="490" y="1009" on="1"/>
        <pt x="507" y="993" on="1"/>
        <pt x="507" y="927" on="1"/>
        <pt x="523" y="761" on="1"/>
        <pt x="457" y="646" on="1"/>
        <pt x="408" y="646" on="0"/>
        <pt x="275" y="464" on="1"/>
        <pt x="163" y="464" on="0"/>
        <pt x="143" y="364" on="1"/>
        <pt x="176" y="100" on="1"/>
        <pt x="176" y="-19" on="0"/>
        <pt x="93" y="-49" on="1"/>
        <pt x="60" y="-49" on="1"/>
        <pt x="60" y="34" on="0"/>
        <pt x="27" y="34" on="1"/>
        <pt x="44" y="50" on="1"/>
        <pt x="44" y="67" on="1"/>
        <pt x="27" y="199" on="1"/>
        <pt x="44" y="199" on="1"/>
        <pt x="27" y="216" on="1"/>
        <pt x="27" y="298" on="1"/>
        <pt x="44" y="315" on="1"/>
        <pt x="27" y="331" on="1"/>
        <pt x="27" y="414" on="1"/>
        <pt x="44" y="480" on="1"/>
        <pt x="27" y="530" on="1"/>
        <pt x="44" y="546" on="1"/>
        <pt x="27" y="546" on="1"/>
        <pt x="60" y="636" on="0"/>
        <pt x="60" y="778" on="1"/>
        <pt x="27" y="877" on="1"/>
        <pt x="60" y="1142" on="1"/>
        <pt x="60" y="1267" on="0"/>
        <pt x="-39" y="1324" on="1"/>
        <pt x="-39" y="1357" on="1"/>
        <pt x="-39" y="1383" on="0"/>
      </contour>
      <contour>
        <pt x="159" y="1258" on="1"/>
        <pt x="159" y="1224" on="1"/>
        <pt x="143" y="1224" on="1"/>
        <pt x="176" y="993" on="1"/>
        <pt x="159" y="745" on="1"/>
        <pt x="159" y="612" on="1"/>
        <pt x="372" y="612" on="0"/>
        <pt x="408" y="1009" on="1"/>
        <pt x="424" y="1026" on="1"/>
        <pt x="311" y="1211" on="0"/>
        <pt x="193" y="1258" on="1"/>
      </contour>
    </TTGlyph>
    <TTGlyph name="Q" xMin="0" yMin="-408" xMax="2460" yMax="1392">
      <contour>
        <pt x="601" y="1392" on="1"/>
        <pt x="1258" y="1336" on="0"/>
        <pt x="1277" y="1139" on="1"/>
        <pt x="1326" y="1143" on="0"/>
        <pt x="1416" y="773" on="1"/>
        <pt x="1397" y="750" on="1"/>
        <pt x="1418" y="752" on="1"/>
        <pt x="1399" y="730" on="1"/>
        <pt x="1401" y="709" on="1"/>
        <pt x="1424" y="690" on="1"/>
        <pt x="1426" y="669" on="1"/>
        <pt x="1405" y="667" on="1"/>
        <pt x="1427" y="648" on="1"/>
        <pt x="1445" y="455" on="0"/>
        <pt x="1264" y="149" on="1"/>
        <pt x="1180" y="141" on="0"/>
        <pt x="1184" y="100" on="1"/>
        <pt x="1531" y="-15" on="0"/>
        <pt x="1888" y="-234" on="1"/>
        <pt x="2184" y="-249" on="1"/>
        <pt x="2263" y="-94" on="0"/>
        <pt x="2379" y="-83" on="1"/>
        <pt x="2400" y="-81" on="1"/>
        <pt x="2445" y="-119" on="1"/>
        <pt x="2451" y="-182" on="1"/>
        <pt x="2460" y="-277" on="0"/>
        <pt x="2093" y="-404" on="1"/>
        <pt x="2072" y="-406" on="1"/>
        <pt x="2049" y="-387" on="1"/>
        <pt x="2051" y="-408" on="1"/>
        <pt x="1768" y="-384" on="0"/>
        <pt x="1374" y="-134" on="1"/>
        <pt x="1054" y="4" on="0"/>
        <pt x="733" y="-26" on="1"/>
        <pt x="714" y="-49" on="1"/>
        <pt x="693" y="-50" on="1"/>
        <pt x="284" y="31" on="0"/>
        <pt x="38" y="435" on="1"/>
        <pt x="4" y="579" on="1"/>
        <pt x="0" y="621" on="1"/>
        <pt x="31" y="964" on="0"/>
        <pt x="164" y="1120" on="1"/>
        <pt x="247" y="1285" on="0"/>
        <pt x="581" y="1390" on="1"/>
      </contour>
      <contour>
        <pt x="150" y="593" on="1"/>
        <pt x="346" y="127" on="0"/>
        <pt x="549" y="146" on="1"/>
        <pt x="594" y="108" on="1"/>
        <pt x="799" y="169" on="1"/>
        <pt x="949" y="141" on="1"/>
        <pt x="946" y="174" on="0"/>
        <pt x="1108" y="240" on="1"/>
        <pt x="1282" y="635" on="1"/>
        <pt x="1146" y="1274" on="0"/>
        <pt x="742" y="1236" on="1"/>
        <pt x="615" y="1246" on="1"/>
        <pt x="351" y="1221" on="0"/>
        <pt x="195" y="786" on="1"/>
      </contour>
    </TTGlyph>
    <TTGlyph name="R" xMin="0" yMin="-26" xMax="743" yMax="1569">
      <contour>
        <pt x="91" y="1569" on="1"/>
        <pt x="109" y="1569" on="1"/>
        <pt x="199" y="1424" on="1"/>
        <pt x="326" y="1424" on="1"/>
        <pt x="567" y="1424" on="0"/>
        <pt x="689" y="1080" on="1"/>
        <pt x="743" y="1080" on="1"/>
        <pt x="707" y="790" on="1"/>
        <pt x="707" y="771" on="1"/>
        <pt x="634" y="771" on="0"/>
        <pt x="544" y="590" on="1"/>
        <pt x="267" y="454" on="0"/>
        <pt x="254" y="391" on="1"/>
        <pt x="254" y="373" on="1"/>
        <pt x="417" y="191" on="1"/>
        <pt x="417" y="137" on="1"/>
        <pt x="326" y="119" on="1"/>
        <pt x="181" y="182" on="0"/>
        <pt x="181" y="246" on="1"/>
        <pt x="163" y="246" on="1"/>
        <pt x="163" y="210" on="1"/>
        <pt x="181" y="-26" on="1"/>
        <pt x="145" y="-26" on="1"/>
        <pt x="51" y="-26" on="0"/>
        <pt x="36" y="28" on="1"/>
        <pt x="36" y="264" on="1"/>
        <pt x="0" y="463" on="1"/>
        <pt x="0" y="663" on="1"/>
        <pt x="18" y="681" on="1"/>
        <pt x="0" y="699" on="1"/>
        <pt x="0" y="735" on="1"/>
        <pt x="18" y="753" on="1"/>
        <pt x="18" y="771" on="1"/>
        <pt x="0" y="771" on="1"/>
        <pt x="18" y="790" on="1"/>
        <pt x="18" y="808" on="1"/>
        <pt x="36" y="1478" on="1"/>
        <pt x="49" y="1569" on="0"/>
      </contour>
      <contour>
        <pt x="145" y="717" on="1"/>
        <pt x="145" y="699" on="1"/>
        <pt x="163" y="626" on="1"/>
        <pt x="145" y="554" on="1"/>
        <pt x="145" y="518" on="1"/>
        <pt x="163" y="518" on="1"/>
        <pt x="199" y="608" on="1"/>
        <pt x="236" y="608" on="1"/>
        <pt x="254" y="590" on="1"/>
        <pt x="272" y="590" on="1"/>
        <pt x="562" y="819" on="0"/>
        <pt x="562" y="1007" on="1"/>
        <pt x="519" y="1224" on="0"/>
        <pt x="381" y="1224" on="1"/>
        <pt x="236" y="1315" on="1"/>
        <pt x="217" y="1315" on="1"/>
        <pt x="158" y="1315" on="0"/>
      </contour>
    </TTGlyph>
    <TTGlyph name="S" xMin="-26" yMin="-18" xMax="606" yMax="1442">
      <contour>
        <pt x="410" y="1442" on="1"/>
        <pt x="561" y="1412" on="1"/>
        <pt x="561" y="1382" on="1"/>
        <pt x="546" y="1367" on="1"/>
        <pt x="546" y="1352" on="1"/>
        <pt x="606" y="1352" on="0"/>
        <pt x="606" y="1322" on="1"/>
        <pt x="606" y="1291" on="1"/>
        <pt x="591" y="1291" on="1"/>
        <pt x="516" y="1307" on="1"/>
        <pt x="215" y="1307" on="0"/>
        <pt x="215" y="1111" on="1"/>
        <pt x="215" y="1004" on="0"/>
        <pt x="395" y="855" on="1"/>
        <pt x="395" y="820" on="0"/>
        <pt x="531" y="674" on="1"/>
        <pt x="561" y="418" on="1"/>
        <pt x="561" y="38" on="0"/>
        <pt x="215" y="-18" on="1"/>
        <pt x="64" y="-18" on="1"/>
        <pt x="35" y="-18" on="0"/>
        <pt x="4" y="72" on="1"/>
        <pt x="-26" y="72" on="1"/>
        <pt x="-26" y="178" on="1"/>
        <pt x="-10" y="178" on="1"/>
        <pt x="125" y="148" on="1"/>
        <pt x="335" y="223" on="1"/>
        <pt x="426" y="302" on="0"/>
        <pt x="426" y="479" on="1"/>
        <pt x="354" y="668" on="0"/>
        <pt x="155" y="780" on="1"/>
        <pt x="49" y="966" on="0"/>
        <pt x="49" y="1021" on="1"/>
        <pt x="49" y="1111" on="1"/>
        <pt x="53" y="1186" on="0"/>
        <pt x="79" y="1186" on="1"/>
        <pt x="64" y="1201" on="1"/>
        <pt x="64" y="1216" on="1"/>
        <pt x="94" y="1307" on="1"/>
        <pt x="200" y="1382" on="1"/>
      </contour>
    </TTGlyph>
    <TTGlyph name="T" xMin="-52" yMin="-25" xMax="473" yMax="1427">
      <contour>
        <pt x="-6" y="1427" on="1"/>
        <pt x="427" y="1396" on="1"/>
        <pt x="443" y="1396" on="1"/>
        <pt x="458" y="1381" on="1"/>
        <pt x="473" y="1381" on="1"/>
        <pt x="473" y="1242" on="0"/>
        <pt x="303" y="1242" on="1"/>
        <pt x="319" y="1133" on="1"/>
        <pt x="319" y="1087" on="1"/>
        <pt x="257" y="793" on="1"/>
        <pt x="273" y="546" on="1"/>
        <pt x="257" y="531" on="1"/>
        <pt x="273" y="453" on="1"/>
        <pt x="303" y="-10" on="1"/>
        <pt x="288" y="-25" on="1"/>
        <pt x="273" y="-25" on="1"/>
        <pt x="164" y="-25" on="0"/>
        <pt x="164" y="160" on="1"/>
        <pt x="149" y="206" on="1"/>
        <pt x="164" y="330" on="1"/>
        <pt x="149" y="639" on="1"/>
        <pt x="149" y="855" on="1"/>
        <pt x="195" y="1087" on="1"/>
        <pt x="195" y="1268" on="0"/>
        <pt x="-52" y="1303" on="1"/>
        <pt x="-52" y="1365" on="1"/>
        <pt x="-6" y="1365" on="0"/>
      </contour>
    </TTGlyph>
    <TTGlyph name="U" xMin="-14" yMin="-10" xMax="963" yMax="1427">
      <contour>
        <pt x="82" y="1427" on="1"/>
        <pt x="223" y="1427" on="0"/>
        <pt x="235" y="1369" on="1"/>
        <pt x="235" y="1139" on="1"/>
        <pt x="216" y="1043" on="1"/>
        <pt x="235" y="1043" on="1"/>
        <pt x="197" y="909" on="1"/>
        <pt x="216" y="890" on="1"/>
        <pt x="178" y="641" on="1"/>
        <pt x="216" y="564" on="1"/>
        <pt x="197" y="507" on="1"/>
        <pt x="375" y="203" on="0"/>
        <pt x="503" y="124" on="1"/>
        <pt x="637" y="124" on="0"/>
        <pt x="810" y="430" on="1"/>
        <pt x="772" y="852" on="1"/>
        <pt x="791" y="928" on="1"/>
        <pt x="772" y="1101" on="1"/>
        <pt x="810" y="1216" on="1"/>
        <pt x="791" y="1388" on="1"/>
        <pt x="848" y="1427" on="1"/>
        <pt x="944" y="1407" on="1"/>
        <pt x="963" y="1120" on="1"/>
        <pt x="944" y="1063" on="1"/>
        <pt x="963" y="948" on="1"/>
        <pt x="963" y="909" on="1"/>
        <pt x="944" y="814" on="1"/>
        <pt x="963" y="699" on="1"/>
        <pt x="963" y="584" on="1"/>
        <pt x="910" y="124" on="0"/>
        <pt x="829" y="124" on="1"/>
        <pt x="818" y="77" on="0"/>
        <pt x="637" y="-10" on="1"/>
        <pt x="503" y="-10" on="1"/>
        <pt x="250" y="32" on="0"/>
        <pt x="101" y="200" on="1"/>
        <pt x="11" y="335" on="0"/>
        <pt x="-14" y="488" on="1"/>
        <pt x="-14" y="603" on="1"/>
        <pt x="43" y="603" on="1"/>
        <pt x="43" y="890" on="1"/>
        <pt x="24" y="1178" on="1"/>
      </contour>
    </TTGlyph>
    <TTGlyph name="Uacute" xMin="0" yMin="-22" xMax="704" yMax="1783">
      <contour>
        <pt x="563" y="1446" on="1"/>
        <pt x="583" y="1446" on="1"/>
        <pt x="684" y="1426" on="1"/>
        <pt x="684" y="1326" on="1"/>
        <pt x="664" y="1305" on="1"/>
        <pt x="684" y="1285" on="1"/>
        <pt x="684" y="1165" on="1"/>
        <pt x="664" y="1024" on="1"/>
        <pt x="684" y="1004" on="1"/>
        <pt x="704" y="1004" on="1"/>
        <pt x="664" y="722" on="1"/>
        <pt x="704" y="481" on="1"/>
        <pt x="674" y="259" on="0"/>
        <pt x="644" y="259" on="1"/>
        <pt x="664" y="239" on="1"/>
        <pt x="664" y="179" on="1"/>
        <pt x="583" y="-22" on="0"/>
        <pt x="362" y="-22" on="1"/>
        <pt x="102" y="-22" on="0"/>
        <pt x="40" y="259" on="1"/>
        <pt x="30" y="501" on="0"/>
        <pt x="0" y="501" on="1"/>
        <pt x="40" y="588" on="0"/>
        <pt x="40" y="823" on="1"/>
        <pt x="40" y="1285" on="1"/>
        <pt x="60" y="1386" on="1"/>
        <pt x="80" y="1386" on="1"/>
        <pt x="201" y="1373" on="0"/>
        <pt x="201" y="1326" on="1"/>
        <pt x="181" y="863" on="1"/>
        <pt x="161" y="782" on="1"/>
        <pt x="201" y="742" on="1"/>
        <pt x="201" y="702" on="1"/>
        <pt x="181" y="622" on="1"/>
        <pt x="201" y="601" on="1"/>
        <pt x="201" y="581" on="1"/>
        <pt x="161" y="380" on="1"/>
        <pt x="196" y="380" on="0"/>
        <pt x="262" y="199" on="1"/>
        <pt x="342" y="99" on="1"/>
        <pt x="418" y="99" on="0"/>
        <pt x="503" y="219" on="1"/>
        <pt x="483" y="380" on="1"/>
        <pt x="523" y="541" on="1"/>
        <pt x="523" y="682" on="1"/>
        <pt x="503" y="923" on="1"/>
        <pt x="523" y="1165" on="1"/>
        <pt x="523" y="1406" on="1"/>
      </contour>
      <contour>
        <pt x="501" y="1783" on="1"/>
        <pt x="519" y="1783" on="1"/>
        <pt x="554" y="1751" on="1"/>
        <pt x="554" y="1688" on="1"/>
        <pt x="326" y="1482" on="1"/>
        <pt x="239" y="1482" on="1"/>
        <pt x="239" y="1562" on="1"/>
      </contour>
    </TTGlyph>
    <TTGlyph name="Ucircumflex" xMin="-52" yMin="-22" xMax="944" yMax="1764">
      <contour>
        <pt x="785" y="1397" on="1"/>
        <pt x="816" y="1397" on="1"/>
        <pt x="913" y="1378" on="1"/>
        <pt x="913" y="1281" on="1"/>
        <pt x="882" y="1261" on="1"/>
        <pt x="913" y="1241" on="1"/>
        <pt x="913" y="1125" on="1"/>
        <pt x="882" y="989" on="1"/>
        <pt x="913" y="970" on="1"/>
        <pt x="944" y="970" on="1"/>
        <pt x="882" y="697" on="1"/>
        <pt x="944" y="464" on="1"/>
        <pt x="897" y="250" on="0"/>
        <pt x="851" y="250" on="1"/>
        <pt x="882" y="230" on="1"/>
        <pt x="882" y="172" on="1"/>
        <pt x="816" y="-22" on="0"/>
        <pt x="473" y="-22" on="1"/>
        <pt x="69" y="-22" on="0"/>
        <pt x="10" y="250" on="1"/>
        <pt x="-5" y="484" on="0"/>
        <pt x="-52" y="484" on="1"/>
        <pt x="10" y="568" on="0"/>
        <pt x="10" y="795" on="1"/>
        <pt x="10" y="1241" on="1"/>
        <pt x="41" y="1339" on="1"/>
        <pt x="72" y="1339" on="1"/>
        <pt x="222" y="1326" on="0"/>
        <pt x="222" y="1281" on="1"/>
        <pt x="191" y="833" on="1"/>
        <pt x="160" y="755" on="1"/>
        <pt x="222" y="716" on="1"/>
        <pt x="222" y="678" on="1"/>
        <pt x="191" y="601" on="1"/>
        <pt x="222" y="580" on="1"/>
        <pt x="222" y="561" on="1"/>
        <pt x="160" y="367" on="1"/>
        <pt x="215" y="367" on="0"/>
        <pt x="317" y="192" on="1"/>
        <pt x="441" y="95" on="1"/>
        <pt x="560" y="95" on="0"/>
        <pt x="692" y="211" on="1"/>
        <pt x="661" y="367" on="1"/>
        <pt x="723" y="522" on="1"/>
        <pt x="723" y="659" on="1"/>
        <pt x="692" y="891" on="1"/>
        <pt x="723" y="1125" on="1"/>
        <pt x="723" y="1358" on="1"/>
      </contour>
      <contour>
        <pt x="632" y="1440" on="1"/>
        <pt x="580" y="1439" on="1"/>
        <pt x="553" y="1448" on="1"/>
        <pt x="550" y="1467" on="1"/>
        <pt x="484" y="1633" on="1"/>
        <pt x="471" y="1633" on="1"/>
        <pt x="403" y="1459" on="0"/>
        <pt x="317" y="1457" on="1"/>
        <pt x="278" y="1456" on="1"/>
        <pt x="341" y="1631" on="0"/>
        <pt x="416" y="1730" on="1"/>
        <pt x="401" y="1743" on="1"/>
        <pt x="417" y="1763" on="0"/>
        <pt x="437" y="1763" on="1"/>
        <pt x="476" y="1764" on="1"/>
        <pt x="623" y="1580" on="1"/>
        <pt x="610" y="1575" on="1"/>
        <pt x="624" y="1571" on="1"/>
        <pt x="611" y="1570" on="1"/>
        <pt x="625" y="1566" on="1"/>
        <pt x="629" y="1543" on="1"/>
        <pt x="650" y="1492" on="1"/>
        <pt x="628" y="1463" on="1"/>
      </contour>
    </TTGlyph>
    <TTGlyph name="Udieresis" xMin="-22" yMin="-22" xMax="682" yMax="1726">
      <contour>
        <pt x="457" y="1726" on="1"/>
        <pt x="563" y="1726" on="1"/>
        <pt x="598" y="1726" on="0"/>
        <pt x="598" y="1681" on="1"/>
        <pt x="589" y="1499" on="0"/>
        <pt x="545" y="1499" on="1"/>
        <pt x="510" y="1499" on="1"/>
        <pt x="405" y="1548" on="0"/>
        <pt x="405" y="1620" on="1"/>
        <pt x="405" y="1635" on="1"/>
        <pt x="416" y="1726" on="0"/>
      </contour>
      <contour>
        <pt x="194" y="1711" on="1"/>
        <pt x="212" y="1711" on="1"/>
        <pt x="317" y="1711" on="0"/>
        <pt x="317" y="1575" on="1"/>
        <pt x="299" y="1530" on="1"/>
        <pt x="247" y="1499" on="1"/>
        <pt x="194" y="1499" on="1"/>
        <pt x="141" y="1545" on="1"/>
        <pt x="141" y="1620" on="1"/>
        <pt x="152" y="1711" on="0"/>
      </contour>
      <contour>
        <pt x="541" y="1446" on="1"/>
        <pt x="561" y="1446" on="1"/>
        <pt x="662" y="1426" on="1"/>
        <pt x="662" y="1326" on="1"/>
        <pt x="642" y="1305" on="1"/>
        <pt x="662" y="1285" on="1"/>
        <pt x="662" y="1165" on="1"/>
        <pt x="642" y="1024" on="1"/>
        <pt x="662" y="1004" on="1"/>
        <pt x="682" y="1004" on="1"/>
        <pt x="642" y="722" on="1"/>
        <pt x="682" y="481" on="1"/>
        <pt x="652" y="259" on="0"/>
        <pt x="622" y="259" on="1"/>
        <pt x="642" y="239" on="1"/>
        <pt x="642" y="179" on="1"/>
        <pt x="561" y="-22" on="0"/>
        <pt x="340" y="-22" on="1"/>
        <pt x="80" y="-22" on="0"/>
        <pt x="18" y="259" on="1"/>
        <pt x="8" y="501" on="0"/>
        <pt x="-22" y="501" on="1"/>
        <pt x="18" y="588" on="0"/>
        <pt x="18" y="823" on="1"/>
        <pt x="18" y="1285" on="1"/>
        <pt x="38" y="1386" on="1"/>
        <pt x="58" y="1386" on="1"/>
        <pt x="179" y="1373" on="0"/>
        <pt x="179" y="1326" on="1"/>
        <pt x="159" y="863" on="1"/>
        <pt x="139" y="782" on="1"/>
        <pt x="179" y="742" on="1"/>
        <pt x="179" y="702" on="1"/>
        <pt x="159" y="622" on="1"/>
        <pt x="179" y="601" on="1"/>
        <pt x="179" y="581" on="1"/>
        <pt x="139" y="380" on="1"/>
        <pt x="174" y="380" on="0"/>
        <pt x="240" y="199" on="1"/>
        <pt x="320" y="99" on="1"/>
        <pt x="396" y="99" on="0"/>
        <pt x="481" y="219" on="1"/>
        <pt x="461" y="380" on="1"/>
        <pt x="501" y="541" on="1"/>
        <pt x="501" y="682" on="1"/>
        <pt x="481" y="923" on="1"/>
        <pt x="501" y="1165" on="1"/>
        <pt x="501" y="1406" on="1"/>
      </contour>
    </TTGlyph>
    <TTGlyph name="Ugrave" xMin="-30" yMin="-22" xMax="674" yMax="1777">
      <contour>
        <pt x="533" y="1446" on="1"/>
        <pt x="553" y="1446" on="1"/>
        <pt x="654" y="1426" on="1"/>
        <pt x="654" y="1326" on="1"/>
        <pt x="634" y="1305" on="1"/>
        <pt x="654" y="1285" on="1"/>
        <pt x="654" y="1165" on="1"/>
        <pt x="634" y="1024" on="1"/>
        <pt x="654" y="1004" on="1"/>
        <pt x="674" y="1004" on="1"/>
        <pt x="634" y="722" on="1"/>
        <pt x="674" y="481" on="1"/>
        <pt x="644" y="259" on="0"/>
        <pt x="614" y="259" on="1"/>
        <pt x="634" y="239" on="1"/>
        <pt x="634" y="179" on="1"/>
        <pt x="553" y="-22" on="0"/>
        <pt x="332" y="-22" on="1"/>
        <pt x="72" y="-22" on="0"/>
        <pt x="10" y="259" on="1"/>
        <pt x="0" y="501" on="0"/>
        <pt x="-30" y="501" on="1"/>
        <pt x="10" y="588" on="0"/>
        <pt x="10" y="823" on="1"/>
        <pt x="10" y="1285" on="1"/>
        <pt x="30" y="1386" on="1"/>
        <pt x="50" y="1386" on="1"/>
        <pt x="171" y="1373" on="0"/>
        <pt x="171" y="1326" on="1"/>
        <pt x="151" y="863" on="1"/>
        <pt x="131" y="782" on="1"/>
        <pt x="171" y="742" on="1"/>
        <pt x="171" y="702" on="1"/>
        <pt x="151" y="622" on="1"/>
        <pt x="171" y="601" on="1"/>
        <pt x="171" y="581" on="1"/>
        <pt x="131" y="380" on="1"/>
        <pt x="166" y="380" on="0"/>
        <pt x="232" y="199" on="1"/>
        <pt x="312" y="99" on="1"/>
        <pt x="388" y="99" on="0"/>
        <pt x="473" y="219" on="1"/>
        <pt x="453" y="380" on="1"/>
        <pt x="493" y="541" on="1"/>
        <pt x="493" y="682" on="1"/>
        <pt x="473" y="923" on="1"/>
        <pt x="493" y="1165" on="1"/>
        <pt x="493" y="1406" on="1"/>
      </contour>
      <contour>
        <pt x="531" y="1552" on="1"/>
        <pt x="534" y="1534" on="1"/>
        <pt x="508" y="1495" on="1"/>
        <pt x="446" y="1485" on="1"/>
        <pt x="207" y="1679" on="1"/>
        <pt x="194" y="1765" on="1"/>
        <pt x="273" y="1777" on="1"/>
      </contour>
    </TTGlyph>
    <TTGlyph name="V" xMin="0" yMin="-104" xMax="513" yMax="1448">
      <contour>
        <pt x="28" y="1448" on="1"/>
        <pt x="57" y="1448" on="1"/>
        <pt x="95" y="1448" on="0"/>
        <pt x="114" y="1206" on="1"/>
        <pt x="100" y="1121" on="1"/>
        <pt x="100" y="1049" on="1"/>
        <pt x="157" y="866" on="0"/>
        <pt x="157" y="708" on="1"/>
        <pt x="142" y="309" on="1"/>
        <pt x="142" y="266" on="1"/>
        <pt x="157" y="266" on="1"/>
        <pt x="157" y="362" on="0"/>
        <pt x="228" y="522" on="1"/>
        <pt x="328" y="868" on="0"/>
        <pt x="328" y="992" on="1"/>
        <pt x="363" y="1066" on="0"/>
        <pt x="413" y="1377" on="1"/>
        <pt x="484" y="1448" on="1"/>
        <pt x="513" y="1448" on="1"/>
        <pt x="513" y="1420" on="1"/>
        <pt x="385" y="787" on="0"/>
        <pt x="242" y="266" on="1"/>
        <pt x="185" y="-104" on="1"/>
        <pt x="142" y="-104" on="1"/>
        <pt x="90" y="-104" on="0"/>
        <pt x="43" y="380" on="1"/>
        <pt x="57" y="423" on="1"/>
        <pt x="28" y="487" on="0"/>
        <pt x="28" y="608" on="1"/>
        <pt x="28" y="651" on="1"/>
        <pt x="43" y="747" on="0"/>
        <pt x="71" y="750" on="1"/>
        <pt x="14" y="1035" on="1"/>
        <pt x="14" y="1277" on="1"/>
        <pt x="0" y="1348" on="1"/>
        <pt x="14" y="1363" on="1"/>
        <pt x="0" y="1363" on="1"/>
      </contour>
    </TTGlyph>
    <TTGlyph name="W" xMin="0" yMin="-89" xMax="719" yMax="1449">
      <contour>
        <pt x="274" y="1449" on="1"/>
        <pt x="359" y="1449" on="1"/>
        <pt x="376" y="1388" on="1"/>
        <pt x="342" y="1236" on="1"/>
        <pt x="376" y="1236" on="0"/>
        <pt x="376" y="1190" on="1"/>
        <pt x="359" y="1175" on="1"/>
        <pt x="428" y="840" on="1"/>
        <pt x="411" y="794" on="1"/>
        <pt x="462" y="489" on="1"/>
        <pt x="479" y="489" on="1"/>
        <pt x="479" y="642" on="1"/>
        <pt x="462" y="657" on="1"/>
        <pt x="479" y="672" on="1"/>
        <pt x="462" y="687" on="1"/>
        <pt x="479" y="703" on="1"/>
        <pt x="462" y="703" on="1"/>
        <pt x="479" y="718" on="1"/>
        <pt x="462" y="870" on="1"/>
        <pt x="462" y="885" on="1"/>
        <pt x="582" y="1434" on="1"/>
        <pt x="667" y="1434" on="1"/>
        <pt x="667" y="1182" on="0"/>
        <pt x="616" y="1160" on="1"/>
        <pt x="633" y="1144" on="1"/>
        <pt x="633" y="1129" on="1"/>
        <pt x="599" y="1083" on="1"/>
        <pt x="616" y="977" on="1"/>
        <pt x="582" y="931" on="1"/>
        <pt x="616" y="764" on="1"/>
        <pt x="599" y="718" on="1"/>
        <pt x="633" y="672" on="1"/>
        <pt x="513" y="132" on="0"/>
        <pt x="513" y="-28" on="1"/>
        <pt x="530" y="-28" on="1"/>
        <pt x="530" y="-58" on="1"/>
        <pt x="496" y="-89" on="1"/>
        <pt x="428" y="-89" on="1"/>
        <pt x="364" y="169" on="0"/>
        <pt x="325" y="840" on="1"/>
        <pt x="308" y="840" on="1"/>
        <pt x="240" y="322" on="1"/>
        <pt x="257" y="63" on="1"/>
        <pt x="257" y="17" on="1"/>
        <pt x="240" y="2" on="1"/>
        <pt x="240" y="-13" on="1"/>
        <pt x="274" y="-43" on="1"/>
        <pt x="274" y="-74" on="1"/>
        <pt x="188" y="-89" on="1"/>
        <pt x="171" y="-89" on="1"/>
        <pt x="86" y="368" on="1"/>
        <pt x="103" y="535" on="1"/>
        <pt x="103" y="566" on="1"/>
        <pt x="0" y="1110" on="0"/>
        <pt x="0" y="1388" on="1"/>
        <pt x="34" y="1419" on="1"/>
        <pt x="137" y="1419" on="1"/>
        <pt x="137" y="1342" on="0"/>
        <pt x="171" y="1342" on="1"/>
        <pt x="161" y="1190" on="0"/>
        <pt x="120" y="1190" on="1"/>
        <pt x="154" y="1023" on="1"/>
        <pt x="137" y="885" on="1"/>
        <pt x="171" y="611" on="1"/>
        <pt x="188" y="611" on="1"/>
        <pt x="188" y="1167" on="0"/>
      </contour>
      <contour>
        <pt x="616" y="535" on="1"/>
        <pt x="650" y="535" on="1"/>
        <pt x="650" y="489" on="1"/>
        <pt x="616" y="489" on="1"/>
      </contour>
      <contour>
        <pt x="445" y="474" on="1"/>
        <pt x="445" y="352" on="1"/>
        <pt x="462" y="352" on="1"/>
        <pt x="462" y="474" on="1"/>
      </contour>
      <contour>
        <pt x="667" y="429" on="1"/>
        <pt x="719" y="429" on="1"/>
        <pt x="719" y="383" on="1"/>
        <pt x="667" y="383" on="1"/>
      </contour>
    </TTGlyph>
    <TTGlyph name="X" xMin="0" yMin="1" xMax="502" yMax="1427">
      <contour>
        <pt x="425" y="1427" on="1"/>
        <pt x="464" y="1427" on="1"/>
        <pt x="464" y="1359" on="0"/>
        <pt x="502" y="1359" on="1"/>
        <pt x="432" y="1260" on="0"/>
        <pt x="348" y="748" on="1"/>
        <pt x="425" y="307" on="1"/>
        <pt x="470" y="307" on="0"/>
        <pt x="502" y="35" on="1"/>
        <pt x="406" y="35" on="1"/>
        <pt x="372" y="35" on="0"/>
        <pt x="271" y="476" on="1"/>
        <pt x="251" y="527" on="1"/>
        <pt x="232" y="527" on="1"/>
        <pt x="58" y="1" on="1"/>
        <pt x="0" y="1" on="1"/>
        <pt x="0" y="69" on="1"/>
        <pt x="39" y="205" on="1"/>
        <pt x="19" y="205" on="1"/>
        <pt x="122" y="459" on="0"/>
        <pt x="174" y="765" on="1"/>
        <pt x="193" y="765" on="1"/>
        <pt x="39" y="1342" on="1"/>
        <pt x="39" y="1410" on="1"/>
        <pt x="97" y="1410" on="1"/>
        <pt x="155" y="1410" on="0"/>
        <pt x="251" y="918" on="1"/>
        <pt x="271" y="918" on="1"/>
        <pt x="271" y="1102" on="0"/>
        <pt x="367" y="1308" on="1"/>
        <pt x="393" y="1427" on="0"/>
      </contour>
    </TTGlyph>
    <TTGlyph name="Y" xMin="0" yMin="-25" xMax="627" yMax="1372">
      <contour>
        <pt x="0" y="1372" on="1"/>
        <pt x="48" y="1372" on="1"/>
        <pt x="91" y="1355" on="0"/>
        <pt x="273" y="954" on="1"/>
        <pt x="289" y="954" on="1"/>
        <pt x="389" y="1167" on="0"/>
        <pt x="578" y="1372" on="1"/>
        <pt x="610" y="1372" on="1"/>
        <pt x="627" y="1324" on="1"/>
        <pt x="321" y="843" on="0"/>
        <pt x="321" y="633" on="1"/>
        <pt x="337" y="617" on="1"/>
        <pt x="321" y="601" on="1"/>
        <pt x="337" y="601" on="1"/>
        <pt x="321" y="585" on="1"/>
        <pt x="321" y="360" on="1"/>
        <pt x="337" y="215" on="1"/>
        <pt x="289" y="71" on="1"/>
        <pt x="289" y="-25" on="1"/>
        <pt x="257" y="-25" on="1"/>
        <pt x="224" y="-18" on="0"/>
        <pt x="193" y="55" on="1"/>
        <pt x="209" y="55" on="1"/>
        <pt x="193" y="71" on="1"/>
        <pt x="193" y="87" on="1"/>
        <pt x="209" y="103" on="1"/>
        <pt x="209" y="119" on="1"/>
        <pt x="193" y="119" on="1"/>
        <pt x="209" y="135" on="1"/>
        <pt x="177" y="424" on="1"/>
        <pt x="177" y="440" on="1"/>
        <pt x="180" y="633" on="0"/>
        <pt x="209" y="633" on="1"/>
        <pt x="193" y="649" on="1"/>
        <pt x="193" y="665" on="1"/>
        <pt x="209" y="681" on="1"/>
        <pt x="193" y="697" on="1"/>
        <pt x="193" y="714" on="1"/>
        <pt x="225" y="842" on="1"/>
        <pt x="48" y="1065" on="0"/>
        <pt x="48" y="1212" on="1"/>
        <pt x="13" y="1212" on="0"/>
        <pt x="0" y="1356" on="1"/>
      </contour>
    </TTGlyph>
    <TTGlyph name="Z" xMin="-23" yMin="-48" xMax="729" yMax="1423">
      <contour>
        <pt x="121" y="1423" on="1"/>
        <pt x="137" y="1423" on="1"/>
        <pt x="201" y="1407" on="1"/>
        <pt x="313" y="1423" on="1"/>
        <pt x="585" y="1423" on="1"/>
        <pt x="633" y="1375" on="1"/>
        <pt x="569" y="1283" on="0"/>
        <pt x="553" y="1199" on="1"/>
        <pt x="489" y="1167" on="0"/>
        <pt x="489" y="1023" on="1"/>
        <pt x="420" y="951" on="0"/>
        <pt x="377" y="783" on="1"/>
        <pt x="393" y="783" on="1"/>
        <pt x="457" y="799" on="1"/>
        <pt x="521" y="767" on="1"/>
        <pt x="617" y="783" on="1"/>
        <pt x="729" y="767" on="0"/>
        <pt x="729" y="735" on="1"/>
        <pt x="729" y="703" on="1"/>
        <pt x="537" y="687" on="1"/>
        <pt x="377" y="687" on="1"/>
        <pt x="340" y="687" on="0"/>
        <pt x="169" y="191" on="1"/>
        <pt x="153" y="111" on="1"/>
        <pt x="249" y="47" on="1"/>
        <pt x="249" y="63" on="1"/>
        <pt x="265" y="47" on="1"/>
        <pt x="489" y="79" on="1"/>
        <pt x="569" y="59" on="0"/>
        <pt x="569" y="31" on="1"/>
        <pt x="569" y="0" on="1"/>
        <pt x="265" y="-32" on="1"/>
        <pt x="201" y="-16" on="1"/>
        <pt x="-7" y="-48" on="1"/>
        <pt x="-7" y="-32" on="1"/>
        <pt x="-23" y="15" on="1"/>
        <pt x="121" y="559" on="1"/>
        <pt x="155" y="655" on="0"/>
        <pt x="233" y="655" on="1"/>
        <pt x="233" y="687" on="1"/>
        <pt x="153" y="671" on="1"/>
        <pt x="105" y="671" on="1"/>
        <pt x="25" y="687" on="1"/>
        <pt x="25" y="767" on="1"/>
        <pt x="57" y="799" on="1"/>
        <pt x="233" y="799" on="1"/>
        <pt x="367" y="1311" on="0"/>
        <pt x="457" y="1311" on="1"/>
        <pt x="457" y="1327" on="1"/>
        <pt x="281" y="1327" on="1"/>
        <pt x="89" y="1327" on="0"/>
        <pt x="89" y="1391" on="1"/>
      </contour>
    </TTGlyph>
    <TTGlyph name="a" xMin="-30" yMin="-18" xMax="423" yMax="1487">
      <contour>
        <pt x="207" y="1487" on="1"/>
        <pt x="251" y="1487" on="1"/>
        <pt x="315" y="1470" on="0"/>
        <pt x="315" y="1382" on="1"/>
        <pt x="315" y="1365" on="1"/>
        <pt x="294" y="1347" on="1"/>
        <pt x="337" y="1225" on="1"/>
        <pt x="315" y="1225" on="1"/>
        <pt x="423" y="332" on="1"/>
        <pt x="402" y="315" on="1"/>
        <pt x="423" y="140" on="1"/>
        <pt x="423" y="-18" on="1"/>
        <pt x="315" y="-18" on="1"/>
        <pt x="280" y="280" on="0"/>
        <pt x="229" y="280" on="1"/>
        <pt x="143" y="280" on="1"/>
        <pt x="128" y="0" on="0"/>
        <pt x="78" y="0" on="1"/>
        <pt x="13" y="0" on="1"/>
        <pt x="-30" y="122" on="1"/>
        <pt x="-30" y="367" on="1"/>
        <pt x="-8" y="472" on="1"/>
        <pt x="-30" y="577" on="1"/>
        <pt x="78" y="1417" on="1"/>
        <pt x="164" y="1417" on="0"/>
        <pt x="164" y="1452" on="1"/>
      </contour>
      <contour>
        <pt x="186" y="1050" on="1"/>
        <pt x="164" y="945" on="1"/>
        <pt x="186" y="927" on="1"/>
        <pt x="186" y="910" on="1"/>
        <pt x="143" y="700" on="1"/>
        <pt x="143" y="420" on="1"/>
        <pt x="186" y="385" on="1"/>
        <pt x="251" y="385" on="1"/>
        <pt x="272" y="402" on="1"/>
        <pt x="294" y="402" on="1"/>
        <pt x="272" y="420" on="1"/>
        <pt x="272" y="752" on="1"/>
        <pt x="207" y="1050" on="1"/>
      </contour>
    </TTGlyph>
    <TTGlyph name="aacute" xMin="-14" yMin="-41" xMax="456" yMax="1809">
      <contour>
        <pt x="143" y="1449" on="1"/>
        <pt x="190" y="1449" on="1"/>
        <pt x="215" y="1449" on="0"/>
        <pt x="300" y="1166" on="1"/>
        <pt x="347" y="1166" on="1"/>
        <pt x="347" y="1135" on="1"/>
        <pt x="315" y="1104" on="1"/>
        <pt x="362" y="649" on="1"/>
        <pt x="394" y="649" on="1"/>
        <pt x="394" y="633" on="1"/>
        <pt x="409" y="445" on="1"/>
        <pt x="394" y="445" on="1"/>
        <pt x="456" y="335" on="1"/>
        <pt x="409" y="288" on="1"/>
        <pt x="409" y="163" on="1"/>
        <pt x="425" y="53" on="1"/>
        <pt x="394" y="53" on="0"/>
        <pt x="394" y="-9" on="1"/>
        <pt x="331" y="-41" on="1"/>
        <pt x="268" y="6" on="1"/>
        <pt x="268" y="273" on="1"/>
        <pt x="237" y="304" on="1"/>
        <pt x="127" y="304" on="1"/>
        <pt x="111" y="225" on="1"/>
        <pt x="111" y="37" on="1"/>
        <pt x="80" y="6" on="1"/>
        <pt x="33" y="6" on="1"/>
        <pt x="2" y="69" on="1"/>
        <pt x="2" y="116" on="1"/>
        <pt x="17" y="304" on="1"/>
        <pt x="-14" y="335" on="1"/>
        <pt x="-14" y="382" on="1"/>
        <pt x="17" y="414" on="0"/>
        <pt x="33" y="586" on="1"/>
        <pt x="17" y="649" on="1"/>
        <pt x="49" y="1308" on="1"/>
        <pt x="49" y="1370" on="1"/>
        <pt x="49" y="1402" on="0"/>
        <pt x="143" y="1402" on="1"/>
      </contour>
      <contour>
        <pt x="190" y="1151" on="1"/>
        <pt x="143" y="1041" on="1"/>
        <pt x="174" y="837" on="1"/>
        <pt x="143" y="429" on="1"/>
        <pt x="159" y="414" on="1"/>
        <pt x="268" y="414" on="1"/>
        <pt x="256" y="1151" on="0"/>
      </contour>
      <contour>
        <pt x="293" y="1809" on="1"/>
        <pt x="309" y="1809" on="1"/>
        <pt x="340" y="1779" on="1"/>
        <pt x="340" y="1720" on="1"/>
        <pt x="137" y="1526" on="1"/>
        <pt x="59" y="1526" on="1"/>
        <pt x="59" y="1601" on="1"/>
      </contour>
    </TTGlyph>
    <TTGlyph name="acircumflex" xMin="-15" yMin="-41" xMax="455" yMax="1778">
      <contour>
        <pt x="142" y="1449" on="1"/>
        <pt x="189" y="1449" on="1"/>
        <pt x="214" y="1449" on="0"/>
        <pt x="299" y="1166" on="1"/>
        <pt x="346" y="1166" on="1"/>
        <pt x="346" y="1135" on="1"/>
        <pt x="314" y="1104" on="1"/>
        <pt x="361" y="649" on="1"/>
        <pt x="393" y="649" on="1"/>
        <pt x="393" y="633" on="1"/>
        <pt x="408" y="445" on="1"/>
        <pt x="393" y="445" on="1"/>
        <pt x="455" y="335" on="1"/>
        <pt x="408" y="288" on="1"/>
        <pt x="408" y="163" on="1"/>
        <pt x="424" y="53" on="1"/>
        <pt x="393" y="53" on="0"/>
        <pt x="393" y="-9" on="1"/>
        <pt x="330" y="-41" on="1"/>
        <pt x="267" y="6" on="1"/>
        <pt x="267" y="273" on="1"/>
        <pt x="236" y="304" on="1"/>
        <pt x="126" y="304" on="1"/>
        <pt x="110" y="225" on="1"/>
        <pt x="110" y="37" on="1"/>
        <pt x="79" y="6" on="1"/>
        <pt x="32" y="6" on="1"/>
        <pt x="1" y="69" on="1"/>
        <pt x="1" y="116" on="1"/>
        <pt x="16" y="304" on="1"/>
        <pt x="-15" y="335" on="1"/>
        <pt x="-15" y="382" on="1"/>
        <pt x="16" y="414" on="0"/>
        <pt x="32" y="586" on="1"/>
        <pt x="16" y="649" on="1"/>
        <pt x="48" y="1308" on="1"/>
        <pt x="48" y="1370" on="1"/>
        <pt x="48" y="1402" on="0"/>
        <pt x="142" y="1402" on="1"/>
      </contour>
      <contour>
        <pt x="189" y="1151" on="1"/>
        <pt x="142" y="1041" on="1"/>
        <pt x="173" y="837" on="1"/>
        <pt x="142" y="429" on="1"/>
        <pt x="158" y="414" on="1"/>
        <pt x="267" y="414" on="1"/>
        <pt x="255" y="1151" on="0"/>
      </contour>
      <contour>
        <pt x="345" y="1484" on="1"/>
        <pt x="302" y="1483" on="1"/>
        <pt x="280" y="1491" on="1"/>
        <pt x="278" y="1508" on="1"/>
        <pt x="224" y="1659" on="1"/>
        <pt x="213" y="1659" on="1"/>
        <pt x="157" y="1501" on="0"/>
        <pt x="87" y="1499" on="1"/>
        <pt x="55" y="1499" on="1"/>
        <pt x="107" y="1657" on="0"/>
        <pt x="169" y="1747" on="1"/>
        <pt x="156" y="1759" on="1"/>
        <pt x="169" y="1777" on="0"/>
        <pt x="185" y="1777" on="1"/>
        <pt x="217" y="1778" on="1"/>
        <pt x="338" y="1611" on="1"/>
        <pt x="327" y="1607" on="1"/>
        <pt x="339" y="1602" on="1"/>
        <pt x="328" y="1602" on="1"/>
        <pt x="340" y="1598" on="1"/>
        <pt x="343" y="1577" on="1"/>
        <pt x="360" y="1531" on="1"/>
        <pt x="342" y="1505" on="1"/>
      </contour>
    </TTGlyph>
    <TTGlyph name="acute" xMin="0" yMin="1106" xMax="257" yMax="1489">
      <contour>
        <pt x="180" y="1484" on="1"/>
        <pt x="197" y="1489" on="1"/>
        <pt x="239" y="1466" on="1"/>
        <pt x="257" y="1400" on="1"/>
        <pt x="104" y="1129" on="1"/>
        <pt x="23" y="1106" on="1"/>
        <pt x="0" y="1187" on="1"/>
      </contour>
    </TTGlyph>
    <TTGlyph name="adieresis" xMin="-22" yMin="-29" xMax="496" yMax="1720">
      <contour>
        <pt x="101" y="1720" on="1"/>
        <pt x="187" y="1720" on="1"/>
        <pt x="202" y="1678" on="1"/>
        <pt x="187" y="1607" on="1"/>
        <pt x="187" y="1481" on="1"/>
        <pt x="144" y="1439" on="1"/>
        <pt x="115" y="1439" on="1"/>
        <pt x="72" y="1481" on="1"/>
      </contour>
      <contour>
        <pt x="274" y="1692" on="1"/>
        <pt x="317" y="1692" on="1"/>
        <pt x="360" y="1683" on="0"/>
        <pt x="360" y="1579" on="1"/>
        <pt x="360" y="1411" on="1"/>
        <pt x="346" y="1411" on="1"/>
        <pt x="259" y="1411" on="0"/>
        <pt x="259" y="1523" on="1"/>
        <pt x="259" y="1621" on="1"/>
      </contour>
      <contour>
        <pt x="165" y="1404" on="1"/>
        <pt x="223" y="1404" on="1"/>
        <pt x="266" y="1404" on="0"/>
        <pt x="266" y="1292" on="1"/>
        <pt x="295" y="1292" on="1"/>
        <pt x="295" y="1278" on="1"/>
        <pt x="354" y="364" on="0"/>
        <pt x="453" y="364" on="1"/>
        <pt x="496" y="322" on="1"/>
        <pt x="439" y="280" on="1"/>
        <pt x="453" y="265" on="1"/>
        <pt x="439" y="167" on="1"/>
        <pt x="453" y="-15" on="1"/>
        <pt x="439" y="-29" on="1"/>
        <pt x="395" y="-29" on="1"/>
        <pt x="323" y="280" on="1"/>
        <pt x="136" y="294" on="1"/>
        <pt x="122" y="280" on="1"/>
        <pt x="122" y="125" on="1"/>
        <pt x="79" y="-1" on="1"/>
        <pt x="36" y="-1" on="1"/>
        <pt x="21" y="97" on="1"/>
        <pt x="21" y="265" on="1"/>
        <pt x="36" y="280" on="1"/>
        <pt x="36" y="294" on="1"/>
        <pt x="-22" y="308" on="1"/>
        <pt x="-22" y="364" on="1"/>
        <pt x="36" y="364" on="0"/>
        <pt x="36" y="392" on="1"/>
        <pt x="36" y="1070" on="0"/>
      </contour>
      <contour>
        <pt x="194" y="1039" on="1"/>
        <pt x="136" y="713" on="0"/>
        <pt x="136" y="392" on="1"/>
        <pt x="151" y="378" on="1"/>
        <pt x="223" y="378" on="1"/>
        <pt x="329" y="378" on="0"/>
        <pt x="338" y="420" on="1"/>
        <pt x="338" y="434" on="1"/>
        <pt x="280" y="488" on="0"/>
        <pt x="280" y="617" on="1"/>
        <pt x="280" y="659" on="1"/>
        <pt x="208" y="659" on="0"/>
        <pt x="208" y="1039" on="1"/>
      </contour>
    </TTGlyph>
    <TTGlyph name="ae" xMin="-30" yMin="-26" xMax="668" yMax="1409">
      <contour>
        <pt x="557" y="-20" on="1"/>
        <pt x="541" y="-20" on="1"/>
        <pt x="428" y="6" on="1"/>
        <pt x="333" y="-25" on="1"/>
        <pt x="301" y="-26" on="1"/>
        <pt x="269" y="516" on="1"/>
        <pt x="267" y="575" on="1"/>
        <pt x="218" y="618" on="1"/>
        <pt x="107" y="615" on="0"/>
        <pt x="98" y="321" on="1"/>
        <pt x="100" y="248" on="1"/>
        <pt x="119" y="145" on="1"/>
        <pt x="25" y="62" on="0"/>
        <pt x="26" y="26" on="1"/>
        <pt x="-21" y="25" on="1"/>
        <pt x="-23" y="69" on="1"/>
        <pt x="-30" y="310" on="0"/>
        <pt x="120" y="1217" on="1"/>
        <pt x="149" y="1218" on="0"/>
        <pt x="147" y="1394" on="1"/>
        <pt x="147" y="1408" on="1"/>
        <pt x="163" y="1409" on="1"/>
        <pt x="421" y="1356" on="1"/>
        <pt x="485" y="1373" on="1"/>
        <pt x="614" y="1346" on="1"/>
        <pt x="616" y="1288" on="1"/>
        <pt x="584" y="1287" on="1"/>
        <pt x="392" y="1238" on="1"/>
        <pt x="376" y="1253" on="1"/>
        <pt x="381" y="1077" on="1"/>
        <pt x="354" y="914" on="1"/>
        <pt x="359" y="724" on="1"/>
        <pt x="552" y="728" on="1"/>
        <pt x="632" y="716" on="1"/>
        <pt x="634" y="657" on="1"/>
        <pt x="618" y="657" on="1"/>
        <pt x="410" y="644" on="0"/>
        <pt x="410" y="622" on="1"/>
        <pt x="411" y="593" on="1"/>
        <pt x="395" y="592" on="1"/>
        <pt x="413" y="520" on="1"/>
        <pt x="409" y="108" on="1"/>
        <pt x="426" y="94" on="1"/>
        <pt x="634" y="99" on="1"/>
        <pt x="667" y="71" on="1"/>
        <pt x="668" y="27" on="1"/>
        <pt x="615" y="25" on="0"/>
      </contour>
      <contour>
        <pt x="232" y="691" on="1"/>
        <pt x="247" y="736" on="1"/>
        <pt x="230" y="750" on="1"/>
        <pt x="220" y="1102" on="1"/>
        <pt x="164" y="1101" on="0"/>
        <pt x="135" y="704" on="1"/>
        <pt x="152" y="689" on="1"/>
      </contour>
    </TTGlyph>
    <TTGlyph name="agrave" xMin="-37" yMin="-41" xMax="428" yMax="1809">
      <contour>
        <pt x="273" y="1402" on="1"/>
        <pt x="366" y="1402" on="0"/>
        <pt x="366" y="1370" on="1"/>
        <pt x="366" y="1308" on="1"/>
        <pt x="397" y="649" on="1"/>
        <pt x="382" y="586" on="1"/>
        <pt x="397" y="414" on="0"/>
        <pt x="428" y="382" on="1"/>
        <pt x="428" y="335" on="1"/>
        <pt x="397" y="304" on="1"/>
        <pt x="412" y="116" on="1"/>
        <pt x="412" y="69" on="1"/>
        <pt x="382" y="6" on="1"/>
        <pt x="335" y="6" on="1"/>
        <pt x="304" y="37" on="1"/>
        <pt x="304" y="225" on="1"/>
        <pt x="289" y="304" on="1"/>
        <pt x="180" y="304" on="1"/>
        <pt x="149" y="273" on="1"/>
        <pt x="149" y="6" on="1"/>
        <pt x="87" y="-41" on="1"/>
        <pt x="24" y="-9" on="1"/>
        <pt x="24" y="53" on="0"/>
        <pt x="-6" y="53" on="1"/>
        <pt x="10" y="163" on="1"/>
        <pt x="10" y="288" on="1"/>
        <pt x="-37" y="335" on="1"/>
        <pt x="24" y="445" on="1"/>
        <pt x="10" y="445" on="1"/>
        <pt x="24" y="633" on="1"/>
        <pt x="24" y="649" on="1"/>
        <pt x="56" y="649" on="1"/>
        <pt x="103" y="1104" on="1"/>
        <pt x="71" y="1135" on="1"/>
        <pt x="71" y="1166" on="1"/>
        <pt x="117" y="1166" on="1"/>
        <pt x="201" y="1449" on="0"/>
        <pt x="226" y="1449" on="1"/>
        <pt x="273" y="1449" on="1"/>
      </contour>
      <contour>
        <pt x="161" y="1151" on="0"/>
        <pt x="149" y="414" on="1"/>
        <pt x="257" y="414" on="1"/>
        <pt x="273" y="429" on="1"/>
        <pt x="242" y="837" on="1"/>
        <pt x="273" y="1041" on="1"/>
        <pt x="226" y="1151" on="1"/>
      </contour>
      <contour>
        <pt x="356" y="1601" on="1"/>
        <pt x="356" y="1526" on="1"/>
        <pt x="279" y="1526" on="1"/>
        <pt x="78" y="1720" on="1"/>
        <pt x="78" y="1779" on="1"/>
        <pt x="108" y="1809" on="1"/>
        <pt x="124" y="1809" on="1"/>
      </contour>
    </TTGlyph>
    <TTGlyph name="ampersand" xMin="14" yMin="-88" xMax="653" yMax="1477">
      <contour>
        <pt x="151" y="1475" on="1"/>
        <pt x="256" y="1476" on="1"/>
        <pt x="396" y="1477" on="0"/>
        <pt x="499" y="1339" on="1"/>
        <pt x="503" y="980" on="0"/>
        <pt x="333" y="608" on="1"/>
        <pt x="439" y="386" on="0"/>
        <pt x="441" y="140" on="1"/>
        <pt x="442" y="2" on="0"/>
        <pt x="339" y="-87" on="1"/>
        <pt x="200" y="-88" on="1"/>
        <pt x="60" y="84" on="1"/>
        <pt x="59" y="229" on="0"/>
        <pt x="194" y="589" on="1"/>
        <pt x="15" y="1161" on="1"/>
        <pt x="14" y="1265" on="1"/>
        <pt x="49" y="1305" on="0"/>
        <pt x="48" y="1387" on="1"/>
      </contour>
      <contour>
        <pt x="139" y="1129" on="1"/>
        <pt x="139" y="1111" on="1"/>
        <pt x="139" y="1043" on="0"/>
        <pt x="263" y="765" on="1"/>
        <pt x="263" y="747" on="1"/>
        <pt x="281" y="748" on="1"/>
        <pt x="383" y="1043" on="0"/>
        <pt x="382" y="1166" on="1"/>
        <pt x="364" y="1184" on="1"/>
        <pt x="364" y="1200" on="1"/>
        <pt x="382" y="1200" on="1"/>
        <pt x="332" y="1319" on="0"/>
        <pt x="258" y="1356" on="1"/>
        <pt x="224" y="1355" on="1"/>
        <pt x="182" y="1355" on="0"/>
      </contour>
      <contour>
        <pt x="265" y="433" on="1"/>
        <pt x="180" y="171" on="1"/>
        <pt x="234" y="33" on="1"/>
        <pt x="355" y="93" on="0"/>
        <pt x="355" y="121" on="1"/>
        <pt x="354" y="191" on="1"/>
        <pt x="299" y="434" on="0"/>
      </contour>
      <contour>
        <pt x="653" y="20" on="1"/>
        <pt x="651" y="-1" on="1"/>
        <pt x="604" y="-11" on="1"/>
        <pt x="513" y="48" on="1"/>
        <pt x="243" y="509" on="1"/>
        <pt x="251" y="611" on="1"/>
        <pt x="363" y="536" on="1"/>
      </contour>
      <contour>
        <pt x="474" y="602" on="1"/>
        <pt x="488" y="604" on="1"/>
        <pt x="531" y="584" on="1"/>
        <pt x="567" y="533" on="1"/>
        <pt x="507" y="339" on="1"/>
        <pt x="441" y="328" on="1"/>
        <pt x="398" y="391" on="1"/>
      </contour>
    </TTGlyph>
    <TTGlyph name="aring" xMin="1" yMin="-37" xMax="460" yMax="1817">
      <contour>
        <pt x="156" y="1407" on="1"/>
        <pt x="201" y="1407" on="1"/>
        <pt x="225" y="1407" on="0"/>
        <pt x="308" y="1134" on="1"/>
        <pt x="353" y="1134" on="1"/>
        <pt x="353" y="1103" on="1"/>
        <pt x="323" y="1073" on="1"/>
        <pt x="369" y="632" on="1"/>
        <pt x="399" y="632" on="1"/>
        <pt x="399" y="617" on="1"/>
        <pt x="414" y="434" on="1"/>
        <pt x="399" y="434" on="1"/>
        <pt x="460" y="328" on="1"/>
        <pt x="414" y="282" on="1"/>
        <pt x="414" y="161" on="1"/>
        <pt x="429" y="54" on="1"/>
        <pt x="399" y="54" on="0"/>
        <pt x="399" y="-6" on="1"/>
        <pt x="338" y="-37" on="1"/>
        <pt x="277" y="9" on="1"/>
        <pt x="277" y="267" on="1"/>
        <pt x="247" y="298" on="1"/>
        <pt x="141" y="298" on="1"/>
        <pt x="125" y="221" on="1"/>
        <pt x="125" y="39" on="1"/>
        <pt x="95" y="9" on="1"/>
        <pt x="49" y="9" on="1"/>
        <pt x="19" y="69" on="1"/>
        <pt x="19" y="115" on="1"/>
        <pt x="34" y="298" on="1"/>
        <pt x="4" y="328" on="1"/>
        <pt x="4" y="374" on="1"/>
        <pt x="34" y="404" on="0"/>
        <pt x="49" y="571" on="1"/>
        <pt x="34" y="632" on="1"/>
        <pt x="65" y="1271" on="1"/>
        <pt x="65" y="1331" on="1"/>
        <pt x="65" y="1362" on="0"/>
        <pt x="156" y="1362" on="1"/>
      </contour>
      <contour>
        <pt x="201" y="1119" on="1"/>
        <pt x="156" y="1012" on="1"/>
        <pt x="186" y="814" on="1"/>
        <pt x="156" y="419" on="1"/>
        <pt x="171" y="404" on="1"/>
        <pt x="277" y="404" on="1"/>
        <pt x="265" y="1119" on="0"/>
      </contour>
      <contour>
        <pt x="147" y="1817" on="1"/>
        <pt x="312" y="1801" on="0"/>
        <pt x="312" y="1708" on="1"/>
        <pt x="322" y="1679" on="1"/>
        <pt x="322" y="1619" on="1"/>
        <pt x="294" y="1503" on="0"/>
        <pt x="195" y="1452" on="1"/>
        <pt x="157" y="1452" on="1"/>
        <pt x="1" y="1452" on="0"/>
        <pt x="1" y="1600" on="1"/>
        <pt x="1" y="1718" on="1"/>
        <pt x="1" y="1766" on="0"/>
        <pt x="137" y="1817" on="1"/>
      </contour>
      <contour>
        <pt x="69" y="1590" on="1"/>
        <pt x="127" y="1531" on="1"/>
        <pt x="147" y="1531" on="1"/>
        <pt x="231" y="1531" on="0"/>
        <pt x="244" y="1639" on="1"/>
        <pt x="244" y="1675" on="0"/>
        <pt x="195" y="1728" on="1"/>
        <pt x="69" y="1728" on="0"/>
        <pt x="69" y="1610" on="1"/>
      </contour>
    </TTGlyph>
    <TTGlyph name="asciicircum" xMin="-22" yMin="941" xMax="387" yMax="1459">
      <contour>
        <pt x="361" y="941" on="1"/>
        <pt x="304" y="941" on="1"/>
        <pt x="276" y="956" on="1"/>
        <pt x="275" y="985" on="1"/>
        <pt x="224" y="1252" on="1"/>
        <pt x="210" y="1252" on="1"/>
        <pt x="114" y="976" on="0"/>
        <pt x="20" y="976" on="1"/>
        <pt x="-22" y="975" on="1"/>
        <pt x="68" y="1251" on="0"/>
        <pt x="163" y="1407" on="1"/>
        <pt x="147" y="1429" on="1"/>
        <pt x="168" y="1459" on="0"/>
        <pt x="189" y="1459" on="1"/>
        <pt x="232" y="1459" on="1"/>
        <pt x="368" y="1164" on="1"/>
        <pt x="354" y="1157" on="1"/>
        <pt x="369" y="1149" on="1"/>
        <pt x="354" y="1149" on="1"/>
        <pt x="369" y="1142" on="1"/>
        <pt x="370" y="1105" on="1"/>
        <pt x="387" y="1023" on="1"/>
        <pt x="360" y="978" on="1"/>
      </contour>
    </TTGlyph>
    <TTGlyph name="asciitilde" xMin="-7" yMin="608" xMax="876" yMax="1042">
      <contour>
        <pt x="876" y="952" on="1"/>
        <pt x="847" y="876" on="1"/>
        <pt x="703" y="608" on="0"/>
        <pt x="508" y="684" on="1"/>
        <pt x="431" y="714" on="1"/>
        <pt x="368" y="826" on="0"/>
        <pt x="282" y="859" on="1"/>
        <pt x="122" y="745" on="0"/>
        <pt x="19" y="785" on="1"/>
        <pt x="-7" y="795" on="1"/>
        <pt x="52" y="948" on="1"/>
        <pt x="265" y="1042" on="1"/>
        <pt x="342" y="1013" on="1"/>
        <pt x="555" y="906" on="0"/>
        <pt x="542" y="847" on="1"/>
        <pt x="620" y="817" on="0"/>
        <pt x="774" y="992" on="1"/>
      </contour>
    </TTGlyph>
    <TTGlyph name="asterisk" xMin="-37" yMin="625" xMax="621" yMax="1362">
      <contour>
        <pt x="465" y="625" on="1"/>
        <pt x="391" y="635" on="1"/>
        <pt x="292" y="870" on="1"/>
        <pt x="280" y="877" on="1"/>
        <pt x="130" y="729" on="0"/>
        <pt x="76" y="765" on="1"/>
        <pt x="40" y="788" on="1"/>
        <pt x="28" y="833" on="1"/>
        <pt x="35" y="848" on="1"/>
        <pt x="66" y="919" on="0"/>
        <pt x="196" y="970" on="1"/>
        <pt x="118" y="1039" on="1"/>
        <pt x="-14" y="1125" on="1"/>
        <pt x="-25" y="1171" on="1"/>
        <pt x="-7" y="1177" on="1"/>
        <pt x="0" y="1192" on="1"/>
        <pt x="-37" y="1216" on="1"/>
        <pt x="-17" y="1260" on="1"/>
        <pt x="151" y="1150" on="1"/>
        <pt x="170" y="1157" on="1"/>
        <pt x="176" y="1134" on="1"/>
        <pt x="236" y="1095" on="1"/>
        <pt x="268" y="1169" on="0"/>
        <pt x="241" y="1319" on="1"/>
        <pt x="254" y="1348" on="1"/>
        <pt x="291" y="1362" on="1"/>
        <pt x="379" y="1245" on="0"/>
        <pt x="367" y="1218" on="1"/>
        <pt x="351" y="1086" on="0"/>
        <pt x="376" y="1061" on="1"/>
        <pt x="481" y="1087" on="1"/>
        <pt x="469" y="1095" on="1"/>
        <pt x="519" y="1157" on="0"/>
        <pt x="621" y="1090" on="1"/>
        <pt x="601" y="1009" on="1"/>
        <pt x="584" y="970" on="0"/>
        <pt x="398" y="933" on="1"/>
        <pt x="491" y="686" on="0"/>
        <pt x="471" y="640" on="1"/>
      </contour>
    </TTGlyph>
    <TTGlyph name="at" xMin="0" yMin="11" xMax="908" yMax="1382">
      <contour>
        <pt x="380" y="1382" on="1"/>
        <pt x="528" y="1382" on="1"/>
        <pt x="814" y="1382" on="0"/>
        <pt x="887" y="1170" on="1"/>
        <pt x="866" y="1150" on="1"/>
        <pt x="866" y="1131" on="1"/>
        <pt x="908" y="687" on="1"/>
        <pt x="866" y="590" on="1"/>
        <pt x="887" y="474" on="1"/>
        <pt x="803" y="469" on="0"/>
        <pt x="803" y="397" on="1"/>
        <pt x="718" y="378" on="1"/>
        <pt x="549" y="494" on="1"/>
        <pt x="465" y="436" on="1"/>
        <pt x="380" y="436" on="1"/>
        <pt x="275" y="564" on="0"/>
        <pt x="275" y="745" on="1"/>
        <pt x="359" y="1034" on="1"/>
        <pt x="507" y="1034" on="1"/>
        <pt x="582" y="1034" on="0"/>
        <pt x="676" y="764" on="1"/>
        <pt x="634" y="687" on="1"/>
        <pt x="676" y="590" on="1"/>
        <pt x="697" y="590" on="1"/>
        <pt x="739" y="764" on="1"/>
        <pt x="739" y="919" on="1"/>
        <pt x="760" y="938" on="1"/>
        <pt x="661" y="1247" on="0"/>
        <pt x="465" y="1247" on="1"/>
        <pt x="292" y="1247" on="0"/>
        <pt x="190" y="822" on="1"/>
        <pt x="190" y="331" on="0"/>
        <pt x="570" y="88" on="1"/>
        <pt x="634" y="88" on="1"/>
        <pt x="634" y="11" on="1"/>
        <pt x="613" y="11" on="1"/>
        <pt x="231" y="11" on="0"/>
        <pt x="106" y="378" on="1"/>
        <pt x="51" y="378" on="0"/>
        <pt x="0" y="745" on="1"/>
        <pt x="106" y="1363" on="0"/>
        <pt x="317" y="1363" on="1"/>
      </contour>
      <contour>
        <pt x="422" y="783" on="1"/>
        <pt x="422" y="648" on="1"/>
        <pt x="486" y="706" on="1"/>
        <pt x="486" y="841" on="1"/>
      </contour>
    </TTGlyph>
    <TTGlyph name="atilde" xMin="-16" yMin="4" xMax="402" yMax="1704">
      <contour>
        <pt x="335" y="1704" on="1"/>
        <pt x="389" y="1704" on="1"/>
        <pt x="402" y="1637" on="1"/>
        <pt x="346" y="1542" on="0"/>
        <pt x="321" y="1542" on="1"/>
        <pt x="267" y="1542" on="1"/>
        <pt x="222" y="1542" on="0"/>
        <pt x="173" y="1583" on="1"/>
        <pt x="132" y="1583" on="1"/>
        <pt x="65" y="1502" on="1"/>
        <pt x="78" y="1488" on="1"/>
        <pt x="51" y="1488" on="1"/>
        <pt x="-16" y="1511" on="0"/>
        <pt x="-16" y="1556" on="1"/>
        <pt x="51" y="1677" on="1"/>
        <pt x="173" y="1677" on="1"/>
        <pt x="308" y="1637" on="1"/>
      </contour>
      <contour>
        <pt x="146" y="1434" on="1"/>
        <pt x="173" y="1434" on="1"/>
        <pt x="267" y="1353" on="0"/>
        <pt x="267" y="1259" on="1"/>
        <pt x="281" y="1259" on="1"/>
        <pt x="267" y="1137" on="1"/>
        <pt x="327" y="328" on="0"/>
        <pt x="389" y="328" on="1"/>
        <pt x="389" y="301" on="1"/>
        <pt x="389" y="274" on="0"/>
        <pt x="348" y="274" on="1"/>
        <pt x="348" y="260" on="1"/>
        <pt x="362" y="85" on="1"/>
        <pt x="348" y="4" on="1"/>
        <pt x="321" y="4" on="1"/>
        <pt x="300" y="4" on="0"/>
        <pt x="254" y="98" on="1"/>
        <pt x="254" y="247" on="1"/>
        <pt x="227" y="274" on="1"/>
        <pt x="132" y="274" on="1"/>
        <pt x="92" y="274" on="0"/>
        <pt x="84" y="39" on="1"/>
        <pt x="21" y="61" on="1"/>
        <pt x="8" y="296" on="1"/>
        <pt x="54" y="713" on="1"/>
        <pt x="51" y="706" on="0"/>
        <pt x="51" y="746" on="1"/>
      </contour>
      <contour>
        <pt x="173" y="935" on="1"/>
        <pt x="173" y="921" on="1"/>
        <pt x="186" y="908" on="1"/>
        <pt x="186" y="894" on="1"/>
        <pt x="132" y="611" on="1"/>
        <pt x="132" y="368" on="1"/>
        <pt x="200" y="355" on="1"/>
        <pt x="227" y="355" on="1"/>
        <pt x="254" y="382" on="1"/>
        <pt x="227" y="598" on="1"/>
        <pt x="240" y="598" on="1"/>
        <pt x="186" y="935" on="1"/>
      </contour>
    </TTGlyph>
    <TTGlyph name="b" xMin="-172" yMin="-19" xMax="929" yMax="1742">
      <contour>
        <pt x="727" y="1742" on="1"/>
        <pt x="745" y="1724" on="1"/>
        <pt x="745" y="1705" on="1"/>
        <pt x="690" y="1705" on="1"/>
      </contour>
      <contour>
        <pt x="177" y="1595" on="1"/>
        <pt x="232" y="1595" on="1"/>
        <pt x="232" y="1393" on="0"/>
        <pt x="360" y="1393" on="1"/>
        <pt x="788" y="1393" on="0"/>
        <pt x="929" y="1173" on="1"/>
        <pt x="929" y="1063" on="1"/>
        <pt x="929" y="842" on="0"/>
        <pt x="617" y="550" on="1"/>
        <pt x="433" y="467" on="0"/>
        <pt x="433" y="440" on="1"/>
        <pt x="617" y="342" on="0"/>
        <pt x="617" y="238" on="1"/>
        <pt x="617" y="164" on="1"/>
        <pt x="589" y="36" on="0"/>
        <pt x="415" y="36" on="1"/>
        <pt x="349" y="-19" on="0"/>
        <pt x="232" y="-19" on="1"/>
        <pt x="158" y="-19" on="1"/>
        <pt x="103" y="36" on="1"/>
        <pt x="103" y="54" on="1"/>
        <pt x="122" y="73" on="1"/>
        <pt x="122" y="91" on="1"/>
        <pt x="42" y="91" on="0"/>
        <pt x="11" y="385" on="1"/>
        <pt x="-80" y="403" on="1"/>
        <pt x="-80" y="385" on="1"/>
        <pt x="-172" y="403" on="1"/>
        <pt x="-172" y="440" on="1"/>
        <pt x="-135" y="476" on="1"/>
        <pt x="-61" y="458" on="1"/>
        <pt x="30" y="458" on="0"/>
        <pt x="30" y="733" on="1"/>
        <pt x="11" y="751" on="1"/>
        <pt x="11" y="770" on="1"/>
        <pt x="48" y="917" on="1"/>
        <pt x="48" y="1173" on="1"/>
        <pt x="66" y="1265" on="1"/>
        <pt x="30" y="1265" on="1"/>
        <pt x="30" y="1283" on="1"/>
        <pt x="11" y="1265" on="1"/>
        <pt x="-25" y="1265" on="1"/>
        <pt x="-80" y="1320" on="1"/>
        <pt x="-80" y="1338" on="1"/>
        <pt x="-80" y="1375" on="0"/>
        <pt x="66" y="1375" on="1"/>
        <pt x="103" y="1412" on="1"/>
        <pt x="85" y="1430" on="1"/>
        <pt x="85" y="1449" on="1"/>
        <pt x="134" y="1587" on="0"/>
      </contour>
      <contour>
        <pt x="232" y="1283" on="1"/>
        <pt x="177" y="953" on="1"/>
        <pt x="177" y="660" on="1"/>
        <pt x="195" y="531" on="1"/>
        <pt x="250" y="531" on="1"/>
        <pt x="426" y="616" on="0"/>
        <pt x="672" y="898" on="1"/>
        <pt x="764" y="898" on="0"/>
        <pt x="764" y="1045" on="1"/>
        <pt x="782" y="1100" on="1"/>
        <pt x="782" y="1228" on="0"/>
        <pt x="525" y="1228" on="1"/>
        <pt x="525" y="1271" on="0"/>
      </contour>
      <contour>
        <pt x="213" y="348" on="1"/>
        <pt x="195" y="275" on="1"/>
        <pt x="220" y="146" on="0"/>
        <pt x="250" y="146" on="1"/>
        <pt x="268" y="146" on="1"/>
        <pt x="470" y="193" on="0"/>
        <pt x="470" y="256" on="1"/>
        <pt x="470" y="275" on="1"/>
      </contour>
    </TTGlyph>
    <TTGlyph name="backslash" xMin="-53" yMin="-80" xMax="448" yMax="1476">
      <contour>
        <pt x="8" y="1446" on="1"/>
        <pt x="70" y="1476" on="1"/>
        <pt x="93" y="1429" on="1"/>
        <pt x="122" y="1288" on="1"/>
        <pt x="160" y="1248" on="1"/>
        <pt x="128" y="1233" on="0"/>
        <pt x="245" y="826" on="1"/>
        <pt x="283" y="463" on="0"/>
        <pt x="434" y="66" on="1"/>
        <pt x="426" y="43" on="1"/>
        <pt x="448" y="-4" on="0"/>
        <pt x="401" y="-26" on="1"/>
        <pt x="416" y="-58" on="1"/>
        <pt x="369" y="-80" on="1"/>
        <pt x="279" y="108" on="1"/>
        <pt x="170" y="447" on="0"/>
        <pt x="115" y="937" on="1"/>
        <pt x="92" y="984" on="1"/>
        <pt x="77" y="977" on="1"/>
        <pt x="125" y="807" on="0"/>
        <pt x="-12" y="1204" on="0"/>
        <pt x="40" y="1094" on="1"/>
        <pt x="56" y="1102" on="1"/>
        <pt x="49" y="1157" on="1"/>
        <pt x="26" y="1165" on="1"/>
        <pt x="-53" y="1398" on="0"/>
        <pt x="15" y="1430" on="1"/>
      </contour>
    </TTGlyph>
    <TTGlyph name="bar" xMin="0" yMin="-63" xMax="176" yMax="1405">
      <contour>
        <pt x="16" y="1405" on="1"/>
        <pt x="64" y="1405" on="1"/>
        <pt x="64" y="1373" on="1"/>
        <pt x="80" y="1373" on="1"/>
        <pt x="80" y="1405" on="1"/>
        <pt x="160" y="1405" on="1"/>
        <pt x="144" y="815" on="1"/>
        <pt x="144" y="559" on="1"/>
        <pt x="176" y="256" on="1"/>
        <pt x="176" y="17" on="1"/>
        <pt x="112" y="17" on="0"/>
        <pt x="112" y="-15" on="1"/>
        <pt x="112" y="-63" on="1"/>
        <pt x="48" y="-63" on="1"/>
        <pt x="32" y="113" on="1"/>
        <pt x="48" y="208" on="1"/>
        <pt x="0" y="416" on="1"/>
        <pt x="16" y="480" on="1"/>
        <pt x="0" y="543" on="1"/>
        <pt x="16" y="926" on="1"/>
      </contour>
    </TTGlyph>
    <TTGlyph name="braceleft" xMin="0" yMin="-41" xMax="524" yMax="1457">
      <contour>
        <pt x="512" y="1457" on="1"/>
        <pt x="524" y="1443" on="1"/>
        <pt x="524" y="1375" on="1"/>
        <pt x="344" y="1375" on="0"/>
        <pt x="322" y="1225" on="1"/>
        <pt x="310" y="1211" on="1"/>
        <pt x="310" y="1198" on="1"/>
        <pt x="345" y="1062" on="1"/>
        <pt x="333" y="942" on="0"/>
        <pt x="310" y="912" on="1"/>
        <pt x="322" y="912" on="1"/>
        <pt x="286" y="813" on="0"/>
        <pt x="238" y="789" on="1"/>
        <pt x="238" y="735" on="0"/>
        <pt x="143" y="735" on="1"/>
        <pt x="143" y="721" on="1"/>
        <pt x="345" y="574" on="0"/>
        <pt x="345" y="517" on="1"/>
        <pt x="345" y="286" on="0"/>
        <pt x="298" y="286" on="1"/>
        <pt x="310" y="272" on="1"/>
        <pt x="310" y="259" on="1"/>
        <pt x="298" y="218" on="1"/>
        <pt x="310" y="204" on="1"/>
        <pt x="349" y="82" on="0"/>
        <pt x="417" y="82" on="1"/>
        <pt x="464" y="41" on="1"/>
        <pt x="476" y="27" on="1"/>
        <pt x="476" y="-41" on="1"/>
        <pt x="441" y="-41" on="1"/>
        <pt x="341" y="-41" on="0"/>
        <pt x="214" y="150" on="1"/>
        <pt x="202" y="190" on="1"/>
        <pt x="262" y="476" on="1"/>
        <pt x="258" y="525" on="0"/>
        <pt x="0" y="708" on="1"/>
        <pt x="0" y="749" on="1"/>
        <pt x="250" y="917" on="0"/>
        <pt x="250" y="1007" on="1"/>
        <pt x="250" y="1034" on="1"/>
        <pt x="226" y="1184" on="1"/>
        <pt x="226" y="1211" on="1"/>
        <pt x="226" y="1294" on="0"/>
        <pt x="286" y="1334" on="1"/>
        <pt x="286" y="1443" on="0"/>
        <pt x="405" y="1443" on="1"/>
      </contour>
    </TTGlyph>
    <TTGlyph name="braceright" xMin="0" yMin="-49" xMax="555" yMax="1509">
      <contour>
        <pt x="65" y="-49" on="1"/>
        <pt x="55" y="26" on="1"/>
        <pt x="51" y="59" on="0"/>
        <pt x="185" y="121" on="1"/>
        <pt x="234" y="159" on="1"/>
        <pt x="261" y="224" on="1"/>
        <pt x="241" y="237" on="1"/>
        <pt x="239" y="252" on="1"/>
        <pt x="255" y="270" on="1"/>
        <pt x="227" y="344" on="1"/>
        <pt x="216" y="420" on="1"/>
        <pt x="181" y="415" on="1"/>
        <pt x="177" y="445" on="1"/>
        <pt x="212" y="450" on="1"/>
        <pt x="210" y="465" on="1"/>
        <pt x="166" y="459" on="0"/>
        <pt x="149" y="519" on="1"/>
        <pt x="196" y="525" on="0"/>
        <pt x="260" y="627" on="1"/>
        <pt x="342" y="684" on="1"/>
        <pt x="344" y="669" on="1"/>
        <pt x="394" y="691" on="1"/>
        <pt x="143" y="827" on="1"/>
        <pt x="107" y="962" on="1"/>
        <pt x="140" y="1070" on="0"/>
        <pt x="223" y="1163" on="1"/>
        <pt x="213" y="1239" on="1"/>
        <pt x="131" y="1285" on="0"/>
        <pt x="106" y="1364" on="1"/>
        <pt x="13" y="1391" on="0"/>
        <pt x="0" y="1489" on="1"/>
        <pt x="18" y="1491" on="1"/>
        <pt x="33" y="1509" on="1"/>
        <pt x="312" y="1435" on="0"/>
        <pt x="342" y="1210" on="1"/>
        <pt x="310" y="1051" on="0"/>
        <pt x="252" y="950" on="1"/>
        <pt x="254" y="935" on="1"/>
        <pt x="308" y="834" on="0"/>
        <pt x="409" y="848" on="1"/>
        <pt x="472" y="856" on="0"/>
        <pt x="555" y="697" on="1"/>
        <pt x="366" y="502" on="1"/>
        <pt x="355" y="454" on="1"/>
        <pt x="372" y="456" on="1"/>
        <pt x="346" y="413" on="0"/>
        <pt x="365" y="115" on="1"/>
        <pt x="272" y="9" on="1"/>
        <pt x="252" y="22" on="1"/>
        <pt x="235" y="20" on="1"/>
        <pt x="151" y="-38" on="0"/>
      </contour>
    </TTGlyph>
    <TTGlyph name="bracketleft" xMin="5" yMin="-71" xMax="379" yMax="1454">
      <contour>
        <pt x="34" y="1454" on="1"/>
        <pt x="264" y="1454" on="1"/>
        <pt x="336" y="1440" on="1"/>
        <pt x="336" y="1383" on="1"/>
        <pt x="307" y="1354" on="1"/>
        <pt x="221" y="1354" on="1"/>
        <pt x="206" y="1368" on="1"/>
        <pt x="149" y="1359" on="0"/>
        <pt x="149" y="1267" on="1"/>
        <pt x="163" y="1195" on="1"/>
        <pt x="149" y="1066" on="1"/>
        <pt x="149" y="965" on="1"/>
        <pt x="163" y="850" on="1"/>
        <pt x="135" y="717" on="0"/>
        <pt x="120" y="145" on="1"/>
        <pt x="135" y="15" on="0"/>
        <pt x="178" y="15" on="1"/>
        <pt x="379" y="15" on="1"/>
        <pt x="379" y="-56" on="1"/>
        <pt x="278" y="-71" on="1"/>
        <pt x="77" y="-71" on="1"/>
        <pt x="19" y="-42" on="1"/>
        <pt x="19" y="1" on="1"/>
        <pt x="34" y="15" on="1"/>
        <pt x="19" y="30" on="1"/>
        <pt x="19" y="591" on="1"/>
        <pt x="5" y="850" on="1"/>
        <pt x="63" y="1354" on="1"/>
        <pt x="34" y="1440" on="1"/>
      </contour>
    </TTGlyph>
    <TTGlyph name="bracketright" xMin="-32" yMin="-51" xMax="363" yMax="1482">
      <contour>
        <pt x="348" y="-46" on="1"/>
        <pt x="117" y="-51" on="1"/>
        <pt x="44" y="-39" on="1"/>
        <pt x="43" y="19" on="1"/>
        <pt x="71" y="48" on="1"/>
        <pt x="158" y="50" on="1"/>
        <pt x="173" y="36" on="1"/>
        <pt x="230" y="46" on="0"/>
        <pt x="228" y="138" on="1"/>
        <pt x="212" y="210" on="1"/>
        <pt x="224" y="340" on="1"/>
        <pt x="221" y="441" on="1"/>
        <pt x="205" y="556" on="1"/>
        <pt x="230" y="691" on="0"/>
        <pt x="232" y="1264" on="1"/>
        <pt x="215" y="1394" on="0"/>
        <pt x="172" y="1393" on="1"/>
        <pt x="-30" y="1389" on="1"/>
        <pt x="-32" y="1461" on="1"/>
        <pt x="69" y="1477" on="1"/>
        <pt x="271" y="1482" on="1"/>
        <pt x="329" y="1454" on="1"/>
        <pt x="330" y="1411" on="1"/>
        <pt x="316" y="1396" on="1"/>
        <pt x="331" y="1382" on="1"/>
        <pt x="343" y="819" on="1"/>
        <pt x="363" y="560" on="1"/>
        <pt x="317" y="54" on="1"/>
        <pt x="347" y="-32" on="1"/>
      </contour>
    </TTGlyph>
    <TTGlyph name="c" xMin="0" yMin="5" xMax="970" yMax="1419">
      <contour>
        <pt x="444" y="1419" on="1"/>
        <pt x="505" y="1379" on="1"/>
        <pt x="584" y="1419" on="0"/>
        <pt x="727" y="1419" on="1"/>
        <pt x="909" y="1419" on="1"/>
        <pt x="909" y="1338" on="1"/>
        <pt x="343" y="1224" on="0"/>
        <pt x="343" y="1056" on="1"/>
        <pt x="242" y="997" on="0"/>
        <pt x="162" y="631" on="1"/>
        <pt x="232" y="339" on="0"/>
        <pt x="323" y="328" on="1"/>
        <pt x="432" y="187" on="0"/>
        <pt x="545" y="167" on="1"/>
        <pt x="646" y="187" on="1"/>
        <pt x="970" y="126" on="1"/>
        <pt x="970" y="86" on="1"/>
        <pt x="848" y="5" on="1"/>
        <pt x="626" y="5" on="1"/>
        <pt x="0" y="106" on="0"/>
        <pt x="0" y="510" on="1"/>
        <pt x="0" y="530" on="1"/>
        <pt x="20" y="551" on="1"/>
        <pt x="0" y="571" on="1"/>
        <pt x="55" y="1076" on="0"/>
        <pt x="141" y="1076" on="1"/>
        <pt x="231" y="1232" on="0"/>
      </contour>
    </TTGlyph>
    <TTGlyph name="ccedilla" xMin="0" yMin="-318" xMax="657" yMax="1394">
      <contour>
        <pt x="577" y="1394" on="1"/>
        <pt x="577" y="1354" on="0"/>
        <pt x="657" y="1354" on="1"/>
        <pt x="657" y="1314" on="1"/>
        <pt x="657" y="1265" on="0"/>
        <pt x="458" y="1215" on="1"/>
        <pt x="458" y="1135" on="0"/>
        <pt x="398" y="1135" on="1"/>
        <pt x="338" y="1155" on="1"/>
        <pt x="139" y="916" on="1"/>
        <pt x="139" y="717" on="1"/>
        <pt x="159" y="399" on="0"/>
        <pt x="438" y="399" on="1"/>
        <pt x="478" y="399" on="1"/>
        <pt x="478" y="339" on="0"/>
        <pt x="577" y="339" on="1"/>
        <pt x="637" y="339" on="1"/>
        <pt x="637" y="259" on="1"/>
        <pt x="577" y="200" on="1"/>
        <pt x="518" y="200" on="1"/>
        <pt x="378" y="219" on="1"/>
        <pt x="358" y="120" on="1"/>
        <pt x="597" y="28" on="0"/>
        <pt x="597" y="-19" on="1"/>
        <pt x="597" y="-158" on="1"/>
        <pt x="597" y="-205" on="0"/>
        <pt x="358" y="-318" on="1"/>
        <pt x="279" y="-298" on="1"/>
        <pt x="279" y="-178" on="1"/>
        <pt x="378" y="-178" on="1"/>
        <pt x="478" y="-99" on="1"/>
        <pt x="458" y="-79" on="1"/>
        <pt x="239" y="-25" on="0"/>
        <pt x="239" y="180" on="1"/>
        <pt x="239" y="299" on="0"/>
        <pt x="40" y="458" on="1"/>
        <pt x="0" y="837" on="1"/>
        <pt x="0" y="1300" on="0"/>
      </contour>
    </TTGlyph>
    <TTGlyph name="cent" xMin="-34" yMin="-119" xMax="899" yMax="1457">
      <contour>
        <pt x="388" y="1288" on="1"/>
        <pt x="445" y="1254" on="1"/>
        <pt x="520" y="1288" on="0"/>
        <pt x="656" y="1288" on="1"/>
        <pt x="829" y="1288" on="1"/>
        <pt x="829" y="1218" on="1"/>
        <pt x="292" y="1120" on="0"/>
        <pt x="292" y="976" on="1"/>
        <pt x="196" y="925" on="0"/>
        <pt x="120" y="610" on="1"/>
        <pt x="186" y="359" on="0"/>
        <pt x="273" y="350" on="1"/>
        <pt x="376" y="229" on="0"/>
        <pt x="483" y="211" on="1"/>
        <pt x="579" y="229" on="1"/>
        <pt x="887" y="176" on="1"/>
        <pt x="887" y="142" on="1"/>
        <pt x="771" y="72" on="1"/>
        <pt x="560" y="72" on="1"/>
        <pt x="-34" y="159" on="0"/>
        <pt x="-34" y="506" on="1"/>
        <pt x="-34" y="523" on="1"/>
        <pt x="-15" y="542" on="1"/>
        <pt x="-34" y="559" on="1"/>
        <pt x="18" y="993" on="0"/>
        <pt x="100" y="993" on="1"/>
        <pt x="185" y="1127" on="0"/>
      </contour>
      <contour>
        <pt x="801" y="1411" on="1"/>
        <pt x="883" y="1457" on="1"/>
        <pt x="899" y="1405" on="1"/>
        <pt x="832" y="1286" on="1"/>
        <pt x="240" y="-82" on="1"/>
        <pt x="166" y="-119" on="1"/>
        <pt x="132" y="-114" on="1"/>
      </contour>
    </TTGlyph>
    <TTGlyph name="colon" xMin="-8" yMin="284" xMax="240" yMax="996">
      <contour>
        <pt x="126" y="996" on="1"/>
        <pt x="225" y="968" on="0"/>
        <pt x="225" y="820" on="1"/>
        <pt x="180" y="771" on="1"/>
        <pt x="147" y="771" on="1"/>
        <pt x="-8" y="806" on="0"/>
        <pt x="-8" y="879" on="1"/>
        <pt x="31" y="996" on="0"/>
      </contour>
      <contour>
        <pt x="91" y="918" on="1"/>
        <pt x="91" y="898" on="0"/>
        <pt x="136" y="898" on="1"/>
        <pt x="136" y="859" on="1"/>
        <pt x="147" y="859" on="1"/>
        <pt x="147" y="898" on="1"/>
        <pt x="114" y="918" on="1"/>
      </contour>
      <contour>
        <pt x="114" y="536" on="1"/>
        <pt x="172" y="513" on="0"/>
        <pt x="240" y="410" on="1"/>
        <pt x="240" y="381" on="1"/>
        <pt x="135" y="284" on="1"/>
        <pt x="103" y="284" on="1"/>
        <pt x="23" y="284" on="0"/>
        <pt x="9" y="323" on="1"/>
        <pt x="9" y="352" on="1"/>
        <pt x="9" y="536" on="0"/>
      </contour>
      <contour>
        <pt x="72" y="401" on="1"/>
        <pt x="72" y="361" on="1"/>
        <pt x="103" y="361" on="1"/>
        <pt x="103" y="390" on="1"/>
      </contour>
    </TTGlyph>
    <TTGlyph name="comma" xMin="-8" yMin="-120" xMax="325" yMax="329">
      <contour>
        <pt x="174" y="-106" on="1"/>
        <pt x="114" y="-120" on="1"/>
        <pt x="101" y="-62" on="1"/>
        <pt x="131" y="5" on="1"/>
        <pt x="102" y="-1" on="0"/>
        <pt x="0" y="97" on="1"/>
        <pt x="-8" y="126" on="1"/>
        <pt x="-1" y="295" on="0"/>
        <pt x="43" y="306" on="1"/>
        <pt x="148" y="329" on="1"/>
        <pt x="271" y="276" on="0"/>
        <pt x="283" y="223" on="1"/>
        <pt x="325" y="53" on="0"/>
      </contour>
      <contour>
        <pt x="180" y="199" on="1"/>
        <pt x="124" y="232" on="1"/>
        <pt x="82" y="208" on="1"/>
        <pt x="89" y="179" on="1"/>
        <pt x="122" y="110" on="1"/>
        <pt x="152" y="117" on="1"/>
        <pt x="186" y="124" on="0"/>
      </contour>
    </TTGlyph>
    <TTGlyph name="copyright" xMin="0" yMin="49" xMax="1219" yMax="1345">
      <contour>
        <pt x="696" y="1345" on="1"/>
        <pt x="1003" y="1345" on="0"/>
        <pt x="1083" y="1152" on="1"/>
        <pt x="1219" y="953" on="0"/>
        <pt x="1219" y="668" on="1"/>
        <pt x="1161" y="309" on="0"/>
        <pt x="1025" y="204" on="1"/>
        <pt x="895" y="49" on="0"/>
        <pt x="580" y="49" on="1"/>
        <pt x="189" y="49" on="0"/>
        <pt x="19" y="571" on="1"/>
        <pt x="0" y="784" on="1"/>
        <pt x="0" y="803" on="1"/>
        <pt x="99" y="1345" on="0"/>
        <pt x="484" y="1345" on="1"/>
      </contour>
      <contour>
        <pt x="135" y="784" on="1"/>
        <pt x="155" y="726" on="1"/>
        <pt x="135" y="707" on="1"/>
        <pt x="116" y="707" on="1"/>
        <pt x="197" y="300" on="0"/>
        <pt x="329" y="300" on="1"/>
        <pt x="349" y="235" on="0"/>
        <pt x="561" y="184" on="1"/>
        <pt x="638" y="184" on="1"/>
        <pt x="844" y="184" on="0"/>
        <pt x="1025" y="436" on="1"/>
        <pt x="1103" y="687" on="1"/>
        <pt x="1103" y="881" on="1"/>
        <pt x="928" y="1113" on="1"/>
        <pt x="810" y="1113" on="0"/>
        <pt x="677" y="1229" on="1"/>
        <pt x="522" y="1229" on="1"/>
        <pt x="193" y="1146" on="0"/>
        <pt x="193" y="977" on="1"/>
      </contour>
      <contour>
        <pt x="503" y="1113" on="1"/>
        <pt x="658" y="1113" on="1"/>
        <pt x="763" y="1113" on="0"/>
        <pt x="812" y="1016" on="1"/>
        <pt x="812" y="939" on="1"/>
        <pt x="793" y="939" on="1"/>
        <pt x="716" y="958" on="1"/>
        <pt x="658" y="939" on="1"/>
        <pt x="658" y="958" on="1"/>
        <pt x="619" y="997" on="1"/>
        <pt x="464" y="997" on="0"/>
        <pt x="368" y="765" on="1"/>
        <pt x="432" y="455" on="0"/>
        <pt x="464" y="455" on="1"/>
        <pt x="600" y="417" on="1"/>
        <pt x="638" y="417" on="1"/>
        <pt x="677" y="417" on="0"/>
        <pt x="677" y="513" on="1"/>
        <pt x="735" y="513" on="1"/>
        <pt x="735" y="455" on="1"/>
        <pt x="832" y="475" on="1"/>
        <pt x="851" y="475" on="1"/>
        <pt x="890" y="436" on="1"/>
        <pt x="890" y="397" on="1"/>
        <pt x="809" y="262" on="0"/>
        <pt x="677" y="262" on="1"/>
        <pt x="677" y="300" on="0"/>
        <pt x="503" y="300" on="1"/>
        <pt x="445" y="339" on="1"/>
        <pt x="426" y="320" on="1"/>
        <pt x="232" y="448" on="0"/>
        <pt x="232" y="784" on="1"/>
        <pt x="232" y="861" on="1"/>
        <pt x="377" y="1113" on="0"/>
      </contour>
    </TTGlyph>
    <TTGlyph name="d" xMin="-15" yMin="-9" xMax="737" yMax="1426">
      <contour>
        <pt x="-15" y="1426" on="1"/>
        <pt x="2" y="1426" on="1"/>
        <pt x="265" y="1426" on="0"/>
        <pt x="545" y="1216" on="1"/>
        <pt x="545" y="1251" on="1"/>
        <pt x="597" y="1251" on="1"/>
        <pt x="720" y="866" on="1"/>
        <pt x="720" y="813" on="1"/>
        <pt x="702" y="656" on="1"/>
        <pt x="737" y="533" on="1"/>
        <pt x="662" y="533" on="0"/>
        <pt x="632" y="358" on="1"/>
        <pt x="457" y="170" on="0"/>
        <pt x="457" y="78" on="1"/>
        <pt x="246" y="-9" on="0"/>
        <pt x="160" y="-9" on="1"/>
        <pt x="37" y="-9" on="1"/>
        <pt x="2" y="26" on="1"/>
        <pt x="2" y="61" on="1"/>
        <pt x="37" y="113" on="1"/>
        <pt x="20" y="621" on="1"/>
        <pt x="-15" y="656" on="1"/>
        <pt x="-15" y="1111" on="1"/>
        <pt x="20" y="1251" on="1"/>
        <pt x="20" y="1321" on="1"/>
        <pt x="-15" y="1373" on="1"/>
      </contour>
      <contour>
        <pt x="160" y="1286" on="1"/>
        <pt x="142" y="1233" on="1"/>
        <pt x="142" y="1198" on="1"/>
        <pt x="160" y="1198" on="1"/>
        <pt x="142" y="1023" on="1"/>
        <pt x="142" y="743" on="1"/>
        <pt x="160" y="726" on="1"/>
        <pt x="160" y="708" on="1"/>
        <pt x="142" y="708" on="1"/>
        <pt x="160" y="691" on="1"/>
        <pt x="160" y="673" on="1"/>
        <pt x="195" y="131" on="1"/>
        <pt x="212" y="131" on="1"/>
        <pt x="399" y="187" on="0"/>
        <pt x="562" y="533" on="1"/>
        <pt x="597" y="761" on="1"/>
        <pt x="522" y="1216" on="0"/>
        <pt x="317" y="1216" on="1"/>
        <pt x="253" y="1216" on="0"/>
      </contour>
    </TTGlyph>
    <TTGlyph name="dollar" xMin="0" yMin="-48" xMax="562" yMax="1547">
      <contour>
        <pt x="236" y="1547" on="1"/>
        <pt x="308" y="1547" on="1"/>
        <pt x="308" y="1348" on="0"/>
        <pt x="489" y="1348" on="1"/>
        <pt x="489" y="1293" on="1"/>
        <pt x="326" y="1293" on="0"/>
        <pt x="326" y="1076" on="1"/>
        <pt x="326" y="895" on="1"/>
        <pt x="516" y="722" on="0"/>
        <pt x="526" y="586" on="1"/>
        <pt x="562" y="423" on="1"/>
        <pt x="471" y="115" on="0"/>
        <pt x="290" y="115" on="1"/>
        <pt x="254" y="-48" on="1"/>
        <pt x="181" y="-48" on="1"/>
        <pt x="163" y="61" on="1"/>
        <pt x="181" y="115" on="1"/>
        <pt x="0" y="170" on="1"/>
        <pt x="0" y="278" on="1"/>
        <pt x="36" y="278" on="1"/>
        <pt x="163" y="260" on="1"/>
        <pt x="181" y="351" on="1"/>
        <pt x="181" y="423" on="1"/>
        <pt x="199" y="786" on="1"/>
        <pt x="36" y="938" on="0"/>
        <pt x="36" y="1094" on="1"/>
        <pt x="36" y="1112" on="1"/>
        <pt x="36" y="1303" on="0"/>
        <pt x="218" y="1366" on="1"/>
        <pt x="218" y="1420" on="1"/>
      </contour>
      <contour>
        <pt x="145" y="1058" on="1"/>
        <pt x="199" y="1058" on="0"/>
        <pt x="199" y="985" on="1"/>
        <pt x="218" y="985" on="1"/>
        <pt x="236" y="1203" on="1"/>
        <pt x="207" y="1203" on="0"/>
      </contour>
      <contour>
        <pt x="290" y="695" on="1"/>
        <pt x="272" y="568" on="1"/>
        <pt x="272" y="296" on="1"/>
        <pt x="308" y="260" on="1"/>
        <pt x="435" y="315" on="0"/>
        <pt x="435" y="441" on="1"/>
        <pt x="435" y="460" on="1"/>
      </contour>
    </TTGlyph>
    <TTGlyph name="e" xMin="0" yMin="-28" xMax="710" yMax="1465">
      <contour>
        <pt x="36" y="1465" on="1"/>
        <pt x="91" y="1465" on="1"/>
        <pt x="91" y="1411" on="0"/>
        <pt x="127" y="1411" on="1"/>
        <pt x="455" y="1411" on="1"/>
        <pt x="473" y="1301" on="1"/>
        <pt x="382" y="1301" on="0"/>
        <pt x="382" y="1228" on="1"/>
        <pt x="328" y="1228" on="1"/>
        <pt x="346" y="1247" on="1"/>
        <pt x="346" y="1265" on="1"/>
        <pt x="164" y="1265" on="1"/>
        <pt x="182" y="1247" on="1"/>
        <pt x="182" y="1228" on="1"/>
        <pt x="164" y="882" on="1"/>
        <pt x="182" y="864" on="1"/>
        <pt x="200" y="864" on="1"/>
        <pt x="346" y="882" on="1"/>
        <pt x="419" y="846" on="1"/>
        <pt x="546" y="864" on="1"/>
        <pt x="710" y="846" on="1"/>
        <pt x="710" y="791" on="1"/>
        <pt x="146" y="707" on="0"/>
        <pt x="146" y="664" on="1"/>
        <pt x="146" y="409" on="1"/>
        <pt x="127" y="136" on="1"/>
        <pt x="191" y="81" on="0"/>
        <pt x="346" y="81" on="1"/>
        <pt x="637" y="81" on="1"/>
        <pt x="637" y="-9" on="1"/>
        <pt x="455" y="-28" on="1"/>
        <pt x="437" y="-9" on="1"/>
        <pt x="419" y="-28" on="1"/>
        <pt x="237" y="-9" on="1"/>
        <pt x="73" y="-9" on="1"/>
        <pt x="0" y="-9" on="0"/>
        <pt x="0" y="682" on="1"/>
        <pt x="0" y="755" on="1"/>
        <pt x="18" y="773" on="1"/>
        <pt x="0" y="791" on="1"/>
        <pt x="0" y="810" on="1"/>
        <pt x="36" y="1301" on="1"/>
      </contour>
    </TTGlyph>
    <TTGlyph name="eacute" xMin="0" yMin="-19" xMax="694" yMax="1772">
      <contour>
        <pt x="383" y="1772" on="1"/>
        <pt x="399" y="1772" on="1"/>
        <pt x="430" y="1742" on="1"/>
        <pt x="430" y="1683" on="1"/>
        <pt x="227" y="1489" on="1"/>
        <pt x="149" y="1489" on="1"/>
        <pt x="149" y="1564" on="1"/>
      </contour>
      <contour>
        <pt x="116" y="1379" on="1"/>
        <pt x="289" y="1361" on="1"/>
        <pt x="386" y="1379" on="1"/>
        <pt x="540" y="1361" on="0"/>
        <pt x="540" y="1324" on="1"/>
        <pt x="540" y="1269" on="1"/>
        <pt x="316" y="1269" on="0"/>
        <pt x="174" y="1177" on="1"/>
        <pt x="193" y="1085" on="1"/>
        <pt x="193" y="1011" on="1"/>
        <pt x="231" y="1011" on="1"/>
        <pt x="231" y="993" on="1"/>
        <pt x="212" y="754" on="1"/>
        <pt x="337" y="698" on="0"/>
        <pt x="463" y="698" on="1"/>
        <pt x="540" y="698" on="1"/>
        <pt x="578" y="662" on="1"/>
        <pt x="578" y="625" on="1"/>
        <pt x="347" y="606" on="1"/>
        <pt x="154" y="606" on="1"/>
        <pt x="116" y="570" on="1"/>
        <pt x="174" y="386" on="1"/>
        <pt x="174" y="275" on="1"/>
        <pt x="212" y="275" on="1"/>
        <pt x="193" y="183" on="1"/>
        <pt x="212" y="110" on="0"/>
        <pt x="289" y="110" on="1"/>
        <pt x="405" y="128" on="1"/>
        <pt x="405" y="110" on="1"/>
        <pt x="424" y="128" on="1"/>
        <pt x="443" y="128" on="1"/>
        <pt x="694" y="115" on="0"/>
        <pt x="694" y="73" on="1"/>
        <pt x="694" y="36" on="1"/>
        <pt x="453" y="-19" on="0"/>
        <pt x="270" y="-19" on="1"/>
        <pt x="39" y="-19" on="0"/>
        <pt x="39" y="165" on="1"/>
        <pt x="0" y="165" on="0"/>
        <pt x="0" y="239" on="1"/>
        <pt x="19" y="771" on="0"/>
        <pt x="58" y="827" on="1"/>
        <pt x="19" y="991" on="0"/>
        <pt x="19" y="1269" on="1"/>
        <pt x="19" y="1361" on="1"/>
      </contour>
    </TTGlyph>
    <TTGlyph name="ecircumflex" xMin="0" yMin="-19" xMax="694" yMax="1763">
      <contour>
        <pt x="116" y="1379" on="1"/>
        <pt x="289" y="1361" on="1"/>
        <pt x="386" y="1379" on="1"/>
        <pt x="540" y="1361" on="0"/>
        <pt x="540" y="1324" on="1"/>
        <pt x="540" y="1269" on="1"/>
        <pt x="316" y="1269" on="0"/>
        <pt x="174" y="1177" on="1"/>
        <pt x="193" y="1085" on="1"/>
        <pt x="193" y="1011" on="1"/>
        <pt x="231" y="1011" on="1"/>
        <pt x="231" y="993" on="1"/>
        <pt x="212" y="754" on="1"/>
        <pt x="337" y="698" on="0"/>
        <pt x="463" y="698" on="1"/>
        <pt x="540" y="698" on="1"/>
        <pt x="578" y="662" on="1"/>
        <pt x="578" y="625" on="1"/>
        <pt x="347" y="606" on="1"/>
        <pt x="154" y="606" on="1"/>
        <pt x="116" y="570" on="1"/>
        <pt x="174" y="386" on="1"/>
        <pt x="174" y="275" on="1"/>
        <pt x="212" y="275" on="1"/>
        <pt x="193" y="183" on="1"/>
        <pt x="212" y="110" on="0"/>
        <pt x="289" y="110" on="1"/>
        <pt x="405" y="128" on="1"/>
        <pt x="405" y="110" on="1"/>
        <pt x="424" y="128" on="1"/>
        <pt x="443" y="128" on="1"/>
        <pt x="694" y="115" on="0"/>
        <pt x="694" y="73" on="1"/>
        <pt x="694" y="36" on="1"/>
        <pt x="453" y="-19" on="0"/>
        <pt x="270" y="-19" on="1"/>
        <pt x="39" y="-19" on="0"/>
        <pt x="39" y="165" on="1"/>
        <pt x="0" y="165" on="0"/>
        <pt x="0" y="239" on="1"/>
        <pt x="19" y="771" on="0"/>
        <pt x="58" y="827" on="1"/>
        <pt x="19" y="991" on="0"/>
        <pt x="19" y="1269" on="1"/>
        <pt x="19" y="1361" on="1"/>
      </contour>
      <contour>
        <pt x="446" y="1439" on="1"/>
        <pt x="394" y="1438" on="1"/>
        <pt x="367" y="1447" on="1"/>
        <pt x="364" y="1466" on="1"/>
        <pt x="298" y="1632" on="1"/>
        <pt x="285" y="1632" on="1"/>
        <pt x="217" y="1458" on="0"/>
        <pt x="131" y="1456" on="1"/>
        <pt x="92" y="1455" on="1"/>
        <pt x="155" y="1630" on="0"/>
        <pt x="230" y="1729" on="1"/>
        <pt x="215" y="1742" on="1"/>
        <pt x="231" y="1762" on="0"/>
        <pt x="251" y="1762" on="1"/>
        <pt x="290" y="1763" on="1"/>
        <pt x="437" y="1579" on="1"/>
        <pt x="424" y="1574" on="1"/>
        <pt x="438" y="1570" on="1"/>
        <pt x="425" y="1569" on="1"/>
        <pt x="439" y="1565" on="1"/>
        <pt x="443" y="1542" on="1"/>
        <pt x="464" y="1491" on="1"/>
        <pt x="442" y="1462" on="1"/>
      </contour>
    </TTGlyph>
    <TTGlyph name="edieresis" xMin="0" yMin="-19" xMax="694" yMax="1786">
      <contour>
        <pt x="116" y="1379" on="1"/>
        <pt x="289" y="1361" on="1"/>
        <pt x="386" y="1379" on="1"/>
        <pt x="540" y="1361" on="0"/>
        <pt x="540" y="1324" on="1"/>
        <pt x="540" y="1269" on="1"/>
        <pt x="316" y="1269" on="0"/>
        <pt x="174" y="1177" on="1"/>
        <pt x="193" y="1085" on="1"/>
        <pt x="193" y="1011" on="1"/>
        <pt x="231" y="1011" on="1"/>
        <pt x="231" y="993" on="1"/>
        <pt x="212" y="754" on="1"/>
        <pt x="337" y="698" on="0"/>
        <pt x="463" y="698" on="1"/>
        <pt x="540" y="698" on="1"/>
        <pt x="578" y="662" on="1"/>
        <pt x="578" y="625" on="1"/>
        <pt x="347" y="606" on="1"/>
        <pt x="154" y="606" on="1"/>
        <pt x="116" y="570" on="1"/>
        <pt x="174" y="386" on="1"/>
        <pt x="174" y="275" on="1"/>
        <pt x="212" y="275" on="1"/>
        <pt x="193" y="183" on="1"/>
        <pt x="212" y="110" on="0"/>
        <pt x="289" y="110" on="1"/>
        <pt x="405" y="128" on="1"/>
        <pt x="405" y="110" on="1"/>
        <pt x="424" y="128" on="1"/>
        <pt x="443" y="128" on="1"/>
        <pt x="694" y="115" on="0"/>
        <pt x="694" y="73" on="1"/>
        <pt x="694" y="36" on="1"/>
        <pt x="453" y="-19" on="0"/>
        <pt x="270" y="-19" on="1"/>
        <pt x="39" y="-19" on="0"/>
        <pt x="39" y="165" on="1"/>
        <pt x="0" y="165" on="0"/>
        <pt x="0" y="239" on="1"/>
        <pt x="19" y="771" on="0"/>
        <pt x="58" y="827" on="1"/>
        <pt x="19" y="991" on="0"/>
        <pt x="19" y="1269" on="1"/>
        <pt x="19" y="1361" on="1"/>
      </contour>
      <contour>
        <pt x="163" y="1786" on="1"/>
        <pt x="253" y="1786" on="1"/>
        <pt x="268" y="1741" on="1"/>
        <pt x="253" y="1665" on="1"/>
        <pt x="253" y="1529" on="1"/>
        <pt x="208" y="1484" on="1"/>
        <pt x="178" y="1484" on="1"/>
        <pt x="133" y="1529" on="1"/>
      </contour>
      <contour>
        <pt x="344" y="1756" on="1"/>
        <pt x="389" y="1756" on="1"/>
        <pt x="434" y="1746" on="0"/>
        <pt x="434" y="1635" on="1"/>
        <pt x="434" y="1454" on="1"/>
        <pt x="419" y="1454" on="1"/>
        <pt x="329" y="1454" on="0"/>
        <pt x="329" y="1575" on="1"/>
        <pt x="329" y="1680" on="1"/>
      </contour>
    </TTGlyph>
    <TTGlyph name="egrave" xMin="0" yMin="-19" xMax="694" yMax="1733">
      <contour>
        <pt x="395" y="1523" on="1"/>
        <pt x="397" y="1507" on="1"/>
        <pt x="371" y="1473" on="1"/>
        <pt x="312" y="1467" on="1"/>
        <pt x="97" y="1647" on="1"/>
        <pt x="88" y="1725" on="1"/>
        <pt x="163" y="1733" on="1"/>
      </contour>
      <contour>
        <pt x="116" y="1379" on="1"/>
        <pt x="289" y="1361" on="1"/>
        <pt x="386" y="1379" on="1"/>
        <pt x="540" y="1361" on="0"/>
        <pt x="540" y="1324" on="1"/>
        <pt x="540" y="1269" on="1"/>
        <pt x="316" y="1269" on="0"/>
        <pt x="174" y="1177" on="1"/>
        <pt x="193" y="1085" on="1"/>
        <pt x="193" y="1011" on="1"/>
        <pt x="231" y="1011" on="1"/>
        <pt x="231" y="993" on="1"/>
        <pt x="212" y="754" on="1"/>
        <pt x="337" y="698" on="0"/>
        <pt x="463" y="698" on="1"/>
        <pt x="540" y="698" on="1"/>
        <pt x="578" y="662" on="1"/>
        <pt x="578" y="625" on="1"/>
        <pt x="347" y="606" on="1"/>
        <pt x="154" y="606" on="1"/>
        <pt x="116" y="570" on="1"/>
        <pt x="174" y="386" on="1"/>
        <pt x="174" y="275" on="1"/>
        <pt x="212" y="275" on="1"/>
        <pt x="193" y="183" on="1"/>
        <pt x="212" y="110" on="0"/>
        <pt x="289" y="110" on="1"/>
        <pt x="405" y="128" on="1"/>
        <pt x="405" y="110" on="1"/>
        <pt x="424" y="128" on="1"/>
        <pt x="443" y="128" on="1"/>
        <pt x="694" y="115" on="0"/>
        <pt x="694" y="73" on="1"/>
        <pt x="694" y="36" on="1"/>
        <pt x="453" y="-19" on="0"/>
        <pt x="270" y="-19" on="1"/>
        <pt x="39" y="-19" on="0"/>
        <pt x="39" y="165" on="1"/>
        <pt x="0" y="165" on="0"/>
        <pt x="0" y="239" on="1"/>
        <pt x="19" y="771" on="0"/>
        <pt x="58" y="827" on="1"/>
        <pt x="19" y="991" on="0"/>
        <pt x="19" y="1269" on="1"/>
        <pt x="19" y="1361" on="1"/>
      </contour>
    </TTGlyph>
    <TTGlyph name="eight" xMin="0" yMin="-48" xMax="469" yMax="1461">
      <contour>
        <pt x="134" y="1461" on="1"/>
        <pt x="235" y="1461" on="1"/>
        <pt x="370" y="1461" on="0"/>
        <pt x="469" y="1327" on="1"/>
        <pt x="469" y="980" on="0"/>
        <pt x="302" y="623" on="1"/>
        <pt x="402" y="408" on="0"/>
        <pt x="402" y="170" on="1"/>
        <pt x="402" y="37" on="0"/>
        <pt x="302" y="-48" on="1"/>
        <pt x="168" y="-48" on="1"/>
        <pt x="34" y="120" on="1"/>
        <pt x="34" y="260" on="0"/>
        <pt x="168" y="606" on="1"/>
        <pt x="0" y="1159" on="1"/>
        <pt x="0" y="1260" on="1"/>
        <pt x="34" y="1298" on="0"/>
        <pt x="34" y="1377" on="1"/>
      </contour>
      <contour>
        <pt x="134" y="1142" on="1"/>
        <pt x="134" y="1125" on="1"/>
        <pt x="134" y="1059" on="0"/>
        <pt x="251" y="790" on="1"/>
        <pt x="251" y="773" on="1"/>
        <pt x="268" y="773" on="1"/>
        <pt x="369" y="1057" on="0"/>
        <pt x="369" y="1176" on="1"/>
        <pt x="352" y="1193" on="1"/>
        <pt x="352" y="1209" on="1"/>
        <pt x="369" y="1209" on="1"/>
        <pt x="322" y="1324" on="0"/>
        <pt x="251" y="1360" on="1"/>
        <pt x="218" y="1360" on="1"/>
        <pt x="178" y="1360" on="0"/>
      </contour>
      <contour>
        <pt x="235" y="455" on="1"/>
        <pt x="151" y="203" on="1"/>
        <pt x="201" y="69" on="1"/>
        <pt x="319" y="126" on="0"/>
        <pt x="319" y="153" on="1"/>
        <pt x="319" y="220" on="1"/>
        <pt x="268" y="455" on="0"/>
      </contour>
    </TTGlyph>
    <TTGlyph name="equal" xMin="9" yMin="432" xMax="790" yMax="803">
      <contour>
        <pt x="9" y="803" on="1"/>
        <pt x="712" y="803" on="0"/>
        <pt x="712" y="725" on="1"/>
        <pt x="712" y="705" on="1"/>
        <pt x="673" y="627" on="0"/>
        <pt x="595" y="627" on="1"/>
        <pt x="595" y="608" on="1"/>
        <pt x="634" y="608" on="0"/>
        <pt x="634" y="549" on="1"/>
        <pt x="751" y="549" on="1"/>
        <pt x="790" y="510" on="1"/>
        <pt x="790" y="451" on="1"/>
        <pt x="439" y="432" on="1"/>
        <pt x="68" y="432" on="0"/>
        <pt x="68" y="490" on="1"/>
        <pt x="51" y="518" on="1"/>
        <pt x="51" y="599" on="0"/>
        <pt x="243" y="571" on="1"/>
        <pt x="497" y="588" on="1"/>
        <pt x="556" y="608" on="1"/>
        <pt x="556" y="627" on="1"/>
        <pt x="243" y="666" on="1"/>
        <pt x="224" y="647" on="1"/>
        <pt x="204" y="647" on="1"/>
        <pt x="9" y="700" on="0"/>
        <pt x="9" y="744" on="1"/>
      </contour>
    </TTGlyph>
    <TTGlyph name="exclam" xMin="-15" yMin="-5" xMax="259" yMax="1427">
      <contour>
        <pt x="69" y="-3" on="1"/>
        <pt x="-15" y="-2" on="0"/>
        <pt x="-11" y="217" on="1"/>
        <pt x="-11" y="234" on="1"/>
        <pt x="-10" y="321" on="0"/>
        <pt x="41" y="334" on="1"/>
        <pt x="175" y="332" on="1"/>
        <pt x="225" y="281" on="1"/>
        <pt x="223" y="146" on="1"/>
        <pt x="199" y="-5" on="0"/>
      </contour>
      <contour>
        <pt x="122" y="148" on="1"/>
        <pt x="140" y="215" on="1"/>
        <pt x="123" y="232" on="1"/>
        <pt x="106" y="232" on="1"/>
        <pt x="72" y="199" on="1"/>
        <pt x="88" y="148" on="1"/>
      </contour>
      <contour>
        <pt x="111" y="518" on="1"/>
        <pt x="60" y="519" on="1"/>
        <pt x="45" y="604" on="1"/>
        <pt x="45" y="654" on="1"/>
        <pt x="85" y="1075" on="1"/>
        <pt x="69" y="1092" on="1"/>
        <pt x="69" y="1109" on="1"/>
        <pt x="87" y="1210" on="1"/>
        <pt x="88" y="1277" on="1"/>
        <pt x="73" y="1362" on="1"/>
        <pt x="90" y="1378" on="1"/>
        <pt x="124" y="1378" on="1"/>
        <pt x="174" y="1343" on="1"/>
        <pt x="192" y="1427" on="1"/>
        <pt x="259" y="1426" on="1"/>
        <pt x="256" y="1244" on="0"/>
        <pt x="203" y="1056" on="1"/>
        <pt x="219" y="1005" on="1"/>
        <pt x="147" y="720" on="1"/>
        <pt x="145" y="552" on="1"/>
      </contour>
    </TTGlyph>
    <TTGlyph name="exclamdown" xMin="-15" yMin="-214" xMax="231" yMax="1219">
      <contour>
        <pt x="144" y="1218" on="1"/>
        <pt x="228" y="1219" on="0"/>
        <pt x="229" y="1000" on="1"/>
        <pt x="230" y="983" on="1"/>
        <pt x="231" y="896" on="0"/>
        <pt x="180" y="882" on="1"/>
        <pt x="46" y="881" on="1"/>
        <pt x="-5" y="931" on="1"/>
        <pt x="-6" y="1066" on="1"/>
        <pt x="14" y="1217" on="0"/>
      </contour>
      <contour>
        <pt x="95" y="1066" on="1"/>
        <pt x="78" y="998" on="1"/>
        <pt x="96" y="982" on="1"/>
        <pt x="113" y="982" on="1"/>
        <pt x="146" y="1016" on="1"/>
        <pt x="129" y="1067" on="1"/>
      </contour>
      <contour>
        <pt x="114" y="696" on="1"/>
        <pt x="165" y="696" on="1"/>
        <pt x="182" y="612" on="1"/>
        <pt x="183" y="562" on="1"/>
        <pt x="152" y="140" on="1"/>
        <pt x="169" y="123" on="1"/>
        <pt x="169" y="106" on="1"/>
        <pt x="153" y="5" on="1"/>
        <pt x="154" y="-62" on="1"/>
        <pt x="171" y="-146" on="1"/>
        <pt x="154" y="-163" on="1"/>
        <pt x="120" y="-163" on="1"/>
        <pt x="69" y="-129" on="1"/>
        <pt x="53" y="-214" on="1"/>
        <pt x="-13" y="-214" on="1"/>
        <pt x="-15" y="-32" on="0"/>
        <pt x="34" y="156" on="1"/>
        <pt x="17" y="207" on="1"/>
        <pt x="82" y="493" on="1"/>
        <pt x="81" y="661" on="1"/>
      </contour>
    </TTGlyph>
    <TTGlyph name="f" xMin="-6" yMin="-56" xMax="540" yMax="1419">
      <contour>
        <pt x="97" y="1419" on="1"/>
        <pt x="215" y="1375" on="1"/>
        <pt x="510" y="1360" on="1"/>
        <pt x="510" y="1301" on="1"/>
        <pt x="422" y="1272" on="1"/>
        <pt x="289" y="1286" on="1"/>
        <pt x="186" y="1272" on="1"/>
        <pt x="171" y="1286" on="1"/>
        <pt x="146" y="1183" on="0"/>
        <pt x="127" y="1183" on="1"/>
        <pt x="186" y="991" on="1"/>
        <pt x="171" y="741" on="1"/>
        <pt x="186" y="726" on="1"/>
        <pt x="215" y="726" on="1"/>
        <pt x="496" y="755" on="1"/>
        <pt x="540" y="741" on="1"/>
        <pt x="540" y="696" on="1"/>
        <pt x="466" y="696" on="0"/>
        <pt x="466" y="637" on="1"/>
        <pt x="333" y="637" on="1"/>
        <pt x="241" y="637" on="0"/>
        <pt x="127" y="593" on="1"/>
        <pt x="142" y="446" on="1"/>
        <pt x="142" y="372" on="1"/>
        <pt x="171" y="328" on="1"/>
        <pt x="171" y="298" on="1"/>
        <pt x="142" y="298" on="1"/>
        <pt x="186" y="224" on="1"/>
        <pt x="139" y="-56" on="0"/>
        <pt x="83" y="-56" on="1"/>
        <pt x="38" y="-56" on="1"/>
        <pt x="9" y="62" on="1"/>
        <pt x="9" y="180" on="1"/>
        <pt x="-6" y="578" on="1"/>
        <pt x="9" y="593" on="1"/>
        <pt x="24" y="637" on="1"/>
        <pt x="38" y="637" on="1"/>
        <pt x="24" y="652" on="1"/>
        <pt x="24" y="667" on="1"/>
        <pt x="53" y="741" on="1"/>
        <pt x="24" y="1242" on="1"/>
        <pt x="47" y="1419" on="0"/>
      </contour>
    </TTGlyph>
    <TTGlyph name="five" xMin="-29" yMin="-185" xMax="716" yMax="1432">
      <contour>
        <pt x="-9" y="-185" on="1"/>
        <pt x="-28" y="-185" on="1"/>
        <pt x="-29" y="-106" on="1"/>
        <pt x="404" y="228" on="0"/>
        <pt x="403" y="526" on="1"/>
        <pt x="328" y="881" on="0"/>
        <pt x="185" y="880" on="1"/>
        <pt x="184" y="912" on="0"/>
        <pt x="27" y="939" on="1"/>
        <pt x="7" y="959" on="1"/>
        <pt x="6" y="1156" on="1"/>
        <pt x="45" y="1274" on="1"/>
        <pt x="6" y="1314" on="1"/>
        <pt x="6" y="1353" on="1"/>
        <pt x="65" y="1353" on="0"/>
        <pt x="64" y="1432" on="1"/>
        <pt x="84" y="1432" on="1"/>
        <pt x="163" y="1403" on="0"/>
        <pt x="163" y="1373" on="1"/>
        <pt x="498" y="1394" on="1"/>
        <pt x="518" y="1394" on="1"/>
        <pt x="715" y="1375" on="1"/>
        <pt x="716" y="1316" on="1"/>
        <pt x="341" y="1256" on="1"/>
        <pt x="321" y="1275" on="1"/>
        <pt x="302" y="1275" on="1"/>
        <pt x="144" y="1252" on="0"/>
        <pt x="144" y="1176" on="1"/>
        <pt x="125" y="1077" on="1"/>
        <pt x="500" y="912" on="0"/>
        <pt x="501" y="684" on="1"/>
        <pt x="502" y="369" on="1"/>
        <pt x="503" y="154" on="0"/>
        <pt x="208" y="-85" on="1"/>
        <pt x="81" y="-184" on="0"/>
      </contour>
    </TTGlyph>
    <TTGlyph name="four" xMin="0" yMin="-182" xMax="637" yMax="1412">
      <contour>
        <pt x="417" y="-182" on="1"/>
        <pt x="354" y="-182" on="1"/>
        <pt x="353" y="-7" on="1"/>
        <pt x="399" y="439" on="1"/>
        <pt x="386" y="599" on="0"/>
        <pt x="351" y="598" on="1"/>
        <pt x="98" y="486" on="0"/>
        <pt x="16" y="485" on="1"/>
        <pt x="0" y="501" on="1"/>
        <pt x="0" y="549" on="1"/>
        <pt x="58" y="549" on="0"/>
        <pt x="206" y="965" on="1"/>
        <pt x="327" y="1142" on="0"/>
        <pt x="395" y="1412" on="1"/>
        <pt x="459" y="1412" on="1"/>
        <pt x="475" y="1332" on="1"/>
        <pt x="478" y="758" on="1"/>
        <pt x="541" y="791" on="1"/>
        <pt x="637" y="775" on="0"/>
        <pt x="637" y="743" on="1"/>
        <pt x="637" y="715" on="0"/>
        <pt x="478" y="663" on="1"/>
        <pt x="433" y="25" on="1"/>
        <pt x="449" y="-70" on="1"/>
      </contour>
      <contour>
        <pt x="398" y="806" on="1"/>
        <pt x="382" y="854" on="1"/>
        <pt x="397" y="997" on="1"/>
        <pt x="396" y="1109" on="1"/>
        <pt x="381" y="1109" on="1"/>
        <pt x="191" y="662" on="1"/>
        <pt x="207" y="662" on="1"/>
        <pt x="398" y="715" on="0"/>
      </contour>
    </TTGlyph>
    <TTGlyph name="g" xMin="-4" yMin="-9" xMax="1082" yMax="1479">
      <contour>
        <pt x="740" y="1479" on="1"/>
        <pt x="1062" y="1446" on="0"/>
        <pt x="1062" y="1378" on="1"/>
        <pt x="1062" y="1318" on="1"/>
        <pt x="1001" y="1218" on="1"/>
        <pt x="961" y="1218" on="1"/>
        <pt x="921" y="1258" on="1"/>
        <pt x="941" y="1318" on="1"/>
        <pt x="921" y="1318" on="1"/>
        <pt x="820" y="1298" on="1"/>
        <pt x="680" y="1318" on="1"/>
        <pt x="197" y="1163" on="0"/>
        <pt x="197" y="916" on="1"/>
        <pt x="177" y="675" on="1"/>
        <pt x="177" y="551" on="0"/>
        <pt x="499" y="272" on="1"/>
        <pt x="499" y="163" on="0"/>
        <pt x="599" y="132" on="1"/>
        <pt x="619" y="152" on="1"/>
        <pt x="720" y="132" on="1"/>
        <pt x="800" y="132" on="1"/>
        <pt x="868" y="132" on="0"/>
        <pt x="921" y="433" on="1"/>
        <pt x="921" y="614" on="1"/>
        <pt x="885" y="755" on="0"/>
        <pt x="700" y="755" on="1"/>
        <pt x="418" y="836" on="1"/>
        <pt x="418" y="916" on="1"/>
        <pt x="438" y="916" on="1"/>
        <pt x="1042" y="916" on="0"/>
        <pt x="1042" y="815" on="1"/>
        <pt x="1082" y="715" on="1"/>
        <pt x="1082" y="448" on="0"/>
        <pt x="941" y="-9" on="1"/>
        <pt x="579" y="-9" on="1"/>
        <pt x="318" y="31" on="1"/>
        <pt x="318" y="152" on="1"/>
        <pt x="86" y="228" on="0"/>
        <pt x="56" y="574" on="1"/>
        <pt x="-4" y="735" on="1"/>
        <pt x="-4" y="1003" on="0"/>
        <pt x="97" y="1057" on="1"/>
        <pt x="97" y="1164" on="0"/>
        <pt x="318" y="1358" on="1"/>
        <pt x="534" y="1479" on="0"/>
      </contour>
    </TTGlyph>
    <TTGlyph name="germandbls" xMin="-135" yMin="-161" xMax="622" yMax="1386">
      <contour>
        <pt x="-135" y="1386" on="1"/>
        <pt x="-115" y="1386" on="1"/>
        <pt x="-128" y="1373" on="1"/>
        <pt x="-135" y="1373" on="1"/>
      </contour>
      <contour>
        <pt x="-95" y="1354" on="1"/>
        <pt x="-76" y="1354" on="1"/>
        <pt x="-76" y="1334" on="1"/>
        <pt x="-95" y="1334" on="1"/>
      </contour>
      <contour>
        <pt x="-56" y="1327" on="1"/>
        <pt x="-17" y="1319" on="0"/>
        <pt x="-17" y="1301" on="1"/>
        <pt x="-23" y="1295" on="1"/>
        <pt x="-49" y="1295" on="1"/>
      </contour>
      <contour>
        <pt x="409" y="1384" on="1"/>
        <pt x="550" y="1384" on="0"/>
        <pt x="586" y="1224" on="1"/>
        <pt x="604" y="1099" on="1"/>
        <pt x="533" y="904" on="0"/>
        <pt x="409" y="762" on="1"/>
        <pt x="463" y="655" on="0"/>
        <pt x="604" y="531" on="1"/>
        <pt x="622" y="407" on="1"/>
        <pt x="622" y="354" on="1"/>
        <pt x="569" y="34" on="0"/>
        <pt x="320" y="34" on="1"/>
        <pt x="302" y="17" on="1"/>
        <pt x="249" y="-1" on="1"/>
        <pt x="178" y="25" on="0"/>
        <pt x="178" y="52" on="1"/>
        <pt x="178" y="70" on="1"/>
        <pt x="224" y="141" on="0"/>
        <pt x="427" y="247" on="1"/>
        <pt x="515" y="389" on="1"/>
        <pt x="476" y="389" on="0"/>
        <pt x="427" y="531" on="1"/>
        <pt x="267" y="676" on="0"/>
        <pt x="267" y="798" on="1"/>
        <pt x="462" y="1117" on="1"/>
        <pt x="422" y="1241" on="0"/>
        <pt x="320" y="1241" on="1"/>
        <pt x="175" y="1241" on="0"/>
        <pt x="125" y="815" on="1"/>
        <pt x="143" y="709" on="1"/>
        <pt x="125" y="656" on="1"/>
        <pt x="143" y="478" on="1"/>
        <pt x="143" y="265" on="1"/>
        <pt x="178" y="-36" on="1"/>
        <pt x="143" y="-161" on="1"/>
        <pt x="89" y="-161" on="1"/>
        <pt x="89" y="-101" on="0"/>
        <pt x="36" y="-54" on="1"/>
        <pt x="18" y="70" on="1"/>
        <pt x="36" y="176" on="1"/>
        <pt x="-17" y="496" on="1"/>
        <pt x="18" y="673" on="1"/>
        <pt x="1" y="869" on="1"/>
        <pt x="1" y="940" on="1"/>
        <pt x="1" y="1321" on="0"/>
        <pt x="338" y="1384" on="1"/>
      </contour>
    </TTGlyph>
    <TTGlyph name="grave" xMin="15" yMin="1043" xMax="361" yMax="1441">
      <contour>
        <pt x="361" y="1096" on="1"/>
        <pt x="358" y="1076" on="1"/>
        <pt x="314" y="1043" on="1"/>
        <pt x="235" y="1053" on="1"/>
        <pt x="15" y="1343" on="1"/>
        <pt x="28" y="1441" on="1"/>
        <pt x="126" y="1427" on="1"/>
      </contour>
    </TTGlyph>
    <TTGlyph name="greater" xMin="-78" yMin="479" xMax="766" yMax="1131">
      <contour>
        <pt x="-78" y="527" on="1"/>
        <pt x="0" y="556" on="1"/>
        <pt x="27" y="600" on="1"/>
        <pt x="74" y="599" on="1"/>
        <pt x="485" y="706" on="1"/>
        <pt x="487" y="728" on="1"/>
        <pt x="211" y="924" on="0"/>
        <pt x="34" y="1035" on="1"/>
        <pt x="41" y="1131" on="1"/>
        <pt x="459" y="966" on="0"/>
        <pt x="686" y="804" on="1"/>
        <pt x="723" y="775" on="1"/>
        <pt x="766" y="748" on="0"/>
        <pt x="763" y="759" on="1"/>
        <pt x="757" y="691" on="1"/>
        <pt x="270" y="497" on="1"/>
        <pt x="261" y="521" on="1"/>
        <pt x="247" y="497" on="1"/>
        <pt x="249" y="521" on="1"/>
        <pt x="235" y="498" on="1"/>
        <pt x="178" y="499" on="1"/>
        <pt x="46" y="479" on="1"/>
        <pt x="-19" y="526" on="1"/>
      </contour>
    </TTGlyph>
    <TTGlyph name="h" xMin="0" yMin="-116" xMax="461" yMax="1447">
      <contour>
        <pt x="66" y="1447" on="1"/>
        <pt x="99" y="1447" on="1"/>
        <pt x="140" y="1447" on="0"/>
        <pt x="165" y="1266" on="1"/>
        <pt x="115" y="1266" on="0"/>
        <pt x="115" y="1233" on="1"/>
        <pt x="115" y="723" on="1"/>
        <pt x="165" y="674" on="1"/>
        <pt x="197" y="674" on="1"/>
        <pt x="214" y="690" on="1"/>
        <pt x="230" y="690" on="1"/>
        <pt x="230" y="674" on="1"/>
        <pt x="313" y="695" on="0"/>
        <pt x="313" y="723" on="1"/>
        <pt x="280" y="904" on="1"/>
        <pt x="313" y="1299" on="1"/>
        <pt x="313" y="1315" on="1"/>
        <pt x="345" y="1381" on="1"/>
        <pt x="395" y="1381" on="1"/>
        <pt x="411" y="1315" on="1"/>
        <pt x="395" y="1266" on="1"/>
        <pt x="411" y="1184" on="1"/>
        <pt x="378" y="970" on="1"/>
        <pt x="378" y="690" on="0"/>
        <pt x="461" y="690" on="1"/>
        <pt x="461" y="624" on="1"/>
        <pt x="411" y="624" on="0"/>
        <pt x="411" y="575" on="1"/>
        <pt x="395" y="427" on="1"/>
        <pt x="395" y="328" on="1"/>
        <pt x="428" y="180" on="1"/>
        <pt x="411" y="180" on="1"/>
        <pt x="444" y="81" on="1"/>
        <pt x="411" y="49" on="1"/>
        <pt x="345" y="49" on="1"/>
        <pt x="345" y="114" on="1"/>
        <pt x="313" y="246" on="1"/>
        <pt x="313" y="591" on="1"/>
        <pt x="148" y="591" on="1"/>
        <pt x="132" y="509" on="1"/>
        <pt x="165" y="16" on="1"/>
        <pt x="181" y="16" on="1"/>
        <pt x="165" y="-116" on="0"/>
        <pt x="132" y="-116" on="1"/>
        <pt x="115" y="-99" on="1"/>
        <pt x="33" y="-56" on="0"/>
        <pt x="33" y="16" on="1"/>
        <pt x="33" y="164" on="1"/>
        <pt x="16" y="394" on="1"/>
        <pt x="33" y="410" on="1"/>
        <pt x="33" y="427" on="1"/>
        <pt x="0" y="822" on="1"/>
        <pt x="16" y="1200" on="1"/>
        <pt x="0" y="1282" on="1"/>
      </contour>
    </TTGlyph>
    <TTGlyph name="hyphen" xMin="0" yMin="588" xMax="688" yMax="764">
      <contour>
        <pt x="0" y="764" on="1"/>
        <pt x="688" y="764" on="0"/>
        <pt x="688" y="686" on="1"/>
        <pt x="688" y="666" on="1"/>
        <pt x="650" y="588" on="0"/>
        <pt x="573" y="588" on="1"/>
        <pt x="535" y="588" on="1"/>
        <pt x="229" y="627" on="1"/>
        <pt x="210" y="608" on="1"/>
        <pt x="191" y="608" on="1"/>
        <pt x="0" y="661" on="0"/>
        <pt x="0" y="705" on="1"/>
      </contour>
    </TTGlyph>
    <TTGlyph name="i" xMin="-28" yMin="17" xMax="164" yMax="1766">
      <contour>
        <pt x="106" y="1405" on="1"/>
        <pt x="125" y="1405" on="1"/>
        <pt x="145" y="1387" on="1"/>
        <pt x="164" y="1387" on="1"/>
        <pt x="145" y="1120" on="1"/>
        <pt x="145" y="426" on="1"/>
        <pt x="164" y="34" on="1"/>
        <pt x="49" y="17" on="1"/>
        <pt x="-8" y="82" on="0"/>
        <pt x="-8" y="141" on="1"/>
        <pt x="-8" y="337" on="1"/>
        <pt x="10" y="355" on="1"/>
        <pt x="-8" y="408" on="1"/>
        <pt x="-28" y="1067" on="1"/>
        <pt x="10" y="1174" on="1"/>
        <pt x="10" y="1209" on="1"/>
        <pt x="-8" y="1280" on="1"/>
        <pt x="30" y="1377" on="0"/>
      </contour>
      <contour>
        <pt x="92" y="1766" on="1"/>
        <pt x="151" y="1766" on="1"/>
        <pt x="151" y="1609" on="1"/>
        <pt x="73" y="1531" on="1"/>
        <pt x="34" y="1531" on="1"/>
        <pt x="-5" y="1570" on="1"/>
        <pt x="-5" y="1668" on="0"/>
      </contour>
    </TTGlyph>
    <TTGlyph name="iacute" xMin="-57" yMin="17" xMax="221" yMax="1764">
      <contour>
        <pt x="143" y="1405" on="1"/>
        <pt x="162" y="1405" on="1"/>
        <pt x="182" y="1387" on="1"/>
        <pt x="201" y="1387" on="1"/>
        <pt x="182" y="1120" on="1"/>
        <pt x="182" y="426" on="1"/>
        <pt x="201" y="34" on="1"/>
        <pt x="86" y="17" on="1"/>
        <pt x="29" y="82" on="0"/>
        <pt x="29" y="141" on="1"/>
        <pt x="29" y="337" on="1"/>
        <pt x="47" y="355" on="1"/>
        <pt x="29" y="408" on="1"/>
        <pt x="9" y="1067" on="1"/>
        <pt x="47" y="1174" on="1"/>
        <pt x="47" y="1209" on="1"/>
        <pt x="29" y="1280" on="1"/>
        <pt x="67" y="1377" on="0"/>
      </contour>
      <contour>
        <pt x="176" y="1764" on="1"/>
        <pt x="221" y="1739" on="1"/>
        <pt x="95" y="1524" on="1"/>
        <pt x="-27" y="1450" on="1"/>
        <pt x="-57" y="1466" on="1"/>
        <pt x="-55" y="1536" on="1"/>
        <pt x="23" y="1671" on="0"/>
      </contour>
    </TTGlyph>
    <TTGlyph name="icircumflex" xMin="-59" yMin="17" xMax="313" yMax="1778">
      <contour>
        <pt x="171" y="1405" on="1"/>
        <pt x="190" y="1405" on="1"/>
        <pt x="210" y="1387" on="1"/>
        <pt x="229" y="1387" on="1"/>
        <pt x="210" y="1120" on="1"/>
        <pt x="210" y="426" on="1"/>
        <pt x="229" y="34" on="1"/>
        <pt x="114" y="17" on="1"/>
        <pt x="57" y="82" on="0"/>
        <pt x="57" y="141" on="1"/>
        <pt x="57" y="337" on="1"/>
        <pt x="75" y="355" on="1"/>
        <pt x="57" y="408" on="1"/>
        <pt x="37" y="1067" on="1"/>
        <pt x="75" y="1174" on="1"/>
        <pt x="75" y="1209" on="1"/>
        <pt x="57" y="1280" on="1"/>
        <pt x="95" y="1377" on="0"/>
      </contour>
      <contour>
        <pt x="295" y="1454" on="1"/>
        <pt x="243" y="1453" on="1"/>
        <pt x="216" y="1462" on="1"/>
        <pt x="213" y="1481" on="1"/>
        <pt x="147" y="1647" on="1"/>
        <pt x="134" y="1647" on="1"/>
        <pt x="66" y="1473" on="0"/>
        <pt x="-20" y="1471" on="1"/>
        <pt x="-59" y="1470" on="1"/>
        <pt x="4" y="1645" on="0"/>
        <pt x="80" y="1744" on="1"/>
        <pt x="64" y="1757" on="1"/>
        <pt x="80" y="1777" on="0"/>
        <pt x="100" y="1777" on="1"/>
        <pt x="139" y="1778" on="1"/>
        <pt x="286" y="1594" on="1"/>
        <pt x="273" y="1589" on="1"/>
        <pt x="287" y="1585" on="1"/>
        <pt x="274" y="1584" on="1"/>
        <pt x="288" y="1580" on="1"/>
        <pt x="292" y="1557" on="1"/>
        <pt x="313" y="1506" on="1"/>
        <pt x="291" y="1477" on="1"/>
      </contour>
    </TTGlyph>
    <TTGlyph name="idieresis" xMin="-10" yMin="17" xMax="291" yMax="1749">
      <contour>
        <pt x="163" y="1405" on="1"/>
        <pt x="182" y="1405" on="1"/>
        <pt x="202" y="1387" on="1"/>
        <pt x="221" y="1387" on="1"/>
        <pt x="202" y="1120" on="1"/>
        <pt x="202" y="426" on="1"/>
        <pt x="221" y="34" on="1"/>
        <pt x="106" y="17" on="1"/>
        <pt x="49" y="82" on="0"/>
        <pt x="49" y="141" on="1"/>
        <pt x="49" y="337" on="1"/>
        <pt x="67" y="355" on="1"/>
        <pt x="49" y="408" on="1"/>
        <pt x="29" y="1067" on="1"/>
        <pt x="67" y="1174" on="1"/>
        <pt x="67" y="1209" on="1"/>
        <pt x="49" y="1280" on="1"/>
        <pt x="87" y="1377" on="0"/>
      </contour>
      <contour>
        <pt x="20" y="1749" on="1"/>
        <pt x="110" y="1749" on="1"/>
        <pt x="125" y="1704" on="1"/>
        <pt x="110" y="1628" on="1"/>
        <pt x="110" y="1492" on="1"/>
        <pt x="65" y="1447" on="1"/>
        <pt x="35" y="1447" on="1"/>
        <pt x="-10" y="1492" on="1"/>
      </contour>
      <contour>
        <pt x="201" y="1719" on="1"/>
        <pt x="246" y="1719" on="1"/>
        <pt x="291" y="1709" on="0"/>
        <pt x="291" y="1598" on="1"/>
        <pt x="291" y="1417" on="1"/>
        <pt x="276" y="1417" on="1"/>
        <pt x="186" y="1417" on="0"/>
        <pt x="186" y="1538" on="1"/>
        <pt x="186" y="1643" on="1"/>
      </contour>
    </TTGlyph>
    <TTGlyph name="igrave" xMin="-15" yMin="17" xMax="257" yMax="1741">
      <contour>
        <pt x="151" y="1377" on="0"/>
        <pt x="188" y="1280" on="1"/>
        <pt x="170" y="1209" on="1"/>
        <pt x="170" y="1174" on="1"/>
        <pt x="207" y="1067" on="1"/>
        <pt x="188" y="408" on="1"/>
        <pt x="170" y="355" on="1"/>
        <pt x="188" y="337" on="1"/>
        <pt x="188" y="141" on="1"/>
        <pt x="188" y="82" on="0"/>
        <pt x="132" y="17" on="1"/>
        <pt x="19" y="34" on="1"/>
        <pt x="38" y="426" on="1"/>
        <pt x="38" y="1120" on="1"/>
        <pt x="19" y="1387" on="1"/>
        <pt x="38" y="1387" on="1"/>
        <pt x="58" y="1405" on="1"/>
        <pt x="76" y="1405" on="1"/>
      </contour>
      <contour>
        <pt x="178" y="1648" on="0"/>
        <pt x="255" y="1513" on="1"/>
        <pt x="257" y="1443" on="1"/>
        <pt x="228" y="1427" on="1"/>
        <pt x="108" y="1501" on="1"/>
        <pt x="-15" y="1716" on="1"/>
        <pt x="29" y="1741" on="1"/>
      </contour>
    </TTGlyph>
    <TTGlyph name="j" xMin="-97" yMin="-108" xMax="324" yMax="1409">
      <contour>
        <pt x="156" y="1409" on="1"/>
        <pt x="206" y="1409" on="1"/>
        <pt x="223" y="1291" on="1"/>
        <pt x="223" y="1139" on="1"/>
        <pt x="291" y="1139" on="1"/>
        <pt x="291" y="987" on="1"/>
        <pt x="274" y="516" on="1"/>
        <pt x="324" y="296" on="1"/>
        <pt x="324" y="263" on="1"/>
        <pt x="256" y="-108" on="0"/>
        <pt x="21" y="-108" on="1"/>
        <pt x="-46" y="-108" on="1"/>
        <pt x="-97" y="-57" on="1"/>
        <pt x="-97" y="-6" on="1"/>
        <pt x="173" y="-6" on="0"/>
        <pt x="173" y="195" on="1"/>
        <pt x="122" y="448" on="1"/>
        <pt x="139" y="819" on="1"/>
        <pt x="105" y="1105" on="1"/>
        <pt x="105" y="1341" on="1"/>
        <pt x="156" y="1341" on="0"/>
      </contour>
    </TTGlyph>
    <TTGlyph name="k" xMin="-23" yMin="-81" xMax="565" yMax="1476">
      <contour>
        <pt x="168" y="1476" on="1"/>
        <pt x="184" y="1461" on="1"/>
        <pt x="184" y="1445" on="1"/>
        <pt x="168" y="979" on="0"/>
        <pt x="136" y="856" on="1"/>
        <pt x="152" y="841" on="1"/>
        <pt x="168" y="841" on="1"/>
        <pt x="502" y="1222" on="1"/>
        <pt x="549" y="1222" on="1"/>
        <pt x="549" y="1174" on="1"/>
        <pt x="438" y="1031" on="1"/>
        <pt x="454" y="1015" on="1"/>
        <pt x="454" y="936" on="1"/>
        <pt x="406" y="936" on="0"/>
        <pt x="406" y="872" on="1"/>
        <pt x="266" y="770" on="0"/>
        <pt x="184" y="666" on="1"/>
        <pt x="365" y="517" on="0"/>
        <pt x="549" y="411" on="1"/>
        <pt x="565" y="395" on="1"/>
        <pt x="565" y="300" on="1"/>
        <pt x="533" y="300" on="1"/>
        <pt x="200" y="475" on="1"/>
        <pt x="200" y="459" on="1"/>
        <pt x="184" y="395" on="1"/>
        <pt x="184" y="173" on="1"/>
        <pt x="152" y="141" on="1"/>
        <pt x="168" y="30" on="1"/>
        <pt x="152" y="-81" on="1"/>
        <pt x="88" y="-81" on="1"/>
        <pt x="56" y="61" on="1"/>
        <pt x="72" y="61" on="1"/>
        <pt x="56" y="77" on="1"/>
        <pt x="56" y="268" on="1"/>
        <pt x="56" y="555" on="0"/>
        <pt x="-23" y="602" on="1"/>
        <pt x="-23" y="650" on="1"/>
        <pt x="25" y="777" on="1"/>
        <pt x="9" y="825" on="1"/>
        <pt x="46" y="1461" on="0"/>
        <pt x="88" y="1461" on="1"/>
      </contour>
    </TTGlyph>
</ttFont>
